<REAPER_PROJECT 0.1 "6.57/win64" 1652191839
  RIPPLE 2
  GROUPOVERRIDE 1 0 0
  AUTOXFADE 129
  ENVATTACH 0
  POOLEDENVATTACH 0
  MIXERUIFLAGS 11 48
  PEAKGAIN 1
  FEEDBACK 0
  PANLAW 1
  PROJOFFS 0 -1 0
  MAXPROJLEN 0 600
  GRID 3199 8 0.25 8 1 0 0 0
  TIMEMODE 1 5 -1 30 0 0 -1
  VIDEO_CONFIG 0 0 256
  PANMODE 3
  CURSOR 72.86990803341169
  ZOOM 7.02807350278287 0 0
  VZOOMEX 6 0
  USE_REC_CFG 0
  RECMODE 2
  SMPTESYNC 0 30 100 40 1000 300 0 0 1 0 0
  LOOP 0
  LOOPGRAN 0 4
  RECORD_PATH "" ""
  <RECORD_CFG
    ZXZhdxgAAA==
  >
  <APPLYFX_CFG
  >
  RENDER_FILE ""
  RENDER_PATTERN 2
  RENDER_FMT 0 2 0
  RENDER_1X 0
  RENDER_RANGE 1 0 0 18 1000
  RENDER_RESAMPLE 3 0 1
  RENDER_ADDTOPROJ 0
  RENDER_STEMS 0
  RENDER_DITHER 0
  TIMELOCKMODE 1
  TEMPOENVLOCKMODE 1
  ITEMMIX 1
  DEFPITCHMODE 589824 0
  TAKELANE 1
  SAMPLERATE 48000 1 0
  <RENDER_CFG
    bDNwbUABAAAAAAAABQAAAP////8EAAAAQAEAAAAAAAA=
  >
  LOCK 1
  <METRONOME 22 2
    VOL 0.25 0.125
    FREQ 800 1600 1
    BEATLEN 4
    SAMPLES "" ""
    PATTERN 2863311530 2863311529
    MULT 1
  >
  GLOBAL_AUTO -1
  TEMPO 144 2 2
  PLAYRATE 1 0 0.25 4
  SELECTION 52.5 49.6875
  SELECTION2 52.5 49.6875
  MASTERAUTOMODE 0
  MASTERTRACKHEIGHT 0 0
  MASTERPEAKCOL 16576
  MASTERMUTESOLO 0
  MASTERTRACKVIEW 0 0.6667 0.5 0.5 -1 -1 -1 0 0 0 -1 -1 0
  MASTERHWOUT 0 0 1 0 0 0 0 -1
  MASTER_NCH 2 2
  MASTER_VOLUME 1 0 -1 -1 1
  MASTER_PANMODE 3
  MASTER_FX 1
  MASTER_SEL 0
  <MASTERPLAYSPEEDENV
    EGUID {088C113C-009A-47DC-99D8-F957E0174C7F}
    ACT 0 -1
    VIS 0 1 1
    LANEHEIGHT 0 0
    ARM 0
    DEFSHAPE 0 -1 -1
  >
  <TEMPOENVEX
    EGUID {EAC7F4D8-4A34-4B14-B2D7-92BA3107D196}
    ACT 1 -1
    VIS 1 0 1
    LANEHEIGHT 0 0
    ARM 0
    DEFSHAPE 1 -1 -1
    PT 0.000000000000 64.2240415324 1 262148 0 1
    PT 156.741264919884 61.9999958667 1 262146 0 5
    PT 158.676748919883 61.9999958667 1 262148 0 1
    PT 162.547716919880 61.9999958667 1 262147 0 1
    PT 165.450942919879 61.9999958667 1 262148 0 1
    PT 169.321910919877 61.9999958667 1 262147 0 1
    PT 172.225136919875 61.9999958667 1 262148 0 1
    PT 176.096104919873 61.9999958667 1 262147 0 1
    PT 178.999330919872 61.9999958667 1 262148 0 1
    PT 182.870298919870 61.9999958667 1 262149 0 1
    PT 187.709008919867 61.9999958667 1 262148 0 1
  >
  <PROJBAY
  >
  <TRACK {E3BD8149-ABEA-4DBB-A386-8860B62521E1}
    NAME "perc short"
    PEAKCOL 27852793
    BEAT -1
    AUTOMODE 0
    VOLPAN 1 0.112 -1 -1 1
    MUTESOLO 0 0 0
    IPHASE 0
    PLAYOFFS 0 1
    ISBUS 0 0
    BUSCOMP 0 0 0 0 0
    SHOWINMIX 1 0.6667 0.5 1 0.5 -1 -1 -1
    SEL 1
    REC 0 4096 1 0 0 0 0
    VU 2
    TRACKHEIGHT 0 0 0 0 0 0
    INQ 0 0 0 0.5 100 0 0 100
    NCHAN 2
    FX 1
    TRACKID {E3BD8149-ABEA-4DBB-A386-8860B62521E1}
    PERF 0
    MIDIOUT -1
    MAINSEND 1 0
    <VOLENV2
      EGUID {5A2B8792-99C8-4CAB-8BA6-63ABB3CE0785}
      ACT 1 -1
      VIS 0 1 1
      LANEHEIGHT 0 0
      ARM 0
      DEFSHAPE 0 -1 -1
      VOLTYPE 1
      PT 157.00479546 0.56085968 0
      PT 206.35963746 0.56085968 0
      PT 206.35963846 0.11990967 0 0 1
    >
    <FXCHAIN
      WNDRECT 347 223 1071 831
      SHOW 0
      LASTSEL 0
      DOCKED 0
      BYPASS 0 0 0
      <VST "VSTi: Absynth 5 (Native Instruments GmbH)" "Absynth 5 Stereo.dll" 0 "" 1131179320<565354436C6D38616273796E74682035> ""
        OG1sQ+5e7f4CAAAAAQAAAAAAAAACAAAAAAAAAAIAAAABAAAAAAAAAAIAAAAAAAAAXxUAAAEAAAAAABAA
        XxUAAAAAAAABAAAAaHNpbgEAAAAAAAAADNSXhly5zEOyI5MAnbtkp5YAAAAAAAAARFNJTnYAAAABAAAASAAAAAAAAABEU0lOagAAAAEAAAAYAAAAAAAAAERTSU4BAAAA
        AQAAAAEAAAABAAAAAQAAAAEAAAAAAAAAAAAAAAAAAAANYmWFAQAAAA5wEAAAAAAAAQAAAAEAAAAAAAAAAAAAAAAAAAADAAAAMAAwADAAAAAAAAAAAAAAAAAAAAAAAAEA
        AAABAAAAAAAAAERTSU5lAAAAjRQAAAAAAAABAAAAaHNpbgEAAAAAAAAAanJtEGImREOpLqPe6hOHs2cAAAAAAAAARFNJTmUAAAABAAAANAAAAAAAAABEU0lOagAAAAEA
        AAAYAAAAAAAAAERTSU4BAAAAAQAAAAEAAAABAAAAAgAAAAEAAAAABgAAAAEAAAAHAAAANQAuADAALgAwAC4AMAABAAAAAwAAAAAAAABEU0lObAAAALIBAAAAAAAAAQAA
        AGhzaW4BAAAAAAAAAEKFExlb5ZVOpENv1gYlhWaCAQAAAAAAAERTSU5sAAAAAQAAABgAAAAAAAAARFNJTgEAAAABAAAAAQAAAAEAAAACAAAAAQAAAAAAAAAOAAAAVQBu
        AHQAaQB0AGwAZQBkACAAUwBvAHUAbgBkAAAAAAAAAAAAAAAAAAAAAAAAAAAAAAAAAAAAAAAAAAAAAAAAAAAAAAABAAAAAQAAAAEAAAAHAAAAQQBiAHMAeQBuAHQAaAAA
        AAAAAAAAAAcAAAAHAAAAXABAAGMAbwBsAG8AcgABAAAAMAARAAAAXABAAGQAZQB2AGkAYwBlAHQAeQBwAGUAZgBsAGEAZwBzAAEAAAAxAAsAAABcAEAAcwBvAHUAbgBk
        AHQAeQBwAGUAAQAAADAABwAAAFwAQAB0AGUAbQBwAG8AAQAAADAABgAAAFwAQAB2AGUAcgBsAAYAAAAxAC4ANwAuADEANAAGAAAAXABAAHYAZQByAG0ABgAAADEALgA3
        AC4AMQA0AAcAAABcAEAAdgBpAHMAaQBiAAEAAAAwAAEAAAAAAAAAAgAAAERTSU55AAAAaAAAAAAAAAABAAAAaHNpbgEAAAAAAAAARunc6wuWMkeBq42ZoYuWRDgAAAAA
        AAAARFNJTnkAAAABAAAAGAAAAAAAAABEU0lOAQAAAAEAAAABAAAAAQAAAAEAAAAAAAAAAQAAAAAAAAABAAAARFNJTnQAAAC4EQAAAAAAAAEAAABoc2luAQAAAAAAAAC4
        Mb68F5gVSIUKXh5S4dZ8iBEAAAAAAABEU0lOdAAAAAEAAABvEQAAAAAAAERTSU5zAAAAAQAAABgAAAAAAAAARFNJTgEAAAABAAAAAQAAAAEAAAABE0YAADYRAAACE0YA
        YAAAASAFA2hzaW5AB0AAEAcORjrk8KJOuWzVLgJm3/wYQBQgAANEU0lOQCPgBwNAAEAbAG0gCAG/RSAEIABAI+ADUxCuZnYUZKycR4Ges7CW6DR4j6AnwDdAL+AXZ0Aj
        AEegNwADIGMACqALB3RzcnBtYUxjIBIJAOwSAAA0Y3RwgiALBCAPb+kAIAAIBACAP8kDgD8AIAcCAAAAQAMEAICI9UAgBQNAAwIAoAAPXkBVbnRpdGxlZCBTb3VuZKAW
        4AQACwEAXYgBANVtAQC2uCALABwgHEBNwAPgDAAEZkliTBAgGQK/znZgjeADAAQ0Y3NvoCAQBhoSb+nud6MgkUAAQKXAAwEAAKAXBT+D+SJDAGAX4BEAQSFAA0AAAAEg
        qcAAwAmAB0BbgLOA/EAPA4A/BABAAACAIVOADwIbL30g14ALAAAgAOA/q4CDgADAC0CrA83MTD1AFeAAE0AMYH/gcauBH4AAgI8gByFX4EOrBDE1ZG0oIFwAKEII4gAD
        wAABgD8gGgQADgCjQCLxIYcA8CIDBMBBXXRIIAdADwGAPiADIBfgAwPgBwAESELn+0kgIwb6RQAAoEEA4AQrAUhCIFdAACAfQEOAAALNzMwhi8APgAcCmpmZIGtgG2AH
        BgBAnEVmZmYgN0BTIAACHB/aIAUgAATcQzMzcyAXI6EC1yM8IAbgBQALs2euAgDkPwMA3DoAIFui3yAACYA/MzOzPgEvPOBACwAAIAAC8wQ1IAeACwAAYAcFQD8BVggJ
        4QczQSNAAIAH4f0z4RczAAAgAIEvQADh/TPhFzNBL8ADAADh/TPhGDMAACAA5QFH4v1n4htnQTNCawAA4f0z4RgzQS+myyAA4v1n4hdnAAAgAEEz4v1n4g1nA25yR2ZJ
        nwHlOku/gTMABiE3QTMABaJnAAGgF+ABACizBeCrRgAAIClvQAAgD2ADAPDpBG8pHylnaVMgB0AjQACAB+kYb6An6RdvAAHJn2njSecgAAGIs2H7AgAA0CCXQAAA4Gpn
        gABKU+AXAICjAADpCp8AACmfAzRyU2ZNzeEDMyAAoGtgOw1AIDRjY3wAAABAYPUWACrTBIwuuj0KYCMBgD9ACwQAAABAB2FXgA8BAQBAyyPXIVcAASFXAAEgDwAAIA9A
        KwABIVdADyADAT8BoBNAGwYBAMw92YkdIAtAAEB3gANEKwVBAMw+BQAs1wUxZ2MMGwBuLUEUQANNrwAAICsEFQAAAH8gAwAAIAsAAOAXACC/IMjgIS8gUwEXAOAjL48h
        4CCPIAAAGSAD4CMvABrgIy8CdX2VITbgIV8CEMdTTzDgII8gXwAd4CZfAB7gIy8gXwAf4CMvIL8AIOAjLyBfAAHgAi8HTW9kd2hlZWwgEuAMAAABIF8ACyAZwR8NQ2hh
        bm5lbCBWb2x1bWUgGOAGAAABIF8jL2KvCgQCAT9QYW4gTFIA4BAAQF8AFCAdQsgD+Pv9PkAvAUZCIBDgDgAADqAXADQgB44PQAAjBy2/AAAgAAAPIANAAAA1IATgBB9t
        vwIAAA0gA0AAQWPgBB8kH0AXQB9BH+AIH6BfQB9Dp+AIH6BfAP8gAEBHIAYA/6BfINogn6BfIBbgDR+gXyAe4A0f4DdfAXy/IIfgEl+gACB+4A1/4AIXQCogDuAF3wBw
        UZeAFyAG4AkfoAAgNuANH+AXnwEFQ2BDID7gDT8B2i7gFR8BJxjgFR8Bf/5wPyBe4A1fAf7I4BUfAY6Q4BUfAfwr4BUfASNRZg8gfuANfwKPiL1BQiAe4A0fAvs7vuAU
        HwGNmOAVHwH+0OAVHwI/A7/gFF8BJxzgFR8B2TLgFR8BBUfgFR8BXljgFR8Bp2bgFR8BqnHgFR8BP3ngFR8BS33gFR8ANeAWHwFwc+AVPwHwXuAVHwGjQOAVHwHmGeAV
        HwHz2OEV3wGwaeAVHwL5v7zhFP8BsTniFd8B9MDgFR8B5g3jFZ8BozTgFR8B8VLgFR8BcGfgFR8BNXHgFR8B/fnhFR8BhAfhFX8BthHgFR8BjxvgFR8BByXgFR8BGi7g
        FR8BwTbgFR8B+D7gFR8BuUbgFR8B/03gFR8BxlTgFR8BClvgFR8Bx2BgHwCBQoQgAEejh18nW0ADAfll4AAfQBtAA+AEHwGeauAAH0e/4AgfAbJu4AAfQAAAByAE4AQ/
        ATJy4AAfQDvgCB8BHXXgAB9AX+AIHwFxd+AAH0AASGzgBF8BLXngAB9AX+AIHwFPeuAAH0Bf4AgfANbgAR9Ae+AIHwDDgB8mPuYNPwEAciAD4JIfAbptYP8gvuANvwGC
        aeAVHwG6ZOAVHwFlX+AVHwGGWeAVHwEhU+AVHwE5TOAVHwHUROAVHwH1POAVHwGiNOAVHwHfK+AVHwGzIuAVHwAi5hZfATIP4BU/AeoE4BUfAaL05RVfAdfe4BUfAYPI
        4BUfAbSx4BUfAXea4BUfAduC4BUfAdxV4BUfAX4l4BUfAXTp6RXfAVyH4BUfAcWT5xWfoAAjPuMNP6AAIB7gDR/rV9+gACB+4A1/4AIXQCogDuwFf0YDIAAgFuAOH4AA
        IB7gDR/sF3/gAjdASSAO4AV/IA/AF8AHhd+t/+BXnwEA1+IVXwEACOMVf6AAIMbgDr+AACAe4A0fAYJO4BVf4AI3QEkgDuEFHyAPwBfAB+FkP+AXf+AXH+FX3+AXf+AX
        H+D9n+CRnwEAi+0VHwEAiOAWH4AAIgbjDj+AACAe4A0fAM6XXyAe4A0foAAgHuANH+ACF0AqIA7jZb+gACB24A1/4AIXQCogDuBlnwD+QHWAdyAG4Al/II8gFkAG4AAH
        5GT/ARGP4AB3IIZgh+AEf+AClyAeQA7gBR/kV18BTIrgAHcAACAAIH7gBX8gDyAWQAbgAAfgBL/gV58BvIPgAHcAACAAIIbgBX8gDyAWQAbgAAfgZJ8Bxn3gAHcghmCH
        4AR/4AKXIB5ADuAFH+FXPwGZ9+AAdwAAIAAgfuAFfyAPIBYFADR1R2MELyBbn1sPIArgAABAC+ADA08nQA9AB0AD3lNAB0ADAAQgOUAfQAdAA1t3QA9AB0AD3U9AB0AD
        T1dAH0AHQAMACKA/QAdAA09zQB9AB0ADWQdAD0AHQANZR0APQAdAAwAMoD9AB0ADWFtAH0AHQANY60C3QAdAA1jbQB9AB0ADQP8ENGRNYYAgR0EPQBsAAGGnCIA+zcxM
        PfMENSG3gAAhPmE/AADgUh8ENG9mbDAghOAHi1krQAAgGoADIIuAC10LAoA+ASCrAAEgqwABIB9BV0AAQAsAAeAKHwABIBzAP0FjQADgAz/gAx9gCyAgQAMAMyAHQABA
        C+ADAOAHD0AAQBPgBwPAAABIYAhSc0AAQAfgAwPgBwBAG2AAZ7vgBQAA4KGbfusAP+EDOwAAYABAO+G9O0FLQADh/TvhJTtD/0AA4U87BDE0bmW0JPxDs0UTAAEidyAD
        Aj4BAOABAECDAAEkQUATAAEgHwACIB8CAABMOq9Co0AAQAcEgD+PNm+i0wQAAJqZmSAj4BEAAAFgGkA3QABAB0ADwBfgEQAKQtP32GxIokA2BGsgf09b4AEAJFZgAIAR
        BtA/sHJoke2P1yDTgFsApLDHgACAcwTU5chAACAAAo6PCuAAv0AAYEwgAEAL4AdPQStAAOALTwKgJtDgKE8gZqBngJOAAEGLQADAB4AAAAIgBkAXwANADwQAAMdTACAn
        AABgAEAHQAOAI0AA4RePgEOAMwAAYAfAC6BDABBAX8AA4AEbYAABkHsg72AToH+AACDSYACADeEFj4AT4Q0/AoCI1eAoT2ELAFLgE09gAOAAd0AAYJwgAEAL4Aef4Q/f
        AwEAZ64gLGF7wAADAgDMPWB/IQMDAQA84IFLQABhEyAAQAdAA0ArgADhF4+Af4AzAABgB6ALAy884AAgAEcDIAZgxAIAzMyjC6Aj4TCPAYA/4gvP4TCPAADhR4/gCZ8G
        cnNkYSAAAGS/AAAgAAD+oc/gCwcDZ3JUYUlnJO5gAAA8IAUH8wS1PmRuRXAgCgkA7BIAAGVudXQ0ICADIA9v6SHY4AYADShAbGFjU3VUIGFnbmlu4AYcYAAfKXOWb7tM
        yD9b2o8mh9HJP45Bid1SVss/yiNO7OAozT8f9A98S+pfzj8bormfJzPQPyxvt9zAtNA/X9awk4w50j8fkT2qSli+0z+iCqiH8T/UP8OkowEkQ9U/9guduO/H1j+AXwDY
        oF8A2aBfANugXwDdoF8A3qBfAOCgXwDgoF8A4qBfAOOgXwDkoF8A5aBfAOagXwDooF8A6aBfAOugXwDtoF8A7qBfAPCgXwDwoF8A8qBfAPOgXwD0oF8A9aBfAPagXwD4
        oF8A+aBfAPugXwD9oF8A/qBfAQBAgR8BAECBHwECQIEfAQNAgR8BBECBHwEFQIEfAQZAgR8BCECBfwEJQIF/AQtAgX8BDUCBfwEOQIF/ABCgXwAQoF8AEqBfABOgXwAU
        oF8AFaBfABagXwAYoF8AGaBfABugXwAdoF8AHqBfACCgXwAgoF8AIqBfACOgXwAkoF8AJaBfACagXwAooF8AKaBfACugXwAtoF8ALqBfADCgXwAwoF8AMqBfADOgXwA0
        oF8ANaBfADagXwA4oF8AOaBfADugXwA9oF8APqBfAECgXwBAoF8AQqBfAEOgXwBEoF8ARaBfAEagXwBIoF8ASaBfAEugXwBNoF8ATqBfAFCgXwBQoF8AUqBfAFOgXwBU
        oF8AVaBfAFagXwBYoF8AWaBfAFugXwBdoF8AXqBfAGCgXwBgoF8AYqBfAGOgXwBkoF8AZaBfAGagXwBooF8AaaBfAGugXwBtoF8AbqBfAHCgXwBwoF8BckDkAz8AAeT9
        P+T9P+T9P+QYPwcmIbKBcnrDPoW/5PU/AALkKj8EhfrtQbvo/X/o/X/o/X/o7H8AAyQ/TYNM84AADChAd2VuZHkganVzdFyAEuAGAAh38VHH+MbHP44v7wRoQ8k/pi5v
        H9e/yj+P7vu7XYjMP9VtJvm2uM0/XRwf2vWzzz8CVggJH8tY0D8ZdX2VOtXRPzGU8iGqUdM/BFzrPXrQ0z9Is2euCxnO1D9g0tw6iUrWP4BfANegXwDZoF8A2qBfANyg
        XwDdoF8A36BfAOCgXwDhoF8A46BfAOOgXwDkoF8A5qBfAOegXwDpoF8A6qBfAOygXwDtoF8A76BfAPCgXwDxoF8A86BfAPOgXwD0oF8A9qBfAPegXwD5oF8A+qBfAPyg
        XwD9oF8A/6BfAQBAgR8BAUCBHwEDQIEfAgNASGEfAQRAgR8BBkCBHwEHQIF/AQlAgX8BCkCBfwEMQIF/AQ1AgX8BD0CBfwAQoF8AEaBfABOgXwAToF8AFKBfABagXwAX
        oF8AGaBfABqgXwAcoF8AHaBfAB+gXwAgoF8AIaBfACOgXwAjoF8AJKBfACagXwAnoF8AKaBfACqgXwAsoF8ALaBfAC+gXwAwoF8AMaBfADOgXwAzoF8ANKBfADagXwA3
        oF8AOaBfADqgXwA8oF8APaBfAD+gXwBAoF8AQaBfAEOgXwBDoF8ARKBfAEagXwBHoF8ASaBfAEqgXwBMoF8ATaBfAE+gXwBQoF8AUaBfAFOgXwBToF8AVKBfAFagXwBX
        oF8AWaBfAFqgXwBcoF8AXaBfAF+gXwBgoF8AYaBfAGOgXwBjoF8AZKBfAGagXwBnoF8AaaBfAGqgXwBsoF8AbaBfAG+gXwBwoF8FcUA0NElwM3ww+gHwMIy/UtOAAEAH
        JFJymzEi+wAj2bNAGwcAAKBCAABAwTGGBf9saWF0ACAABJiLEwARIAdAAANrbmFigCeAAFq7YExAAAdncHRjWVRNRUALCw1iZYUBAAAAAAAAAAEAAAAAAQAAAAAAAAA=
        ADxkaXNhYmxlZD4AEAAAAA==
      >
      PRESETNAME <disabled>
      FLOATPOS 0 0 0 0
      FXID {0C82ECC2-F2A8-4F78-A6BB-F2785D24308C}
      WAK 0 0
    >
    <ITEM
      POSITION 0
      SNAPOFFS 0
      LENGTH 156.95057114887956
      LOOP 0
      ALLTAKES 0
      FADEIN 1 0 0 1 0 0 0
      FADEOUT 1 0 0 1 0 0 0
      MUTE 0 0
      SEL 1
      IGUID {652EADAA-5869-4373-8E7E-991FE70DEBEE}
      IID 1778
      NAME Exiled-glued
      VOLPAN 1 0 1 -1
      SOFFS 0 0
      PLAYRATE 1 1 0 -1 0 0.0025
      CHANMODE 0
      GUID {E8E6A2BD-43DE-4B9F-A7BC-FB065F8B5006}
      <SOURCE MIDI
        HASDATA 1 960 QN
        CCINTERP 32
        POOLEDEVTS {9A239100-4476-4B01-B267-D8A25499CD77}
        <x 0 0
          /1kCAAA=
        >
        e 0 b0 07 64
        e 0 b0 0a 40
        e 0 b0 5b 7f
        e 0 b0 5d 7f
        E 0 be 79 00
        e 26880 90 4c 57
        e 478 90 4c 00
        e 2 90 45 57
        e 478 90 45 00
        e 2 90 45 57
        e 478 90 45 00
        e 2 90 4d 57
        e 158 90 4d 00
        e 2 90 43 57
        e 158 90 43 00
        e 2 90 4f 57
        e 158 90 4f 00
        e 2 90 4a 57
        e 478 90 4a 00
        e 2 90 4d 57
        e 478 90 4d 00
        e 2 90 4d 57
        e 158 90 4d 00
        e 2 90 4c 57
        e 158 90 4c 00
        e 2 90 4a 57
        e 158 90 4a 00
        e 2 90 43 57
        e 238 90 43 00
        e 2 90 4f 57
        e 238 90 4f 00
        e 2 90 4c 57
        e 478 90 4c 00
        e 2 90 45 57
        e 478 90 45 00
        e 2 90 45 57
        e 478 90 45 00
        e 2 90 4d 57
        e 158 90 4d 00
        e 2 90 43 57
        e 158 90 43 00
        e 2 90 4f 57
        e 158 90 4f 00
        e 2 90 4a 57
        e 478 90 4a 00
        e 2 90 4d 57
        e 478 90 4d 00
        e 2 90 4d 57
        e 158 90 4d 00
        e 2 90 4c 57
        e 158 90 4c 00
        e 2 90 4a 57
        e 158 90 4a 00
        e 2 90 43 57
        e 238 90 43 00
        e 2 90 4f 57
        e 238 90 4f 00
        e 2 90 51 57
        e 478 90 51 00
        e 2 90 54 57
        e 478 90 54 00
        e 2 90 59 57
        e 478 90 59 00
        e 2 90 53 57
        e 238 90 53 00
        e 2 90 54 57
        e 238 90 54 00
        e 2 90 53 57
        e 238 90 53 00
        e 2 90 4f 57
        e 238 90 4f 00
        e 2 90 4f 57
        e 478 90 4f 00
        e 2 90 58 57
        e 478 90 58 00
        e 2 90 56 57
        e 478 90 56 00
        e 2 90 51 57
        e 478 90 51 00
        e 2 90 54 57
        e 478 90 54 00
        e 2 90 59 57
        e 478 90 59 00
        e 2 90 53 57
        e 238 90 53 00
        e 2 90 54 57
        e 238 90 54 00
        e 2 90 53 57
        e 238 90 53 00
        e 2 90 4f 57
        e 238 90 4f 00
        e 2 90 4f 57
        e 478 90 4f 00
        e 2 90 58 57
        e 478 90 58 00
        e 2 90 56 57
        e 478 90 56 00
        e 49922 90 4c 57
        e 478 90 4c 00
        e 2 90 45 57
        e 478 90 45 00
        e 2 90 45 57
        e 478 90 45 00
        e 2 90 4d 57
        e 158 90 4d 00
        e 2 90 43 57
        e 158 90 43 00
        e 2 90 4f 57
        e 158 90 4f 00
        e 2 90 4a 57
        e 478 90 4a 00
        e 2 90 4d 57
        e 478 90 4d 00
        e 2 90 4d 57
        e 158 90 4d 00
        e 2 90 4c 57
        e 158 90 4c 00
        e 2 90 4a 57
        e 158 90 4a 00
        e 2 90 43 57
        e 238 90 43 00
        e 2 90 4f 57
        e 238 90 4f 00
        e 2 90 4c 57
        e 478 90 4c 00
        e 2 90 45 57
        e 478 90 45 00
        e 2 90 45 57
        e 478 90 45 00
        e 2 90 4d 57
        e 158 90 4d 00
        e 2 90 43 57
        e 158 90 43 00
        e 2 90 4f 57
        e 158 90 4f 00
        e 2 90 4a 57
        e 478 90 4a 00
        e 2 90 4d 57
        e 478 90 4d 00
        e 2 90 4d 57
        e 158 90 4d 00
        e 2 90 4c 57
        e 158 90 4c 00
        e 2 90 4a 57
        e 158 90 4a 00
        e 2 90 43 57
        e 238 90 43 00
        e 2 90 4f 57
        e 238 90 4f 00
        e 2 90 51 57
        e 478 90 51 00
        e 2 90 54 57
        e 478 90 54 00
        e 2 90 59 57
        e 478 90 59 00
        e 2 90 53 57
        e 238 90 53 00
        e 2 90 54 57
        e 238 90 54 00
        e 2 90 53 57
        e 238 90 53 00
        e 2 90 4f 57
        e 238 90 4f 00
        e 2 90 4f 57
        e 478 90 4f 00
        e 2 90 58 57
        e 478 90 58 00
        e 2 90 56 57
        e 478 90 56 00
        e 2 90 51 57
        e 478 90 51 00
        e 2 90 54 57
        e 478 90 54 00
        e 2 90 59 57
        e 478 90 59 00
        e 2 90 53 57
        e 238 90 53 00
        e 2 90 54 57
        e 238 90 54 00
        e 2 90 53 57
        e 238 90 53 00
        e 2 90 4f 57
        e 238 90 4f 00
        e 2 90 4f 57
        e 478 90 4f 00
        e 2 90 58 57
        e 478 90 58 00
        e 2 90 56 57
        e 478 90 56 00
        E 53762 b0 7b 00
        CCINTERP 32
        CHASE_CC_TAKEOFFS 1
        GUID {604CF8E1-877C-4ECD-8EA1-2182E88595EB}
        IGNTEMPO 0 120 4 4
        SRCCOLOR 27040
        VELLANE 132 100 0
        VELLANE -1 100 0
        CFGEDITVIEW 0 11.653295 48 12 0 -1 0 0 0 0.5
        KEYSNAP 0
        TRACKSEL 187
        EVTFILTER 0 -1 -1 -1 -1 0 0 0 0 -1 -1 -1 -1 0 -1 0 -1 -1
        CFGEDIT 1 1 0 1 1 0 1 2 1 1 1 0.25 814 690 1532 1424 0 0 1 2 0 0 0 1 0 0.2 1 0 1 64
      >
    >
    <ITEM
      POSITION 41.25
      SNAPOFFS 0
      LENGTH 97.48309414053378
      LOOP 0
      ALLTAKES 0
      FADEIN 1 0 0 1 0 0 0
      FADEOUT 1 0 0 1 0 0 0
      MUTE 0 0
      SEL 0
      IGUID {099EB628-97A0-4DD5-A351-B27DE07EDF76}
      IID 2222
      NAME Exiled-glued
      VOLPAN 1 0 1 -1
      SOFFS 0 0
      PLAYRATE 1 1 0 -1 0 0.0025
      CHANMODE 0
      GUID {BB79E86D-9F19-41E0-9CA8-0D705F0A1765}
      <SOURCE MIDI
        HASDATA 1 960 QN
        CCINTERP 32
        POOLEDEVTS {B9297F60-8922-44E6-A2EB-2FEE3DB5DA9C}
        E 0 90 43 50
        E 66 90 40 50
        E 68 90 39 50
        E 70 90 34 50
        E 68 90 2d 50
        E 68 90 28 50
        E 616 90 40 00
        E 0 90 39 00
        E 0 90 34 00
        E 0 90 2d 00
        E 0 90 28 00
        E 2 90 43 00
        E 2 90 43 50
        E 66 90 40 50
        E 68 90 39 50
        E 70 90 34 50
        E 68 90 2d 50
        E 68 90 28 50
        E 616 90 40 00
        E 0 90 39 00
        E 0 90 34 00
        E 0 90 2d 00
        E 0 90 28 00
        E 2 90 43 00
        E 2 90 43 50
        E 66 90 40 50
        E 68 90 39 50
        E 70 90 34 50
        E 68 90 2d 50
        E 68 90 28 50
        E 616 90 40 00
        E 0 90 39 00
        E 0 90 34 00
        E 0 90 2d 00
        E 0 90 28 00
        E 2 90 43 00
        E 2 90 43 50
        E 66 90 40 50
        E 68 90 39 50
        E 70 90 34 50
        E 68 90 2d 50
        E 68 90 28 50
        E 616 90 40 00
        E 0 90 39 00
        E 0 90 34 00
        E 0 90 2d 00
        E 0 90 28 00
        E 2 90 43 00
        E 2 90 43 50
        E 66 90 40 50
        E 68 90 39 50
        E 70 90 34 50
        E 68 90 2d 50
        E 68 90 28 50
        E 616 90 40 00
        E 0 90 39 00
        E 0 90 34 00
        E 0 90 2d 00
        E 0 90 28 00
        E 2 90 43 00
        E 2 90 43 50
        E 66 90 40 50
        E 68 90 39 50
        E 70 90 34 50
        E 68 90 2d 50
        E 68 90 28 50
        E 616 90 40 00
        E 0 90 39 00
        E 0 90 34 00
        E 0 90 2d 00
        E 0 90 28 00
        E 2 90 43 00
        E 2 90 43 50
        E 66 90 40 50
        E 68 90 39 50
        E 70 90 34 50
        E 68 90 2d 50
        E 68 90 28 50
        E 616 90 40 00
        E 0 90 39 00
        E 0 90 34 00
        E 0 90 2d 00
        E 0 90 28 00
        E 2 90 43 00
        E 2 90 43 50
        E 66 90 40 50
        E 68 90 39 50
        E 70 90 34 50
        E 68 90 2d 50
        E 68 90 28 50
        E 616 90 40 00
        E 0 90 39 00
        E 0 90 34 00
        E 0 90 2d 00
        E 0 90 28 00
        E 2 90 43 00
        E 2 90 43 50
        E 66 90 40 50
        E 68 90 39 50
        E 70 90 34 50
        E 68 90 2d 50
        E 68 90 28 50
        E 616 90 40 00
        E 0 90 39 00
        E 0 90 34 00
        E 0 90 2d 00
        E 0 90 28 00
        E 2 90 43 00
        E 2 90 43 50
        E 66 90 40 50
        E 68 90 39 50
        E 70 90 34 50
        E 68 90 2d 50
        E 68 90 28 50
        E 616 90 40 00
        E 0 90 39 00
        E 0 90 34 00
        E 0 90 2d 00
        E 0 90 28 00
        E 2 90 43 00
        E 2 90 43 50
        E 66 90 40 50
        E 68 90 39 50
        E 70 90 34 50
        E 68 90 2d 50
        E 68 90 28 50
        E 616 90 40 00
        E 0 90 39 00
        E 0 90 34 00
        E 0 90 2d 00
        E 0 90 28 00
        E 2 90 43 00
        E 2 90 43 50
        E 66 90 40 50
        E 68 90 39 50
        E 70 90 34 50
        E 68 90 2d 50
        E 68 90 28 50
        E 616 90 40 00
        E 0 90 39 00
        E 0 90 34 00
        E 0 90 2d 00
        E 0 90 28 00
        E 2 90 43 00
        E 2 90 28 50
        E 66 90 2d 50
        E 68 90 34 50
        E 70 90 3b 50
        E 68 90 40 50
        E 68 90 43 50
        E 616 90 2d 00
        E 0 90 34 00
        E 0 90 3b 00
        E 0 90 40 00
        E 0 90 43 00
        E 2 90 28 00
        E 2 90 28 50
        E 66 90 2d 50
        E 68 90 34 50
        E 70 90 3b 50
        E 68 90 40 50
        E 68 90 43 50
        E 616 90 2d 00
        E 0 90 34 00
        E 0 90 3b 00
        E 0 90 40 00
        E 0 90 43 00
        E 2 90 28 00
        E 2 90 28 50
        E 66 90 2d 50
        E 68 90 34 50
        E 70 90 3b 50
        E 68 90 40 50
        E 68 90 43 50
        E 616 90 2d 00
        E 0 90 34 00
        E 0 90 3b 00
        E 0 90 40 00
        E 0 90 43 00
        E 2 90 28 00
        E 2 90 28 50
        E 66 90 2d 50
        E 68 90 34 50
        E 70 90 3b 50
        E 68 90 40 50
        E 68 90 43 50
        E 616 90 2d 00
        E 0 90 34 00
        E 0 90 3b 00
        E 0 90 40 00
        E 0 90 43 00
        E 2 90 28 00
        E 2 90 28 50
        E 66 90 2d 50
        E 68 90 34 50
        E 70 90 3b 50
        E 68 90 40 50
        E 68 90 43 50
        E 616 90 2d 00
        E 0 90 34 00
        E 0 90 3b 00
        E 0 90 40 00
        E 0 90 43 00
        E 2 90 28 00
        E 2 90 28 50
        E 0 90 1c 60
        E 66 90 2d 50
        E 68 90 34 50
        E 70 90 3b 50
        E 68 90 40 50
        E 68 90 43 50
        E 36 80 1c 00
        E 580 90 2d 00
        E 0 90 34 00
        E 0 90 3b 00
        E 0 90 40 00
        E 0 90 43 00
        E 2 90 28 00
        E 2 90 28 50
        E 66 90 2d 50
        E 68 90 34 50
        E 70 90 3b 50
        E 68 90 40 50
        E 68 90 43 50
        E 616 90 2d 00
        E 0 90 34 00
        E 0 90 3b 00
        E 0 90 40 00
        E 0 90 43 00
        E 2 90 28 00
        E 2 90 28 50
        E 66 90 2d 50
        E 68 90 34 50
        E 70 90 3b 50
        E 68 90 40 50
        E 68 90 43 50
        E 616 90 2d 00
        E 0 90 34 00
        E 0 90 3b 00
        E 0 90 40 00
        E 0 90 43 00
        E 2 90 28 00
        E 2 90 28 50
        E 66 90 2d 50
        E 68 90 34 50
        E 70 90 3b 50
        E 68 90 40 50
        E 68 90 43 50
        E 616 90 2d 00
        E 0 90 34 00
        E 0 90 3b 00
        E 0 90 40 00
        E 0 90 43 00
        E 2 90 28 00
        E 2 90 28 50
        E 66 90 2d 50
        E 68 90 34 50
        E 70 90 3b 50
        E 68 90 40 50
        E 68 90 43 50
        E 140 90 24 60
        E 396 80 24 00
        E 80 90 2d 00
        E 0 90 34 00
        E 0 90 3b 00
        E 0 90 40 00
        E 0 90 43 00
        E 2 90 28 00
        E 2 90 28 50
        E 66 90 2d 50
        E 68 90 34 50
        E 70 90 3b 50
        E 68 90 40 50
        E 68 90 43 50
        E 616 90 2d 00
        E 0 90 34 00
        E 0 90 3b 00
        E 0 90 40 00
        E 0 90 43 00
        E 2 90 28 00
        E 2 90 28 50
        E 66 90 2d 50
        E 68 90 34 50
        E 70 90 3b 50
        E 68 90 40 50
        E 68 90 43 50
        E 616 90 2d 00
        E 0 90 34 00
        E 0 90 3b 00
        E 0 90 40 00
        E 0 90 43 00
        E 2 90 28 00
        E 2 90 28 50
        E 66 90 2d 50
        E 68 90 34 50
        E 70 90 3b 50
        E 68 90 40 50
        E 68 90 43 50
        E 616 90 2d 00
        E 0 90 34 00
        E 0 90 3b 00
        E 0 90 40 00
        E 0 90 43 00
        E 2 90 28 00
        E 2 90 28 50
        E 66 90 2d 50
        E 68 90 34 50
        E 70 90 3b 50
        E 68 90 40 50
        E 68 90 43 50
        E 616 90 2d 00
        E 0 90 34 00
        E 0 90 3b 00
        E 0 90 40 00
        E 0 90 43 00
        E 2 90 28 00
        E 2 90 28 50
        E 66 90 2d 50
        E 68 90 34 50
        E 70 90 3b 50
        E 68 90 40 50
        E 68 90 43 50
        E 616 90 2d 00
        E 0 90 34 00
        E 0 90 3b 00
        E 0 90 40 00
        E 0 90 43 00
        E 2 90 28 00
        E 2 90 28 50
        E 66 90 2d 50
        E 68 90 34 50
        E 70 90 3b 50
        E 68 90 40 50
        E 68 90 43 50
        E 616 90 2d 00
        E 0 90 34 00
        E 0 90 3b 00
        E 0 90 40 00
        E 0 90 43 00
        E 2 90 28 00
        E 2 90 28 50
        E 66 90 2d 50
        E 68 90 34 50
        E 70 90 3b 50
        E 68 90 40 50
        E 68 90 43 50
        E 616 90 2d 00
        E 0 90 34 00
        E 0 90 3b 00
        E 0 90 40 00
        E 0 90 43 00
        E 2 90 28 00
        E 2 90 28 50
        E 66 90 2d 50
        E 68 90 34 50
        E 70 90 3b 50
        E 68 90 40 50
        E 68 90 43 50
        E 616 90 2d 00
        E 0 90 34 00
        E 0 90 3b 00
        E 0 90 40 00
        E 0 90 43 00
        E 2 90 28 00
        E 2 90 28 50
        E 66 90 2d 50
        E 68 90 34 50
        E 70 90 3b 50
        E 68 90 40 50
        E 68 90 43 50
        E 616 90 2d 00
        E 0 90 34 00
        E 0 90 3b 00
        E 0 90 40 00
        E 0 90 43 00
        E 2 90 28 00
        E 2 90 28 50
        E 66 90 2d 50
        E 68 90 34 50
        E 70 90 3b 50
        E 68 90 40 50
        E 68 90 43 50
        E 616 90 2d 00
        E 0 90 34 00
        E 0 90 3b 00
        E 0 90 40 00
        E 0 90 43 00
        E 2 90 28 00
        E 2 90 28 50
        E 66 90 2d 50
        E 68 90 34 50
        E 70 90 3b 50
        E 68 90 40 50
        E 68 90 43 50
        E 616 90 2d 00
        E 0 90 34 00
        E 0 90 3b 00
        E 0 90 40 00
        E 0 90 43 00
        E 2 90 28 00
        E 2 90 28 50
        E 66 90 2d 50
        E 68 90 34 50
        E 70 90 3b 50
        E 68 90 40 50
        E 68 90 43 50
        E 616 90 2d 00
        E 0 90 34 00
        E 0 90 3b 00
        E 0 90 40 00
        E 0 90 43 00
        E 2 90 28 00
        E 2 90 28 50
        E 66 90 2d 50
        E 68 90 34 50
        E 70 90 3b 50
        E 68 90 40 50
        E 68 90 43 50
        E 616 90 2d 00
        E 0 90 34 00
        E 0 90 3b 00
        E 0 90 40 00
        E 0 90 43 00
        E 2 90 28 00
        E 2 90 28 50
        E 66 90 2d 50
        E 68 90 34 50
        E 70 90 3b 50
        E 68 90 40 50
        E 68 90 43 50
        E 616 90 2d 00
        E 0 90 34 00
        E 0 90 3b 00
        E 0 90 40 00
        E 0 90 43 00
        E 2 90 28 00
        E 2 90 28 50
        E 66 90 2d 50
        E 68 90 34 50
        E 70 90 3b 50
        E 68 90 40 50
        E 68 90 43 50
        E 616 90 2d 00
        E 0 90 34 00
        E 0 90 3b 00
        E 0 90 40 00
        E 0 90 43 00
        E 2 90 28 00
        E 2 90 28 50
        E 66 90 2d 50
        E 68 90 34 50
        E 70 90 3b 50
        E 68 90 40 50
        E 68 90 43 50
        E 616 90 2d 00
        E 0 90 34 00
        E 0 90 3b 00
        E 0 90 40 00
        E 0 90 43 00
        E 2 90 28 00
        E 2 90 28 50
        E 66 90 2d 50
        E 68 90 34 50
        E 70 90 3b 50
        E 68 90 40 50
        E 68 90 43 50
        E 616 90 2d 00
        E 0 90 34 00
        E 0 90 3b 00
        E 0 90 40 00
        E 0 90 43 00
        E 2 90 28 00
        E 2 90 28 50
        E 66 90 2d 50
        E 68 90 34 50
        E 70 90 3b 50
        E 68 90 40 50
        E 68 90 43 50
        E 616 90 2d 00
        E 0 90 34 00
        E 0 90 3b 00
        E 0 90 40 00
        E 0 90 43 00
        E 2 90 28 00
        E 2 90 28 50
        E 66 90 2d 50
        E 68 90 34 50
        E 70 90 3b 50
        E 68 90 40 50
        E 68 90 43 50
        E 616 90 2d 00
        E 0 90 34 00
        E 0 90 3b 00
        E 0 90 40 00
        E 0 90 43 00
        E 2 90 28 00
        E 2 90 28 50
        E 66 90 2d 50
        E 68 90 34 50
        E 70 90 3b 50
        E 68 90 40 50
        E 68 90 43 50
        E 616 90 2d 00
        E 0 90 34 00
        E 0 90 3b 00
        E 0 90 40 00
        E 0 90 43 00
        E 2 90 28 00
        E 2 90 28 50
        E 66 90 2d 50
        E 68 90 34 50
        E 70 90 3b 50
        E 68 90 40 50
        E 68 90 43 50
        E 616 90 2d 00
        E 0 90 34 00
        E 0 90 3b 00
        E 0 90 40 00
        E 0 90 43 00
        E 2 90 28 00
        E 2 90 28 50
        E 66 90 2d 50
        E 68 90 34 50
        E 70 90 3b 50
        E 68 90 40 50
        E 68 90 43 50
        E 616 90 2d 00
        E 0 90 34 00
        E 0 90 3b 00
        E 0 90 40 00
        E 0 90 43 00
        E 2 90 28 00
        E 2 90 28 50
        E 66 90 2d 50
        E 68 90 34 50
        E 70 90 3b 50
        E 68 90 40 50
        E 68 90 43 50
        E 616 90 2d 00
        E 0 90 34 00
        E 0 90 3b 00
        E 0 90 40 00
        E 0 90 43 00
        E 2 90 28 00
        E 2 90 28 50
        E 66 90 2d 50
        E 68 90 34 50
        E 70 90 3b 50
        E 68 90 40 50
        E 68 90 43 50
        E 616 90 2d 00
        E 0 90 34 00
        E 0 90 3b 00
        E 0 90 40 00
        E 0 90 43 00
        E 2 90 28 00
        E 2 90 28 50
        E 66 90 2d 50
        E 68 90 34 50
        E 70 90 3b 50
        E 68 90 40 50
        E 68 90 43 50
        E 616 90 2d 00
        E 0 90 34 00
        E 0 90 3b 00
        E 0 90 40 00
        E 0 90 43 00
        E 2 90 28 00
        E 2 90 28 50
        E 66 90 2d 50
        E 68 90 34 50
        E 70 90 3b 50
        E 68 90 40 50
        E 68 90 43 50
        E 616 90 2d 00
        E 0 90 34 00
        E 0 90 3b 00
        E 0 90 40 00
        E 0 90 43 00
        E 2 90 28 00
        E 2 90 28 50
        E 66 90 2d 50
        E 68 90 34 50
        E 70 90 3b 50
        E 68 90 40 50
        E 68 90 43 50
        E 616 90 2d 00
        E 0 90 34 00
        E 0 90 3b 00
        E 0 90 40 00
        E 0 90 43 00
        E 2 90 28 00
        E 2 90 28 50
        E 66 90 2d 50
        E 68 90 34 50
        E 70 90 3b 50
        E 68 90 40 50
        E 68 90 43 50
        E 616 90 2d 00
        E 0 90 34 00
        E 0 90 3b 00
        E 0 90 40 00
        E 0 90 43 00
        E 2 90 28 00
        E 2 90 28 50
        E 66 90 2d 50
        E 68 90 34 50
        E 70 90 3b 50
        E 68 90 40 50
        E 68 90 43 50
        E 616 90 2d 00
        E 0 90 34 00
        E 0 90 3b 00
        E 0 90 40 00
        E 0 90 43 00
        E 2 90 28 00
        E 2 90 28 50
        E 66 90 2d 50
        E 68 90 34 50
        E 70 90 3b 50
        E 68 90 40 50
        E 68 90 43 50
        E 616 90 2d 00
        E 0 90 34 00
        E 0 90 3b 00
        E 0 90 40 00
        E 0 90 43 00
        E 2 90 28 00
        E 2 90 2a 50
        E 66 90 2f 50
        E 68 90 34 50
        E 70 90 3b 50
        E 68 90 40 50
        E 68 90 43 50
        E 616 90 2f 00
        E 0 90 34 00
        E 0 90 3b 00
        E 0 90 40 00
        E 0 90 43 00
        E 2 90 2a 00
        E 2 90 28 50
        E 66 90 2d 50
        E 68 90 34 50
        E 70 90 3b 50
        E 68 90 40 50
        E 68 90 43 50
        E 616 90 2d 00
        E 0 90 34 00
        E 0 90 3b 00
        E 0 90 40 00
        E 0 90 43 00
        E 2 90 28 00
        E 2 90 2b 50
        E 66 90 30 50
        E 68 90 34 50
        E 70 90 3b 50
        E 68 90 40 50
        E 68 90 43 50
        E 616 90 30 00
        E 0 90 34 00
        E 0 90 3b 00
        E 0 90 40 00
        E 0 90 43 00
        E 2 90 2b 00
        E 2 90 2b 50
        E 66 90 30 50
        E 68 90 34 50
        E 70 90 3b 50
        E 68 90 40 50
        E 68 90 43 50
        E 616 90 30 00
        E 0 90 34 00
        E 0 90 3b 00
        E 0 90 40 00
        E 0 90 43 00
        E 2 90 2b 00
        E 2 90 2b 50
        E 66 90 30 50
        E 68 90 35 50
        E 70 90 3c 50
        E 68 90 40 50
        E 68 90 43 50
        E 616 90 30 00
        E 0 90 35 00
        E 0 90 3c 00
        E 0 90 40 00
        E 0 90 43 00
        E 2 90 2b 00
        E 2 90 2b 50
        E 66 90 30 50
        E 68 90 35 50
        E 70 90 3c 50
        E 68 90 40 50
        E 68 90 43 50
        E 616 90 30 00
        E 0 90 35 00
        E 0 90 3c 00
        E 0 90 40 00
        E 0 90 43 00
        E 2 90 2b 00
        E 2 90 2b 50
        E 66 90 30 50
        E 68 90 35 50
        E 70 90 3c 50
        E 68 90 40 50
        E 68 90 43 50
        E 616 90 30 00
        E 0 90 35 00
        E 0 90 3c 00
        E 0 90 40 00
        E 0 90 43 00
        E 2 90 2b 00
        E 2 90 2b 50
        E 66 90 30 50
        E 68 90 35 50
        E 70 90 3c 50
        E 68 90 40 50
        E 68 90 43 50
        E 616 90 30 00
        E 0 90 35 00
        E 0 90 3c 00
        E 0 90 40 00
        E 0 90 43 00
        E 2 90 2b 00
        E 2 90 2b 50
        E 66 90 30 50
        E 68 90 35 50
        E 70 90 3c 50
        E 68 90 40 50
        E 68 90 43 50
        E 616 90 30 00
        E 0 90 35 00
        E 0 90 3c 00
        E 0 90 40 00
        E 0 90 43 00
        E 2 90 2b 00
        E 2 90 2b 50
        E 66 90 30 50
        E 68 90 35 50
        E 70 90 3c 50
        E 68 90 40 50
        E 68 90 43 50
        E 616 90 30 00
        E 0 90 35 00
        E 0 90 3c 00
        E 0 90 40 00
        E 0 90 43 00
        E 2 90 2b 00
        E 2 90 2b 50
        E 66 90 30 50
        E 68 90 35 50
        E 70 90 3c 50
        E 68 90 40 50
        E 68 90 43 50
        E 616 90 30 00
        E 0 90 35 00
        E 0 90 3c 00
        E 0 90 40 00
        E 0 90 43 00
        E 2 90 2b 00
        E 2 90 2b 50
        E 66 90 30 50
        E 68 90 35 50
        E 70 90 3c 50
        E 68 90 40 50
        E 68 90 43 50
        E 616 90 30 00
        E 0 90 35 00
        E 0 90 3c 00
        E 0 90 40 00
        E 0 90 43 00
        E 2 90 2b 00
        E 2 90 2b 50
        E 66 90 30 50
        E 68 90 35 50
        E 70 90 3c 50
        E 68 90 40 50
        E 68 90 43 50
        E 616 90 30 00
        E 0 90 35 00
        E 0 90 3c 00
        E 0 90 40 00
        E 0 90 43 00
        E 2 90 2b 00
        E 2 90 2b 50
        E 66 90 30 50
        E 68 90 35 50
        E 70 90 3c 50
        E 68 90 40 50
        E 68 90 43 50
        E 616 90 30 00
        E 0 90 35 00
        E 0 90 3c 00
        E 0 90 40 00
        E 0 90 43 00
        E 2 90 2b 00
        E 2 90 2b 50
        E 66 90 30 50
        E 68 90 35 50
        E 70 90 3c 50
        E 68 90 40 50
        E 68 90 43 50
        E 616 90 30 00
        E 0 90 35 00
        E 0 90 3c 00
        E 0 90 40 00
        E 0 90 43 00
        E 2 90 2b 00
        E 2 90 2b 50
        E 66 90 30 50
        E 68 90 35 50
        E 70 90 3c 50
        E 68 90 40 50
        E 68 90 43 50
        E 616 90 30 00
        E 0 90 35 00
        E 0 90 3c 00
        E 0 90 40 00
        E 0 90 43 00
        E 2 90 2b 00
        E 2 90 43 50
        E 66 90 40 50
        E 68 90 39 50
        E 70 90 34 50
        E 68 90 2d 50
        E 68 90 28 50
        E 616 90 40 00
        E 0 90 39 00
        E 0 90 34 00
        E 0 90 2d 00
        E 0 90 28 00
        E 2 90 43 00
        E 2 90 43 50
        E 66 90 40 50
        E 68 90 39 50
        E 70 90 34 50
        E 68 90 2d 50
        E 68 90 28 50
        E 616 90 40 00
        E 0 90 39 00
        E 0 90 34 00
        E 0 90 2d 00
        E 0 90 28 00
        E 2 90 43 00
        E 2 90 43 50
        E 66 90 40 50
        E 68 90 39 50
        E 70 90 34 50
        E 68 90 2d 50
        E 68 90 28 50
        E 616 90 40 00
        E 0 90 39 00
        E 0 90 34 00
        E 0 90 2d 00
        E 0 90 28 00
        E 2 90 43 00
        E 2 90 43 50
        E 66 90 40 50
        E 68 90 39 50
        E 70 90 34 50
        E 68 90 2d 50
        E 68 90 28 50
        E 616 90 40 00
        E 0 90 39 00
        E 0 90 34 00
        E 0 90 2d 00
        E 0 90 28 00
        E 2 90 43 00
        E 2 90 43 50
        E 66 90 40 50
        E 68 90 39 50
        E 70 90 34 50
        E 68 90 2d 50
        E 68 90 28 50
        E 616 90 40 00
        E 0 90 39 00
        E 0 90 34 00
        E 0 90 2d 00
        E 0 90 28 00
        E 2 90 43 00
        E 2 90 43 50
        E 66 90 40 50
        E 68 90 39 50
        E 70 90 34 50
        E 68 90 2d 50
        E 68 90 28 50
        E 616 90 40 00
        E 0 90 39 00
        E 0 90 34 00
        E 0 90 2d 00
        E 0 90 28 00
        E 2 90 43 00
        E 2 90 43 50
        E 66 90 40 50
        E 68 90 39 50
        E 70 90 34 50
        E 68 90 2d 50
        E 68 90 28 50
        E 616 90 40 00
        E 0 90 39 00
        E 0 90 34 00
        E 0 90 2d 00
        E 0 90 28 00
        E 2 90 43 00
        E 2 90 43 50
        E 66 90 40 50
        E 68 90 39 50
        E 70 90 34 50
        E 68 90 2d 50
        E 68 90 28 50
        E 616 90 40 00
        E 0 90 39 00
        E 0 90 34 00
        E 0 90 2d 00
        E 0 90 28 00
        E 2 90 43 00
        E 2 90 43 50
        E 66 90 40 50
        E 68 90 39 50
        E 70 90 34 50
        E 68 90 2d 50
        E 68 90 28 50
        E 616 90 40 00
        E 0 90 39 00
        E 0 90 34 00
        E 0 90 2d 00
        E 0 90 28 00
        E 2 90 43 00
        E 2 90 43 50
        E 66 90 40 50
        E 68 90 39 50
        E 70 90 34 50
        E 68 90 2d 50
        E 68 90 28 50
        E 616 90 40 00
        E 0 90 39 00
        E 0 90 34 00
        E 0 90 2d 00
        E 0 90 28 00
        E 2 90 43 00
        E 2 90 43 50
        E 66 90 40 50
        E 68 90 39 50
        E 70 90 34 50
        E 68 90 2d 50
        E 68 90 28 50
        E 616 90 40 00
        E 0 90 39 00
        E 0 90 34 00
        E 0 90 2d 00
        E 0 90 28 00
        E 2 90 43 00
        E 2 90 43 50
        E 66 90 40 50
        E 68 90 39 50
        E 70 90 34 50
        E 68 90 2d 50
        E 68 90 28 50
        E 616 90 40 00
        E 0 90 39 00
        E 0 90 34 00
        E 0 90 2d 00
        E 0 90 28 00
        E 2 90 43 00
        E 2 90 43 50
        E 66 90 40 50
        E 68 90 39 50
        E 70 90 34 50
        E 68 90 2d 50
        E 68 90 28 50
        E 616 90 40 00
        E 0 90 39 00
        E 0 90 34 00
        E 0 90 2d 00
        E 0 90 28 00
        E 2 90 43 00
        E 2 90 43 50
        E 66 90 40 50
        E 68 90 39 50
        E 70 90 34 50
        E 68 90 2d 50
        E 68 90 28 50
        E 616 90 40 00
        E 0 90 39 00
        E 0 90 34 00
        E 0 90 2d 00
        E 0 90 28 00
        E 2 90 43 00
        E 2 90 43 50
        E 66 90 40 50
        E 68 90 39 50
        E 70 90 34 50
        E 68 90 2d 50
        E 68 90 28 50
        E 616 90 40 00
        E 0 90 39 00
        E 0 90 34 00
        E 0 90 2d 00
        E 0 90 28 00
        E 2 90 43 00
        E 2 90 43 50
        E 66 90 40 50
        E 68 90 39 50
        E 70 90 34 50
        E 68 90 2d 50
        E 68 90 28 50
        E 616 90 40 00
        E 0 90 39 00
        E 0 90 34 00
        E 0 90 2d 00
        E 0 90 28 00
        E 2 90 43 00
        E 2 90 2a 50
        E 66 90 2f 50
        E 68 90 34 50
        E 70 90 3b 50
        E 68 90 40 50
        E 68 90 43 55
        E 616 90 2f 00
        E 0 90 34 00
        E 0 90 3b 00
        E 0 90 40 00
        E 0 90 43 00
        E 2 90 2a 00
        E 2 90 28 50
        E 66 90 2d 50
        E 68 90 34 50
        E 70 90 3b 50
        E 68 90 40 50
        E 68 90 43 50
        E 616 90 2d 00
        E 0 90 34 00
        E 0 90 3b 00
        E 0 90 40 00
        E 0 90 43 00
        E 2 90 28 00
        E 2 90 2b 50
        E 66 90 30 50
        E 68 90 34 50
        E 70 90 3b 50
        E 68 90 40 50
        E 68 90 43 50
        E 616 90 30 00
        E 0 90 34 00
        E 0 90 3b 00
        E 0 90 40 00
        E 0 90 43 00
        E 2 90 2b 00
        E 2 90 2b 50
        E 66 90 30 50
        E 68 90 34 50
        E 70 90 3b 50
        E 68 90 40 50
        E 68 90 43 50
        E 616 90 30 00
        E 0 90 34 00
        E 0 90 3b 00
        E 0 90 40 00
        E 0 90 43 00
        E 2 90 2b 00
        E 2 90 2b 50
        E 66 90 30 50
        E 68 90 35 50
        E 70 90 3c 50
        E 68 90 40 50
        E 68 90 43 50
        E 616 90 30 00
        E 0 90 35 00
        E 0 90 3c 00
        E 0 90 40 00
        E 0 90 43 00
        E 2 90 2b 00
        E 2 90 2b 50
        E 66 90 30 50
        E 68 90 35 50
        E 70 90 3c 50
        E 68 90 40 50
        E 68 90 43 50
        E 616 90 30 00
        E 0 90 35 00
        E 0 90 3c 00
        E 0 90 40 00
        E 0 90 43 00
        E 2 90 2b 00
        E 2 90 2b 50
        E 66 90 30 50
        E 68 90 35 50
        E 70 90 3c 50
        E 68 90 40 50
        E 68 90 43 50
        E 616 90 30 00
        E 0 90 35 00
        E 0 90 3c 00
        E 0 90 40 00
        E 0 90 43 00
        E 2 90 2b 00
        E 2 90 2b 50
        E 66 90 30 50
        E 68 90 35 50
        E 70 90 3c 50
        E 68 90 40 50
        E 68 90 43 50
        E 616 90 30 00
        E 0 90 35 00
        E 0 90 3c 00
        E 0 90 40 00
        E 0 90 43 00
        E 2 90 2b 00
        E 2 90 43 50
        E 66 90 40 50
        E 68 90 39 50
        E 70 90 34 50
        E 68 90 2d 50
        E 68 90 28 50
        E 616 90 40 00
        E 0 90 39 00
        E 0 90 34 00
        E 0 90 2d 00
        E 0 90 28 00
        E 2 90 43 00
        E 2 90 43 50
        E 66 90 40 50
        E 68 90 39 50
        E 70 90 34 50
        E 68 90 2d 50
        E 68 90 28 50
        E 616 90 40 00
        E 0 90 39 00
        E 0 90 34 00
        E 0 90 2d 00
        E 0 90 28 00
        E 2 90 43 00
        E 2 90 43 50
        E 66 90 40 50
        E 68 90 39 50
        E 70 90 34 50
        E 68 90 2d 50
        E 68 90 28 50
        E 616 90 40 00
        E 0 90 39 00
        E 0 90 34 00
        E 0 90 2d 00
        E 0 90 28 00
        E 2 90 43 00
        E 2 90 43 50
        E 66 90 40 50
        E 68 90 39 50
        E 70 90 34 50
        E 68 90 2d 50
        E 68 90 28 50
        E 616 90 40 00
        E 0 90 39 00
        E 0 90 34 00
        E 0 90 2d 00
        E 0 90 28 00
        E 2 90 43 00
        E 2 90 2a 50
        E 66 90 2f 50
        E 68 90 34 50
        E 70 90 3b 50
        E 68 90 40 50
        E 68 90 43 55
        E 616 90 2f 00
        E 0 90 34 00
        E 0 90 3b 00
        E 0 90 40 00
        E 0 90 43 00
        E 2 90 2a 00
        E 2 90 28 50
        E 66 90 2d 50
        E 68 90 34 50
        E 70 90 3b 50
        E 68 90 40 50
        E 68 90 43 50
        E 616 90 2d 00
        E 0 90 34 00
        E 0 90 3b 00
        E 0 90 40 00
        E 0 90 43 00
        E 2 90 28 00
        E 2 90 2b 50
        E 66 90 30 50
        E 68 90 34 50
        E 70 90 3b 50
        E 68 90 40 50
        E 68 90 43 50
        E 616 90 30 00
        E 0 90 34 00
        E 0 90 3b 00
        E 0 90 40 00
        E 0 90 43 00
        E 2 90 2b 00
        E 2 90 2b 50
        E 66 90 30 50
        E 68 90 34 50
        E 70 90 3b 50
        E 68 90 40 50
        E 68 90 43 50
        E 616 90 30 00
        E 0 90 34 00
        E 0 90 3b 00
        E 0 90 40 00
        E 0 90 43 00
        E 2 90 2b 00
        E 2 90 2b 50
        E 66 90 30 50
        E 68 90 35 50
        E 70 90 3c 50
        E 68 90 40 50
        E 68 90 43 50
        E 616 90 30 00
        E 0 90 35 00
        E 0 90 3c 00
        E 0 90 40 00
        E 0 90 43 00
        E 2 90 2b 00
        E 2 90 2b 50
        E 66 90 30 50
        E 68 90 35 50
        E 70 90 3c 50
        E 68 90 40 50
        E 68 90 43 50
        E 616 90 30 00
        E 0 90 35 00
        E 0 90 3c 00
        E 0 90 40 00
        E 0 90 43 00
        E 2 90 2b 00
        E 2 90 2b 50
        E 66 90 30 50
        E 68 90 35 50
        E 70 90 3c 50
        E 68 90 40 50
        E 68 90 43 50
        E 616 90 30 00
        E 0 90 35 00
        E 0 90 3c 00
        E 0 90 40 00
        E 0 90 43 00
        E 2 90 2b 00
        E 2 90 2b 50
        E 66 90 30 50
        E 68 90 35 50
        E 70 90 3c 50
        E 68 90 40 50
        E 68 90 43 50
        E 616 90 30 00
        E 0 90 35 00
        E 0 90 3c 00
        E 0 90 40 00
        E 0 90 43 00
        E 2 90 2b 00
        E 334 b0 7b 00
        CCINTERP 32
        CHASE_CC_TAKEOFFS 1
        GUID {852AF982-AD44-46C8-BD71-39AA3703CEAB}
        IGNTEMPO 0 120 4 4
        SRCCOLOR 27198
        VELLANE -1 100 0
        VELLANE 131 100 0
        CFGEDITVIEW -21090.533112 1.671598 56 12 0 -1 0 0 0 0.5
        KEYSNAP 0
        TRACKSEL 283
        EVTFILTER 0 -1 -1 -1 -1 0 0 0 0 -1 -1 -1 -1 0 -1 0 -1 -1
        CFGEDIT 1 1 0 1 1 0 1 3 1 1 1 1 724 863 1668 1885 0 0 1 2 0 0 0 0 0 0.5 0 0 1 64
      >
    >
    <ITEM
      POSITION 52.5
      SNAPOFFS 0
      LENGTH 11.484375
      LOOP 0
      ALLTAKES 0
      FADEIN 1 0 0 1 0 0 0
      FADEOUT 1 0 0 1 0 0 0
      MUTE 0 0
      SEL 0
      IGUID {0D2A99B4-B8BF-4BC4-93A1-F56AA9ABDC7F}
      IID 1466
      NAME "untitled MIDI item-glued"
      VOLPAN 1 0 1 -1
      SOFFS 0 0
      PLAYRATE 1 1 0 -1 0 0.0025
      CHANMODE 0
      GUID {6DE8AA0F-B6CA-4D4F-A3DD-7FEF39619836}
      <SOURCE MIDI
        HASDATA 1 960 QN
        CCINTERP 32
        POOLEDEVTS {2AF54EE9-F110-40DA-9A77-25E05B3A79E1}
        E 0 90 39 5f
        E 240 90 3b 5e
        E 240 90 3e 60
        E 0 90 43 60
        <X 2400 0
          /w9UVVBMIDM6MiBsZW4gMS4wMDAwMDAgc3RhZmYgMQ==
        >
        E 302 80 39 00
        E 0 80 3b 00
        E 0 80 3e 00
        E 0 80 43 00
        E 18 90 39 60
        E 0 90 3b 5f
        E 0 90 3e 5f
        E 0 90 43 5f
        E 320 80 39 00
        E 0 80 3b 00
        E 0 80 3e 00
        E 0 80 43 00
        E 0 90 3d 61
        E 0 90 45 59
        E 0 90 40 59
        E 0 90 49 60
        E 8000 80 45 00
        E 0 80 40 00
        E 0 80 49 00
        E 21 80 3d 00
        E 219 b0 7b 00
        CCINTERP 32
        CHASE_CC_TAKEOFFS 1
        GUID {D64410B6-A4F7-4FE5-B570-399E95D30FD0}
        IGNTEMPO 0 120 4 4
        SRCCOLOR 19674
        VELLANE 132 100 0
        VELLANE -1 100 0
      >
    >
    <ITEM
      POSITION 104.79069377100444
      SNAPOFFS 0
      LENGTH 51.95057114887956
      LOOP 0
      ALLTAKES 0
      FADEIN 1 0 0 1 0 0 0
      FADEOUT 1 0 0 1 0 0 0
      MUTE 0 0
      SEL 0
      IGUID {E74547DA-9CF2-4B98-B167-4A1058645E73}
      IID 2235
      NAME "untitled MIDI item-glued"
      VOLPAN 1 0 1 -1
      SOFFS 0 0
      PLAYRATE 1 1 0 -1 0 0.0025
      CHANMODE 0
      GUID {AFA5BD5C-B054-4C8F-997B-E56B1D0C6166}
      <SOURCE MIDI
        HASDATA 1 960 QN
        CCINTERP 32
        POOLEDEVTS {CB1A9088-C07B-4321-85BE-751DE74F7072}
        E 0 90 43 60
        E 2880 80 43 00
        E 0 90 46 60
        E 960 80 46 00
        E 0 90 41 60
        E 2880 80 41 00
        E 0 90 3f 60
        E 960 80 3f 00
        E 0 90 3e 60
        E 7680 80 3e 00
        E 38024 b0 7b 00
        CCINTERP 32
        CHASE_CC_TAKEOFFS 1
        GUID {1337AA1A-BA06-4A9F-A4C1-8802BBE986CC}
        IGNTEMPO 0 120 4 4
        SRCCOLOR 136116
        VELLANE -1 100 0
        VELLANE 10 100 0
        CFGEDITVIEW 0 20.240916 60 12 0 -1 0 0 0 0.5
        KEYSNAP 0
        TRACKSEL 283
        EVTFILTER 0 -1 -1 -1 -1 0 0 0 0 -1 -1 -1 -1 0 -1 0 -1 -1
        CFGEDIT 1 1 0 1 1 0 1 3 1 1 1 0.25 65 629 961 1651 0 0 1 0 0 0 0 1 0 0.5 1 0 1 64
      >
    >
    <ITEM
      POSITION 158.67674891988401
      SNAPOFFS 0
      LENGTH 71.612908
      LOOP 0
      ALLTAKES 0
      FADEIN 1 0 0 1 0 0 0
      FADEOUT 1 0 0 1 0 0 0
      MUTE 0 0
      SEL 0
      IGUID {18BCD6D7-5EDA-4E0C-AC71-0CD32DE78BD7}
      IID 42
      NAME Exiled_(Coda)-glued
      VOLPAN 1 0 1 -1
      SOFFS 0 0
      PLAYRATE 1 1 0 -1 0 0.0025
      CHANMODE 0
      GUID {6B47AEF6-4239-4092-8510-FD00A30B871D}
      <SOURCE MIDI
        HASDATA 1 960 QN
        CCINTERP 32
        POOLEDEVTS {1B365F28-D735-46B7-903D-0C6B2A069AF5}
        E 0 b1 5b 00
        E 0 b1 5d 00
        E 0 b3 5b 00
        E 0 b3 5d 00
        E 480 91 3c 60
        E 238 91 3c 00
        E 2 91 43 60
        E 238 91 43 00
        E 482 91 3d 60
        E 238 91 3d 00
        E 2 91 41 60
        E 238 91 41 00
        E 482 91 3d 60
        E 238 91 3d 00
        E 2 91 41 60
        E 238 91 41 00
        E 482 91 3d 60
        E 238 91 3d 00
        E 2 91 41 60
        E 238 91 41 00
        E 482 91 41 60
        E 238 91 41 00
        E 2 91 44 60
        E 238 91 44 00
        E 482 91 3f 60
        E 238 91 3f 00
        E 2 91 43 60
        E 238 91 43 00
        E 482 91 3f 60
        E 238 91 3f 00
        E 2 91 43 60
        E 238 91 43 00
        E 482 91 38 60
        E 238 91 38 00
        E 2 91 3d 60
        E 238 91 3d 00
        E 482 91 3a 60
        E 238 91 3a 00
        E 2 91 3d 60
        E 238 91 3d 00
        E 5282 91 3c 60
        E 238 91 3c 00
        E 2 91 43 60
        E 238 91 43 00
        E 482 91 3d 60
        E 238 91 3d 00
        E 2 91 41 60
        E 238 91 41 00
        E 482 91 3d 60
        E 238 91 3d 00
        E 2 91 41 60
        E 238 91 41 00
        E 482 91 3d 60
        E 238 91 3d 00
        E 2 91 41 60
        E 238 91 41 00
        E 482 91 41 60
        E 238 91 41 00
        E 2 91 44 60
        E 238 91 44 00
        E 482 91 3f 60
        E 238 91 3f 00
        E 2 91 43 60
        E 238 91 43 00
        E 482 91 3f 60
        E 238 91 3f 00
        E 2 91 43 60
        E 238 91 43 00
        E 8162 91 3d 60
        E 238 91 3d 00
        E 2 91 41 5e
        E 238 91 41 00
        E 482 91 3c 60
        E 238 91 3c 00
        E 2 91 43 60
        E 238 91 43 00
        E 482 91 3d 60
        E 238 91 3d 00
        E 2 91 41 60
        E 238 91 41 00
        E 482 91 3d 60
        E 238 91 3d 00
        E 2 91 41 60
        E 238 91 41 00
        E 482 91 3d 60
        E 238 91 3d 00
        E 2 91 41 60
        E 238 91 41 00
        E 482 91 3f 60
        E 238 91 3f 00
        E 2 91 43 60
        E 238 91 43 00
        E 482 91 3f 60
        E 238 91 3f 00
        E 2 91 43 60
        E 238 91 43 00
        <X 13442 0
          /1kCBAA=
        >
        E 0 90 50 19
        E 116 90 50 00
        E 2 90 50 19
        E 116 90 50 00
        E 2 90 50 1b
        E 116 90 50 00
        E 2 90 50 1d
        E 116 90 50 00
        E 2 90 50 1d
        E 116 90 50 00
        E 2 90 50 1d
        E 116 90 50 00
        E 2 90 50 1e
        E 116 90 50 00
        E 2 90 50 20
        E 116 90 50 00
        E 2 90 50 20
        E 116 90 50 00
        E 2 90 50 20
        E 116 90 50 00
        E 2 90 50 20
        E 116 90 50 00
        E 2 90 50 23
        E 116 90 50 00
        E 2 90 50 24
        E 116 90 50 00
        E 2 90 50 24
        E 116 90 50 00
        E 2 90 50 24
        E 116 90 50 00
        E 2 90 50 24
        E 116 90 50 00
        E 2 90 50 26
        E 116 90 50 00
        E 2 90 50 27
        E 116 90 50 00
        E 2 90 50 27
        E 116 90 50 00
        E 2 90 50 27
        E 116 90 50 00
        E 2 90 50 2a
        E 116 90 50 00
        E 2 90 50 2a
        E 116 90 50 00
        E 2 90 50 2a
        E 116 90 50 00
        E 2 90 50 2b
        E 116 90 50 00
        E 50 90 52 2b
        E 118 90 52 00
        E 2 90 52 2b
        E 118 90 52 00
        E 2 90 52 2d
        E 118 90 52 00
        E 2 90 52 2d
        E 118 90 52 00
        E 2 90 52 2d
        E 118 90 52 00
        E 2 90 52 2e
        E 118 90 52 00
        E 2 90 52 31
        E 118 90 52 00
        E 2 90 52 31
        E 118 90 52 00
        E 2 90 4d 31
        E 116 90 4d 00
        E 2 90 4d 31
        E 116 90 4d 00
        E 2 90 4d 32
        E 116 90 4d 00
        E 2 90 4d 32
        E 116 90 4d 00
        E 2 90 4d 32
        E 116 90 4d 00
        E 2 90 4d 32
        E 116 90 4d 00
        E 2 90 4d 34
        E 116 90 4d 00
        E 2 90 4d 34
        E 116 90 4d 00
        E 2 90 4d 34
        E 116 90 4d 00
        E 2 90 4d 34
        E 116 90 4d 00
        E 2 90 4d 35
        E 116 90 4d 00
        E 2 90 4d 35
        E 116 90 4d 00
        E 2 90 4d 35
        E 116 90 4d 00
        E 2 90 4d 35
        E 116 90 4d 00
        E 2 90 4d 35
        E 116 90 4d 00
        E 2 90 4d 38
        E 116 90 4d 00
        E 2 90 4d 38
        E 116 90 4d 00
        E 2 90 4d 38
        E 116 90 4d 00
        E 2 90 4d 38
        E 116 90 4d 00
        E 2 90 4d 38
        E 116 90 4d 00
        E 2 90 4d 3a
        E 116 90 4d 00
        E 2 90 4d 3a
        E 116 90 4d 00
        E 2 90 4d 3a
        E 116 90 4d 00
        E 2 90 4d 3b
        E 116 90 4d 00
        E 50 90 4b 3b
        E 118 90 4b 00
        E 2 90 4b 3b
        E 118 90 4b 00
        E 2 90 4b 3b
        E 118 90 4b 00
        E 2 90 4b 3b
        E 118 90 4b 00
        E 2 90 4b 3b
        E 118 90 4b 00
        E 2 90 4b 3b
        E 118 90 4b 00
        E 2 90 4b 3d
        E 118 90 4b 00
        E 2 90 4b 3d
        E 118 90 4b 00
        E 2 90 4a 3d
        E 116 90 4a 00
        E 2 90 4a 3d
        E 116 90 4a 00
        E 4 90 4a 3d
        E 116 90 4a 00
        E 2 90 4a 3d
        E 116 90 4a 00
        E 4 90 4a 41
        E 116 90 4a 00
        E 2 90 4a 41
        E 116 90 4a 00
        E 4 90 4a 41
        E 116 90 4a 00
        E 2 90 4a 41
        E 116 90 4a 00
        E 4 90 4a 42
        E 116 90 4a 00
        E 2 90 4a 42
        E 116 90 4a 00
        E 4 90 4a 42
        E 116 90 4a 00
        E 2 90 4a 42
        E 116 90 4a 00
        E 4 90 4a 42
        E 116 90 4a 00
        E 2 90 4a 42
        E 116 90 4a 00
        E 4 90 4a 44
        E 116 90 4a 00
        E 2 90 4a 44
        E 116 90 4a 00
        E 4 90 4a 44
        E 116 90 4a 00
        E 2 90 4a 44
        E 116 90 4a 00
        E 4 90 4a 47
        E 116 90 4a 00
        E 2 90 4a 47
        E 116 90 4a 00
        E 4 90 4a 47
        E 116 90 4a 00
        E 2 90 4a 47
        E 116 90 4a 00
        E 4 90 4a 49
        E 116 90 4a 00
        E 2 90 4a 49
        E 116 90 4a 00
        E 4 90 4a 49
        E 116 90 4a 00
        E 4 90 4a 4b
        E 116 90 4a 00
        E 2 90 4a 4b
        E 116 90 4a 00
        E 4 90 4a 4b
        E 116 90 4a 00
        E 2 90 4a 4b
        E 116 90 4a 00
        E 4 90 4a 4b
        E 116 90 4a 00
        E 2 90 4a 4b
        E 116 90 4a 00
        E 4 90 4a 4b
        E 116 90 4a 00
        E 34 b0 5b 00
        E 0 b0 5d 00
        E 240 90 54 50
        E 238 90 54 00
        E 2 90 52 50
        E 238 90 52 00
        E 2 90 4f 50
        E 238 90 4f 00
        E 2 90 52 50
        E 238 90 52 00
        E 2 90 50 50
        E 238 90 50 00
        E 2 90 4f 50
        E 238 90 4f 00
        E 2 90 4d 50
        E 238 90 4d 00
        E 2 90 4f 50
        E 238 90 4f 00
        E 2 90 4d 50
        E 238 90 4d 00
        E 2 90 4a 50
        E 238 90 4a 00
        E 2 90 48 50
        E 238 90 48 00
        E 242 90 48 50
        E 238 90 48 00
        E 2 90 46 50
        E 238 90 46 00
        E 2 90 43 50
        E 238 90 43 00
        E 2 91 4e 50
        E 238 91 4e 00
        E 2 91 4e 50
        E 238 91 4e 00
        E 2 91 4e 50
        E 238 91 4e 00
        E 2 91 4e 50
        E 238 91 4e 00
        E 242 91 4e 50
        E 58 91 4e 00
        E 2 91 4e 50
        E 58 91 4e 00
        E 2 91 4e 50
        E 58 91 4e 00
        E 2 91 4e 50
        E 58 91 4e 00
        E 482 91 4e 50
        E 238 91 4e 00
        E 2 91 4e 50
        E 238 91 4e 00
        E 2 91 4e 50
        E 238 91 4e 00
        E 2 91 4e 50
        E 238 91 4e 00
        E 242 91 4e 50
        E 58 91 4e 00
        E 2 91 4e 50
        E 58 91 4e 00
        E 2 91 4e 50
        E 58 91 4e 00
        E 2 91 4e 50
        E 58 91 4e 00
        E 482 91 4e 50
        E 238 91 4e 00
        E 2 91 4e 50
        E 238 91 4e 00
        E 2 91 4e 50
        E 238 91 4e 00
        E 2 91 4e 50
        E 238 91 4e 00
        E 242 91 4e 50
        E 58 91 4e 00
        E 2 91 4e 50
        E 58 91 4e 00
        E 2 91 4e 50
        E 58 91 4e 00
        E 2 91 4e 50
        E 58 91 4e 00
        E 482 91 4e 50
        E 238 91 4e 00
        E 2 91 4e 50
        E 238 91 4e 00
        E 2 91 4e 50
        E 238 91 4e 00
        E 2 91 4e 50
        E 238 91 4e 00
        E 242 91 4e 50
        E 58 91 4e 00
        E 2 91 4e 50
        E 58 91 4e 00
        E 2 91 4e 50
        E 58 91 4e 00
        E 2 91 4e 50
        E 58 91 4e 00
        E 482 b0 7b 00
        CCINTERP 32
        CHASE_CC_TAKEOFFS 1
        GUID {3B25CADA-EB08-4BEB-BA5F-AF228B0B6D7E}
        IGNTEMPO 0 120 4 4
        SRCCOLOR 131537
        VELLANE -1 100 0
        VELLANE 93 100 0
      >
    >
    <ITEM
      POSITION 230.28965691984487
      SNAPOFFS 0
      LENGTH 15.48386167750198
      LOOP 0
      ALLTAKES 0
      FADEIN 1 0 0 1 0 0 0
      FADEOUT 1 0 0 1 0 0 0
      MUTE 0 0
      SEL 0
      IGUID {BAB94F26-59CC-4D6B-9B39-A532705DD47C}
      IID 1778
      NAME Exiled-glued
      VOLPAN 1 0 1 -1
      SOFFS 0 0
      PLAYRATE 1 1 0 -1 0 0.0025
      CHANMODE 0
      GUID {EA1A5B57-A9D9-4673-ADA7-32FABDB52D4C}
      <SOURCE MIDI
        HASDATA 1 960 QN
        CCINTERP 32
        POOLEDEVTS {E428B661-0897-46EA-9517-111374703565}
        e 0 b0 07 64
        e 0 b0 0a 40
        e 0 b0 5b 00
        e 0 b0 5d 00
        e 0 90 59 32
        e 150 90 59 00
        e 10 90 5b 32
        e 188 90 5b 00
        e 12 90 4f 32
        e 112 90 4f 00
        e 8 90 51 32
        e 112 90 51 00
        e 8 90 54 32
        e 112 90 54 00
        e 8 90 51 32
        e 112 90 51 00
        e 8 90 54 32
        e 112 90 54 00
        e 8 90 56 28
        e 112 90 56 00
        e 8 90 5b 32
        e 112 90 5b 00
        e 8 90 56 32
        e 112 90 56 00
        e 8 90 5b 32
        e 112 90 5b 00
        e 8 90 54 28
        e 112 90 54 00
        e 8 90 54 32
        e 58 90 54 00
        e 62 90 54 28
        e 58 90 54 00
        e 62 90 54 32
        e 58 90 54 00
        e 62 90 53 32
        e 112 90 53 00
        e 8 90 56 32
        e 112 90 56 00
        e 8 90 53 32
        e 112 90 53 00
        e 8 90 56 32
        e 112 90 56 00
        e 8 90 56 32
        e 112 90 56 00
        e 8 90 53 32
        e 112 90 53 00
        e 8 90 56 32
        e 112 90 56 00
        e 8 90 53 32
        e 112 90 53 00
        e 8 90 56 32
        e 454 90 56 00
        e 26 90 5b 32
        e 454 90 5b 00
        e 26 90 59 32
        e 150 90 59 00
        e 10 90 5b 32
        e 188 90 5b 00
        e 12 90 4f 32
        e 112 90 4f 00
        e 8 90 51 32
        e 112 90 51 00
        e 8 90 54 32
        e 112 90 54 00
        e 8 90 51 32
        e 112 90 51 00
        e 8 90 54 32
        e 112 90 54 00
        e 8 90 56 28
        e 112 90 56 00
        e 8 90 5b 32
        e 112 90 5b 00
        e 8 90 56 32
        e 112 90 56 00
        e 8 90 5b 32
        e 112 90 5b 00
        e 8 90 54 28
        e 112 90 54 00
        e 8 90 54 32
        e 58 90 54 00
        e 62 90 54 28
        e 58 90 54 00
        e 62 90 54 32
        e 58 90 54 00
        e 62 90 53 32
        e 112 90 53 00
        e 8 90 56 32
        e 112 90 56 00
        e 8 90 53 32
        e 112 90 53 00
        e 8 90 56 32
        e 112 90 56 00
        e 8 90 56 32
        e 112 90 56 00
        e 8 90 53 32
        e 112 90 53 00
        e 8 90 56 32
        e 112 90 56 00
        e 8 90 53 32
        e 112 90 53 00
        e 8 90 56 32
        e 454 90 56 00
        e 26 90 5b 32
        e 454 90 5b 00
        e 26 90 59 32
        e 226 90 59 00
        e 14 90 56 32
        e 226 90 56 00
        e 14 90 56 32
        e 454 90 56 00
        e 26 90 51 32
        e 112 90 51 00
        e 8 90 51 32
        e 58 90 51 00
        e 62 90 51 32
        e 58 90 51 00
        e 62 90 51 32
        e 58 90 51 00
        e 62 90 59 32
        e 226 90 59 00
        e 14 90 59 32
        e 226 90 59 00
        e 14 90 53 32
        e 150 90 53 00
        e 10 90 5b 32
        e 150 90 5b 00
        e 10 90 51 32
        e 150 90 51 00
        e 10 90 56 32
        e 150 90 56 00
        e 10 90 51 32
        e 150 90 51 00
        e 10 90 53 32
        e 150 90 53 00
        e 10 90 53 32
        e 226 90 53 00
        e 14 90 4f 32
        e 226 90 4f 00
        e 14 90 56 32
        e 454 90 56 00
        e 26 90 59 32
        e 226 90 59 00
        e 14 90 56 32
        e 226 90 56 00
        e 14 90 56 32
        e 454 90 56 00
        e 26 90 51 32
        e 112 90 51 00
        e 8 90 51 32
        e 58 90 51 00
        e 62 90 51 32
        e 58 90 51 00
        e 62 90 51 32
        e 58 90 51 00
        e 62 90 59 32
        e 226 90 59 00
        e 14 90 59 32
        e 226 90 59 00
        e 14 90 53 32
        e 150 90 53 00
        e 10 90 5b 32
        e 150 90 5b 00
        e 10 90 51 32
        e 150 90 51 00
        e 10 90 56 32
        e 150 90 56 00
        e 10 90 51 32
        e 150 90 51 00
        e 10 90 53 32
        e 150 90 53 00
        e 10 90 53 32
        e 226 90 53 00
        e 14 90 4f 32
        e 226 90 4f 00
        e 14 90 56 32
        e 454 90 56 00
        E 26 b0 7b 00
        CCINTERP 32
        CHASE_CC_TAKEOFFS 1
        GUID {BFCD567E-56B6-4A1D-B3B6-B4372042335B}
        IGNTEMPO 0 120 4 4
        SRCCOLOR 136119
        VELLANE 132 100 0
        VELLANE -1 100 0
        CFGEDITVIEW 0 11.653295 48 12 0 -1 0 0 0 0.5
        KEYSNAP 0
        TRACKSEL 187
        EVTFILTER 0 -1 -1 -1 -1 0 0 0 0 -1 -1 -1 -1 0 -1 0 -1 -1
        CFGEDIT 1 1 0 1 1 0 1 2 1 1 1 0.25 814 690 1532 1424 0 0 1 2 0 0 0 1 0 0.2 1 0 1 64
      >
    >
  >
  <TRACK {1860507F-5BD8-4D00-B815-C1E497656772}
    NAME "perc med"
    PEAKCOL 27852793
    BEAT -1
    AUTOMODE 0
    VOLPAN 1 0 -1 -1 1
    MUTESOLO 0 0 0
    IPHASE 0
    PLAYOFFS 0 1
    ISBUS 0 0
    BUSCOMP 0 0 0 0 0
    SHOWINMIX 1 0.6667 0.5 1 0.5 -1 -1 -1
    SEL 0
    REC 0 4096 1 0 0 0 0
    VU 2
    TRACKHEIGHT 0 0 0 0 0 0
    INQ 0 0 0 0.5 100 0 0 100
    NCHAN 2
    FX 1
    TRACKID {1860507F-5BD8-4D00-B815-C1E497656772}
    PERF 0
    MIDIOUT -1
    MAINSEND 1 0
    <VOLENV2
      EGUID {DACF342E-6C59-4999-A4D7-262150B31B41}
      ACT 1 -1
      VIS 0 1 1
      LANEHEIGHT 0 0
      ARM 0
      DEFSHAPE 0 -1 -1
      VOLTYPE 1
      PT 157.00479546 1 0
      PT 207.32737946 1 0
      PT 207.32738046 0.38904514 0
    >
    <FXCHAIN
      WNDRECT 347 171 1071 831
      SHOW 0
      LASTSEL 0
      DOCKED 0
      BYPASS 0 0 0
      <VST "VSTi: Absynth 5 (Native Instruments GmbH)" "Absynth 5 Stereo.dll" 0 "" 1131179320<565354436C6D38616273796E74682035> ""
        OG1sQ+5e7f4CAAAAAQAAAAAAAAACAAAAAAAAAAIAAAABAAAAAAAAAAIAAAAAAAAAQxUAAAEAAAAAABAA
        QxUAAAAAAAABAAAAaHNpbgEAAAAAAAAADNSXhly5zEOyI5MAnbtkp5YAAAAAAAAARFNJTnYAAAABAAAASAAAAAAAAABEU0lOagAAAAEAAAAYAAAAAAAAAERTSU4BAAAA
        AQAAAAEAAAABAAAAAQAAAAEAAAAAAAAAAAAAAAAAAAANYmWFAQAAAA5wEAAAAAAAAQAAAAEAAAAAAAAAAAAAAAAAAAADAAAAMAAwADAAAAAAAAAAAAAAAAAAAAAAAAEA
        AAABAAAAAAAAAERTSU5lAAAAcRQAAAAAAAABAAAAaHNpbgEAAAAAAAAAanJtEGImREOpLqPe6hOHs2cAAAAAAAAARFNJTmUAAAABAAAANAAAAAAAAABEU0lOagAAAAEA
        AAAYAAAAAAAAAERTSU4BAAAAAQAAAAEAAAABAAAAAgAAAAEAAAAABgAAAAEAAAAHAAAANQAuADAALgAwAC4AMAABAAAAAwAAAAAAAABEU0lObAAAALIBAAAAAAAAAQAA
        AGhzaW4BAAAAAAAAAEKFExlb5ZVOpENv1gYlhWaCAQAAAAAAAERTSU5sAAAAAQAAABgAAAAAAAAARFNJTgEAAAABAAAAAQAAAAEAAAACAAAAAQAAAAAAAAAOAAAAVQBu
        AHQAaQB0AGwAZQBkACAAUwBvAHUAbgBkAAAAAAAAAAAAAAAAAAAAAAAAAAAAAAAAAAAAAAAAAAAAAAAAAAAAAAABAAAAAQAAAAEAAAAHAAAAQQBiAHMAeQBuAHQAaAAA
        AAAAAAAAAAcAAAAHAAAAXABAAGMAbwBsAG8AcgABAAAAMAARAAAAXABAAGQAZQB2AGkAYwBlAHQAeQBwAGUAZgBsAGEAZwBzAAEAAAAxAAsAAABcAEAAcwBvAHUAbgBk
        AHQAeQBwAGUAAQAAADAABwAAAFwAQAB0AGUAbQBwAG8AAQAAADAABgAAAFwAQAB2AGUAcgBsAAYAAAAxAC4ANwAuADEANAAGAAAAXABAAHYAZQByAG0ABgAAADEALgA3
        AC4AMQA0AAcAAABcAEAAdgBpAHMAaQBiAAEAAAAwAAEAAAAAAAAAAgAAAERTSU55AAAAaAAAAAAAAAABAAAAaHNpbgEAAAAAAAAARunc6wuWMkeBq42ZoYuWRDgAAAAA
        AAAARFNJTnkAAAABAAAAGAAAAAAAAABEU0lOAQAAAAEAAAABAAAAAQAAAAEAAAAAAAAAAQAAAAAAAAABAAAARFNJTnQAAACcEQAAAAAAAAEAAABoc2luAQAAAAAAAAC4
        Mb68F5gVSIUKXh5S4dZ8bBEAAAAAAABEU0lOdAAAAAEAAABTEQAAAAAAAERTSU5zAAAAAQAAABgAAAAAAAAARFNJTgEAAAABAAAAAQAAAAEAAAABw0UAABoRAAACw0UA
        YAAAASAFA2hzaW5AB0AAEAcORjrk8KJOuWzVLgJm3/wYQBQgAANEU0lOQCPgBwNAAEAbAG0gCAFvRSAEIABAI+ADUxCuZnYUZKycR4Ges7CW6DR4P6AnwDdAL+AXZ0Aj
        AfdEIFwgAAADIAMAuqALB3RzcnBtYUxjIBIRACASAAA0Y3RwggAAACAPb+kAIAAIBACAP8kDgD8AIAcCAAAAQAMEAICI9UAgBQNAAwIAoAAPXkBVbnRpdGxlZCBTb3Vu
        ZKAW4AQACwEAXYgBANVtAQC2uCALABwgHEBNwAPgDAAEZkliTBAgGQK/znZgjeADAAQ0Y3NvoCAQBhoSb+nud6MgkUAAQKXAAwEAAKAXBT+D+SJDAGAX4BEAQSFAA0AA
        AAEgqcAAwAmAB0BbgLOA/EAPA4A/BABAAACAIZeADwIbL30g14ALAAAgAOA/q4CDgADAC0CrA83MTD1AFeAAE0AMYH/gcauBH4AAgI8gByFX4EOrBDE1ZG0oIFwE4I4t
        ugDiAAPAAAGAPyAaBAAOAKNAIvEhhwDwIgMEwEFddEggB0APAYA+IAMgF+ADA+AHAARIQuf7SSAjBvpFAACgQQDgBCsBSEIgV0AAIB9AQ4AAAs3MzCGLwA+ABwKamZkg
        a2AbYAcGAECcRWZmZiA3QFMgAAIcH9ogBSAABNxDMzNzIBcFAAAK1yM8IAbgBQALs2euAgDkPwMA3DoAIFui3yAACYA/MzOzPgEvPOBACwAAIAAC8wQ1IAeACwAAYAcF
        QD8BVggJ4QczQSNAAIAH4f0z4RczAAAgAIEvQADh/TPhFzNBL8ADAADh/TPhGDMAACAA5QFH4v1n4htnQTNCawAA4f0z4RgzQS+myyAA4v1n4hdnAAAgAEEz4v1n4g1n
        A25yR2ZJnwHlOku/gTMABiE3QTMABaJnAAGgF+ABACizBeCrRgAAIClvQAAgD2ADAPDpBG8pHylnaVMgB0AjQACAB+kYb6An6RdvAAHJn2njSecgAAGIs2H7AgAA0CCX
        QAAA4GpngABKU+AXAICjAADpCp8AACmfAzRyU2ZNzeEDMyAAoGtgOw1AIDRjY3wAAABAYPUWACrTBIwuuj0KYCMBgD9ACwQAAABAB2FXgA8BAQBAyyPXIVcAASFXAAEg
        DwAAIA9AKwABIVdADyADAT8BoBNAGwYBAMw92YkdIAtAAEB3gANEKwVBAMw+BQAs1wUxZ2MMGwBuLUEUQANNrwAAICsEFQAAAH8gAwAAIAsAAOAXACC/IMjgIS8gUwEX
        AOAjL48h4CCPIAAAGSAD4CMvABrgIy8CdX2VITbgIV8CEMdTTzDgII8gXwAd4CZfAB7gIy8gXwAf4CMvIL8AIOAjLyBfAAHgAi8HTW9kd2hlZWwgEuAMAAABIF8ACyAZ
        wR8NQ2hhbm5lbCBWb2x1bWUgGOAGAAABIF8jL2KvCgQCAT9QYW4gTFIA4BAAQF8AFCAdQsgD+Pv9PkAvAUZCIBDgDgAADqAXADQgB44PQAAjBy2/AAAgAAAPIANAAAA1
        IATgBB9tvwIAAA0gA0AAQWPgBB8kH0AXQB9BH+AIH6BfQB9Dp+AIH6BfAP8gAEBHIAYA/6BfINogn6BfIBbgDR+gXyAe4A0f4DdfAXy/IIfgEl+gACB+4A1/4AIXQCog
        DuAF3wBwUZeAFyAG4AkfoAAgNuANH+AXnwEFQ2BDID7gDT8B2i7gFR8BJxjgFR8Bf/5wPyBe4A1fAf7I4BUfAY6Q4BUfAfwr4BUfASNRZg8gfuANfwKPiL1BQiAe4A0f
        Avs7vuAUHwGNmOAVHwH+0OAVHwI/A7/gFF8BJxzgFR8B2TLgFR8BBUfgFR8BXljgFR8Bp2bgFR8BqnHgFR8BP3ngFR8BS33gFR8ANeAWHwFwc+AVPwHwXuAVHwGjQOAV
        HwHmGeAVHwHz2OEV3wGwaeAVHwL5v7zhFP8BsTniFd8B9MDgFR8B5g3jFZ8BozTgFR8B8VLgFR8BcGfgFR8BNXHgFR8B/fnhFR8BhAfhFX8BthHgFR8BjxvgFR8BByXg
        FR8BGi7gFR8BwTbgFR8B+D7gFR8BuUbgFR8B/03gFR8BxlTgFR8BClvgFR8Bx2BgHwCBQoQgAEejh18nW0ADAfll4AAfQBtAA+AEHwGeauAAH0e/4AgfAbJu4AAfQAAA
        ByAE4AQ/ATJy4AAfQDvgCB8BHXXgAB9AX+AIHwFxd+AAH0AASGzgBF8BLXngAB9AX+AIHwFPeuAAH0Bf4AgfANbgAR9Ae+AIHwDDgB8mPuYNPwEAciAD4JIfAbptYP8g
        vuANvwGCaeAVHwG6ZOAVHwFlX+AVHwGGWeAVHwEhU+AVHwE5TOAVHwHUROAVHwH1POAVHwGiNOAVHwHfK+AVHwGzIuAVHwAi5hZfATIP4BU/AeoE4BUfAaL05RVfAdfe
        4BUfAYPI4BUfAbSx4BUfAXea4BUfAduC4BUfAdxV4BUfAX4l4BUfAXTp6RXfAVyH4BUfAcWT5xWfoAAjPuMNP6AAIB7gDR/rV9+gACB+4A1/4AIXQCogDuwFf0YDIAAg
        FuAOH4AAIB7gDR/sF3/gAjdASSAO4AV/IA/AF8AHhd+t/+BXnwEA1+IVXwEACOMVf6AAIMbgDr+AACAe4A0fAYJO4BVf4AI3QEkgDuEFHyAPwBfAB+FkP+AXf+AXH+FX
        3+AXf+AXH+D9n+CRnwEAi+0VHwEAiOAWH4AAIgbjDj+AACAe4A0fAM6XXyAe4A0foAAgHuANH+ACF0AqIA7jZb+gACB24A1/4AIXQCogDuBlnwD+QHWAdyAG4Al/II8g
        FkAG4AAH5GT/ARGP4AB3IIZgh+AEf+AClyAeQA7gBR/kV18BTIrgAHcAACAAIH7gBX8gDyAWQAbgAAfgBL/gV58BvIPgAHcAACAAIIbgBX8gDyAWQAbgAAfgZJ8Bxn3g
        AHcghmCH4AR/4AKXIB5ADuAFH+FXPwGZ9+AAdwAAIAAgfuAFfyAPIBYFADR1R2MELyBbn1sPIArgAABAC+ADA08nQA9AB0AD3lNAB0ADAAQgOUAfQAdAA1t3QA9AB0AD
        3U9AB0ADT1dAH0AHQAMACKA/QAdAA09zQB9AB0ADWQdAD0AHQANZR0APQAdAAwAMoD9AB0ADWFtAH0AHQANY60C3QAdAA1jbQB9AB0ADQP8ENGRNYYAgR0EPQBsAAGGn
        CIA+zcxMPfMENSG3gAAhPmE/AADgUh8ENG9mbDAghOAHi1krQAAgGoADIIuAC10LAoA+ASCrAAEgqwABIB9BV0AAQAsAAeAKHwABIBzAP0FjQADgAz/gAx9gCyAgQAMA
        MyAHQABAC+ADAOAHD0AAQBPgBwPAAABIYAhSc0AAQAfgAwPgBwBAG2AAZ7vgBQAA4KGbfusAP+EDOwAAYABAO+G9O0FLQADh/TvhJTtD/0AA4U87BDE0bmVkJPxDs0UT
        AAEidyADAj4BAOABAECDAAEkQYARgB8CAABMOq9Co0AAQAcEgD+PNm+i0wQAAJqZmSAj4BEAgF9AN0AAQAdAA8AX4BUAA7L24kBAIQJnbrrgBGMkVmAAQBtDVwSwcmiR
        7Y/XAD9A20AAAKSwx4AAgHMCykLS4ChPQGgAAGAAgEOAAEEbgADAB0AAgT8Bx1NAE0ADAAIgJ0AXAADgBAeAE0AfQADhFz8AAkAkoDMAAGAHgD9AAAAB4AIL4AwAAZB7
        IO9gL6CHgABA00AAgA3hBT+AE+ENPwKAiNXgKE8BAQBAp+ATT2AA4AB3QABAm0AAQAvgB59h3wBS4AlPQGNAAAMBEMdTQAdAAAICAP0i3wFuIEAbQAOBS0AAYRMgAEAH
        QAPgARvhF49gf6AzAABgB4A/YAACzMw9QGcAAEATAVYIxrbgAQDhgI8BgD/jCx+B32AA4SWPIADgB08EcnNkYSAgF0RvAAAgAAD+IdAgBuAMBwNnclRhSRcknmAAADwg
        BQfzBLU+ZG5FcCAKCQAgEgAAZW51dDQgIAMgD2/p4QLIoAANKEBsYWNTdVQgYWduaW6gFOAEAB8pc5Zvu0zIP1vajyaH0ck/jkGJ3VJWyz/KI07s4CjNPx/0D3xL6l/O
        PxuiuZ8nM9A/LG+33MC00D9f1rCTjDnSPx+RPapKWL7TP6IKqIfxP9Q/w6SjASRD1T/2C52478fWP4BfANigXwDZoF8A26BfAN2gXwDeoF8A4KBfAOCgXwDioF8A46Bf
        AOSgXwDloF8A5qBfAOigXwDpoF8A66BfAO2gXwDuoF8A8KBfAPCgXwDyoF8A86BfAPSgXwD1oF8A9qBfAPigXwD5oF8A+6BfAP2gXwD+oF8BAECBHwEAQIEfAQJAgR8B
        A0CBHwEEQIEfAQVAgR8BBkCBHwEIQIF/AQlAgX8BC0CBfwENQIF/AQ5AgX8AEKBfABCgXwASoF8AE6BfABSgXwAVoF8AFqBfABigXwAZoF8AG6BfAB2gXwAeoF8AIKBf
        ACCgXwAioF8AI6BfACSgXwAloF8AJqBfACigXwApoF8AK6BfAC2gXwAuoF8AMKBfADCgXwAyoF8AM6BfADSgXwA1oF8ANqBfADigXwA5oF8AO6BfAD2gXwA+oF8AQKBf
        AECgXwBCoF8AQ6BfAESgXwBFoF8ARqBfAEigXwBJoF8AS6BfAE2gXwBOoF8AUKBfAFCgXwBSoF8AU6BfAFSgXwBVoF8AVqBfAFigXwBZoF8AW6BfAF2gXwBeoF8AYKBf
        AGCgXwBioF8AY6BfAGSgXwBloF8AZqBfAGigXwBpoF8Aa6BfAG2gXwBuoF8AcKBfAHCgXwFyQOQDPwAB5gEIoADk/T/k/T/k/T/kBz8HJiGygXJ6wz6Fv+T1PwAC5Co/
        BIX67UG76P1/6P1/6P1/6Ox/AAMkPwABKHlM84AADChAd2VuZHkganVzdFyAEuAGAAh38VHH+MbHP44u3x9oQ8k/pi884Ne/yj+P7vu7XYjMP9VtJvm2uM0/XRwf2gT1
        s88/Ai5/H8tY0D8ZdX2VOtXRPzGU8iGqUdM/BFzrPXrQ0z9Is2euCxnO1D9g0tw6iUrWP4BfANegXwDZoF8A2qBfANygXwDdoF8A36BfAOCgXwDhoF8A46BfAOOgXwDk
        oF8A5qBfAOegXwDpoF8A6qBfAOygXwDtoF8A76BfAPCgXwDxoF8A86BfAPOgXwD0oF8A9qBfAPegXwD5oF8A+qBfAPygXwD9oF8A/6BfAQBAgR8BAUCBHwEDQIEfAgNA
        SGEfAQRAgR8BBkCBHwEHQIF/AQlAgX8BCkCBfwEMQIF/AQ1AgX8BD0CBfwAQoF8AEaBfABOgXwAToF8AFKBfABagXwAXoF8AGaBfABqgXwAcoF8AHaBfAB+gXwAgoF8A
        IaBfACOgXwAjoF8AJKBfACagXwAnoF8AKaBfACqgXwAsoF8ALaBfAC+gXwAwoF8AMaBfADOgXwAzoF8ANKBfADagXwA3oF8AOaBfADqgXwA8oF8APaBfAD+gXwBAoF8A
        QaBfAEOgXwBDoF8ARKBfAEagXwBHoF8ASaBfAEqgXwBMoF8ATaBfAE+gXwBQoF8AUaBfAFOgXwBToF8AVKBfAFagXwBXoF8AWaBfAFqgXwBcoF8AXaBfAF+gXwBgoF8A
        YaBfAGOgXwBjoF8AZKBfAGagXwBnoF8AaaBfAGqgXwBsoF8AbaBfAG+gXwBwoF8FcUA0NElwM3ww+gE7IIy/8gLzAABAF5KbMSL6ANPZY0AbBwAAoEIAAEDBMYYF/2xp
        YXQAIAAEmIsTABEgB0AAA2tuYWKAJ4AAWmtgTEAAB2dwdGNZVE1FQAsLDWJlhQEAAAAAAAAAAQAAAAABAAAAAAAAAA==
        ADxkaXNhYmxlZD4AEAAAAA==
      >
      PRESETNAME <disabled>
      FLOATPOS 0 0 0 0
      FXID {1A2C16F8-1EEE-4EFF-963E-7CA521E70B75}
      WAK 0 0
    >
    <ITEM
      POSITION 0
      SNAPOFFS 0
      LENGTH 156.95057114887956
      LOOP 0
      ALLTAKES 0
      FADEIN 1 0 0 1 0 0 0
      FADEOUT 1 0 0 1 0 0 0
      MUTE 0 0
      SEL 0
      IGUID {7986D73F-AA7B-4E32-AAFA-0109D23F1C18}
      IID 2228
      NAME Exiled-glued
      VOLPAN 1 0 1 -1
      SOFFS 0 0
      PLAYRATE 1 1 0 -1 0 0.0025
      CHANMODE 0
      GUID {361A6F91-0DB0-4627-BD3E-07C7BBCAF92F}
      <SOURCE MIDI
        HASDATA 1 960 QN
        CCINTERP 32
        POOLEDEVTS {E50E02A6-BFAD-4C3E-90A8-67542D3FF63A}
        E 0 b0 07 64
        E 0 b0 0a 40
        E 0 b0 5b 00
        E 0 b0 5d 00
        E 0 b1 79 00
        E 42240 90 45 50
        E 1438 90 45 00
        E 2 90 45 50
        E 1438 90 45 00
        E 2 90 45 50
        E 478 90 45 00
        E 2 90 45 50
        E 1920 90 45 00
        E 0 90 45 50
        E 960 90 45 00
        E 480 90 45 50
        E 240 90 45 00
        E 0 90 40 50
        E 480 90 40 00
        E 0 90 40 50
        E 240 80 40 00
        E 0 90 45 50
        E 238 90 45 00
        E 242 90 45 50
        E 238 90 45 00
        E 242 90 45 50
        E 238 90 45 00
        E 242 90 45 50
        E 718 90 45 00
        E 242 90 45 50
        E 240 90 45 00
        E 720 90 45 50
        E 238 90 45 00
        E 2 90 45 50
        E 238 90 45 00
        E 6722 90 45 50
        E 478 90 45 00
        E 2 90 47 50
        E 478 90 47 00
        E 2 90 4c 50
        E 1438 90 4c 00
        E 2 90 4c 50
        E 478 90 4c 00
        E 962 90 4a 50
        E 958 90 4a 00
        E 2 90 45 50
        E 1438 90 45 00
        E 2 90 45 50
        E 478 90 45 00
        E 962 90 45 50
        E 478 90 45 00
        E 2 90 45 50
        E 478 90 45 00
        E 6722 90 45 50
        E 478 90 45 00
        E 2 90 45 50
        E 478 90 45 00
        E 2 90 4c 50
        E 1438 90 4c 00
        E 2 90 4c 50
        E 478 90 4c 00
        E 962 90 4a 50
        E 478 90 4a 00
        E 482 90 45 50
        E 1438 90 45 00
        E 2 90 45 50
        E 478 90 45 00
        E 482 90 47 50
        E 478 90 47 00
        E 2 90 48 50
        E 478 90 48 00
        E 2 90 45 50
        E 1918 90 45 00
        E 2 90 45 50
        E 1918 90 45 00
        E 962 90 3e 50
        E 478 90 3e 00
        E 2 90 45 50
        E 238 90 45 00
        E 2 90 45 50
        E 238 90 45 00
        E 2 90 45 50
        E 958 90 45 00
        E 482 90 45 50
        E 238 90 45 00
        E 2 90 45 50
        E 238 90 45 00
        E 2 90 3e 50
        E 958 90 3e 00
        E 2 90 45 50
        E 1918 90 45 00
        E 28322 90 47 60
        E 960 80 47 00
        E 0 90 4a 60
        E 960 80 4a 00
        E 0 90 47 60
        E 960 80 47 00
        E 0 90 43 60
        E 960 80 43 00
        E 0 90 41 60
        E 240 80 41 00
        E 0 90 3f 60
        E 1680 80 3f 00
        E 240 90 3d 60
        E 720 80 3d 00
        E 240 90 3b 60
        E 720 80 3b 00
        E 0 90 3e 60
        E 3840 80 3e 00
        E 0 90 47 60
        E 960 80 47 00
        E 0 90 4a 60
        E 960 80 4a 00
        E 0 90 47 60
        E 960 80 47 00
        E 0 90 43 60
        E 960 80 43 00
        E 0 90 41 60
        E 240 80 41 00
        E 0 90 3f 60
        E 1680 80 3f 00
        E 240 90 3d 60
        E 720 80 3d 00
        E 240 90 3b 60
        E 720 80 3b 00
        E 0 90 3e 60
        E 3840 80 3e 00
        E 240 90 3e 60
        E 240 80 3e 00
        E 0 90 40 60
        E 240 80 40 00
        E 0 90 41 60
        E 240 80 41 00
        E 0 90 44 60
        E 2880 80 44 00
        E 0 90 43 5d
        E 240 80 43 00
        E 0 90 44 60
        E 240 80 44 00
        E 0 90 43 57
        E 240 80 43 00
        E 0 90 41 60
        E 240 80 41 00
        E 0 90 43 60
        E 2400 80 43 00
        E 0 90 3e 60
        E 240 80 3e 00
        E 0 90 3e 60
        E 240 80 3e 00
        E 0 90 3e 60
        E 480 80 3e 00
        E 0 90 3e 60
        E 240 80 3e 00
        E 0 90 3e 60
        E 240 80 3e 00
        E 0 90 3e 60
        E 240 80 3e 00
        E 0 90 3e 60
        E 720 80 3e 00
        E 0 90 3e 60
        E 720 80 3e 00
        E 0 90 3e 60
        E 480 80 3e 00
        E 240 90 3e 60
        E 480 80 3e 00
        E 3840 b0 7b 00
        CCINTERP 32
        CHASE_CC_TAKEOFFS 1
        GUID {7ED988A2-3B54-4BC0-9C55-72324E78BA98}
        IGNTEMPO 0 120 4 4
        SRCCOLOR 136109
        VELLANE 132 100 0
        VELLANE -1 100 0
        CFGEDITVIEW 0 11.057659 49 12 0 -1 0 0 0 0.5
        KEYSNAP 0
        TRACKSEL 269
        EVTFILTER 0 -1 -1 -1 -1 0 0 0 0 -1 -1 -1 -1 0 -1 0 -1 -1
        CFGEDIT 1 1 0 1 1 0 1 3 1 1 1 0.25 580 733 1492 1771 0 0 1 0 0 0 0 0 0 0.5 1 0 1 64
      >
    >
    <ITEM
      POSITION 0
      SNAPOFFS 0
      LENGTH 156.95057114887956
      LOOP 0
      ALLTAKES 0
      FADEIN 1 0 0 1 0 0 0
      FADEOUT 1 0 0 1 0 0 0
      MUTE 0 0
      SEL 0
      IGUID {9FD4BACB-9D23-41CF-8CF5-9BA0F7EBC8A2}
      IID 2226
      NAME Exiled-glued
      VOLPAN 1 0 1 -1
      SOFFS 0 0
      PLAYRATE 1 1 0 -1 0 0.0025
      CHANMODE 0
      GUID {783FEC10-D2CB-4B1E-9826-B92912CB1ADF}
      <SOURCE MIDI
        HASDATA 1 960 QN
        CCINTERP 32
        POOLEDEVTS {3F5322BB-F15A-44CA-A1DA-9D25FAD08803}
        <x 0 0
          /1kCAAA=
        >
        e 0 b0 07 64
        e 0 b0 0a 40
        e 0 b0 5b 7f
        e 0 b0 5d 7f
        E 0 be 79 00
        e 26880 90 40 57
        e 478 90 40 00
        e 2 90 39 57
        e 478 90 39 00
        e 2 90 39 57
        e 478 90 39 00
        e 2 90 41 57
        e 158 90 41 00
        e 2 90 37 57
        e 158 90 37 00
        e 2 90 43 57
        e 158 90 43 00
        e 2 90 3e 57
        e 478 90 3e 00
        e 2 90 41 57
        e 478 90 41 00
        e 2 90 41 57
        e 158 90 41 00
        e 2 90 40 57
        e 158 90 40 00
        e 2 90 3e 57
        e 158 90 3e 00
        e 2 90 37 57
        e 238 90 37 00
        e 2 90 43 57
        e 238 90 43 00
        e 2 90 40 57
        e 478 90 40 00
        e 2 90 39 57
        e 478 90 39 00
        e 2 90 39 57
        e 478 90 39 00
        e 2 90 41 57
        e 158 90 41 00
        e 2 90 37 57
        e 158 90 37 00
        e 2 90 43 57
        e 158 90 43 00
        e 2 90 3e 57
        e 478 90 3e 00
        e 2 90 41 57
        e 478 90 41 00
        e 2 90 41 57
        e 158 90 41 00
        e 2 90 40 57
        e 158 90 40 00
        e 2 90 3e 57
        e 158 90 3e 00
        e 2 90 37 57
        e 238 90 37 00
        e 2 90 43 57
        e 238 90 43 00
        e 2 90 45 57
        e 478 90 45 00
        e 2 90 48 57
        e 478 90 48 00
        e 2 90 4d 57
        e 478 90 4d 00
        e 2 90 47 57
        e 238 90 47 00
        e 2 90 48 57
        e 238 90 48 00
        e 2 90 47 57
        e 238 90 47 00
        e 2 90 43 57
        e 238 90 43 00
        e 2 90 43 57
        e 478 90 43 00
        e 2 90 4c 57
        e 478 90 4c 00
        e 2 90 4a 57
        e 478 90 4a 00
        e 2 90 45 57
        e 478 90 45 00
        e 2 90 48 57
        e 478 90 48 00
        e 2 90 4d 57
        e 478 90 4d 00
        e 2 90 47 57
        e 238 90 47 00
        e 2 90 48 57
        e 238 90 48 00
        e 2 90 47 57
        e 238 90 47 00
        e 2 90 43 57
        e 238 90 43 00
        e 2 90 43 57
        e 478 90 43 00
        e 2 90 4c 57
        e 478 90 4c 00
        e 2 90 4a 57
        e 478 90 4a 00
        e 49922 90 40 57
        e 478 90 40 00
        e 2 90 39 57
        e 478 90 39 00
        e 2 90 39 57
        e 478 90 39 00
        e 2 90 41 57
        e 158 90 41 00
        e 2 90 37 57
        e 158 90 37 00
        e 2 90 43 57
        e 158 90 43 00
        e 2 90 3e 57
        e 478 90 3e 00
        e 2 90 41 57
        e 478 90 41 00
        e 2 90 41 57
        e 158 90 41 00
        e 2 90 40 57
        e 158 90 40 00
        e 2 90 3e 57
        e 158 90 3e 00
        e 2 90 37 57
        e 238 90 37 00
        e 2 90 43 57
        e 238 90 43 00
        e 2 90 40 57
        e 478 90 40 00
        e 2 90 39 57
        e 478 90 39 00
        e 2 90 39 57
        e 478 90 39 00
        e 2 90 41 57
        e 158 90 41 00
        e 2 90 37 57
        e 158 90 37 00
        e 2 90 43 57
        e 158 90 43 00
        e 2 90 3e 57
        e 478 90 3e 00
        e 2 90 41 57
        e 478 90 41 00
        e 2 90 41 57
        e 158 90 41 00
        e 2 90 40 57
        e 158 90 40 00
        e 2 90 3e 57
        e 158 90 3e 00
        e 2 90 37 57
        e 238 90 37 00
        e 2 90 43 57
        e 238 90 43 00
        e 2 90 45 57
        e 478 90 45 00
        e 2 90 48 57
        e 478 90 48 00
        e 2 90 4d 57
        e 478 90 4d 00
        e 2 90 47 57
        e 238 90 47 00
        e 2 90 48 57
        e 238 90 48 00
        e 2 90 47 57
        e 238 90 47 00
        e 2 90 43 57
        e 238 90 43 00
        e 2 90 43 57
        e 478 90 43 00
        e 2 90 4c 57
        e 478 90 4c 00
        e 2 90 4a 57
        e 478 90 4a 00
        e 2 90 45 57
        e 478 90 45 00
        e 2 90 48 57
        e 478 90 48 00
        e 2 90 4d 57
        e 478 90 4d 00
        e 2 90 47 57
        e 238 90 47 00
        e 2 90 48 57
        e 238 90 48 00
        e 2 90 47 57
        e 238 90 47 00
        e 2 90 43 57
        e 238 90 43 00
        e 2 90 43 57
        e 478 90 43 00
        e 2 90 4c 57
        e 478 90 4c 00
        e 2 90 4a 57
        e 478 90 4a 00
        E 53762 b0 7b 00
        CCINTERP 32
        CHASE_CC_TAKEOFFS 1
        GUID {4ACAA7C5-02B4-46CC-B67C-C21C4FE06CA5}
        IGNTEMPO 0 120 4 4
        SRCCOLOR 136107
        VELLANE 132 100 0
        VELLANE -1 100 0
        CFGEDITVIEW 0 11.653295 48 12 0 -1 0 0 0 0.5
        KEYSNAP 0
        TRACKSEL 187
        EVTFILTER 0 -1 -1 -1 -1 0 0 0 0 -1 -1 -1 -1 0 -1 0 -1 -1
        CFGEDIT 1 1 0 1 1 0 1 2 1 1 1 0.25 814 690 1532 1424 0 0 1 2 0 0 0 1 0 0.2 1 0 1 64
      >
    >
    <ITEM
      POSITION 59.79069377100446
      SNAPOFFS 0
      LENGTH 56.25
      LOOP 0
      ALLTAKES 0
      FADEIN 1 0 0 1 0 0 0
      FADEOUT 1 0 0 1 0 0 0
      MUTE 0 0
      SEL 0
      IGUID {377E9DF6-E09F-4B77-A6F9-B7DAB0145556}
      IID 1780
      NAME "untitled MIDI item-glued"
      VOLPAN 1 0 1 -1
      SOFFS 0 0
      PLAYRATE 1 1 0 -1 0 0.0025
      CHANMODE 0
      GUID {080A07CB-4935-415C-A541-F4D5CA596708}
      <SOURCE MIDI
        HASDATA 1 960 QN
        CCINTERP 32
        POOLEDEVTS {57F05D15-14BB-4D2D-999C-598904A8B116}
        E 0 90 34 60
        E 960 80 34 00
        E 0 90 39 60
        E 240 80 39 00
        E 0 90 37 60
        E 240 80 37 00
        E 0 90 34 60
        E 960 80 34 00
        E 0 90 34 60
        E 480 80 34 00
        E 0 90 37 60
        E 960 80 37 00
        E 0 90 39 60
        E 960 80 39 00
        E 0 90 39 60
        E 240 80 39 00
        E 0 90 37 60
        E 240 80 37 00
        E 0 90 34 60
        E 480 80 34 00
        E 0 90 34 60
        E 480 80 34 00
        E 0 90 39 60
        E 480 80 39 00
        E 0 90 37 60
        E 960 80 37 00
        E 0 90 34 60
        E 960 80 34 00
        E 0 90 39 60
        E 240 80 39 00
        E 0 90 37 60
        E 240 80 37 00
        E 0 90 34 60
        E 960 80 34 00
        E 0 90 34 60
        E 480 80 34 00
        E 0 90 37 60
        E 960 80 37 00
        E 0 90 39 60
        E 960 80 39 00
        E 0 90 39 60
        E 240 80 39 00
        E 0 90 37 60
        E 240 80 37 00
        E 0 90 34 60
        E 480 80 34 00
        E 0 90 34 60
        E 480 80 34 00
        E 0 90 39 60
        E 480 80 39 00
        E 0 90 37 60
        E 960 80 37 00
        E 0 90 34 60
        E 960 80 34 00
        E 0 90 39 60
        E 240 80 39 00
        E 0 90 37 60
        E 240 80 37 00
        E 0 90 34 60
        E 960 80 34 00
        E 0 90 34 60
        E 480 80 34 00
        E 0 90 37 60
        E 960 80 37 00
        E 0 90 39 60
        E 960 80 39 00
        E 0 90 39 60
        E 240 80 39 00
        E 0 90 37 60
        E 240 80 37 00
        E 0 90 34 60
        E 480 80 34 00
        E 0 90 34 60
        E 480 80 34 00
        E 0 90 39 60
        E 480 80 39 00
        E 0 90 37 60
        E 960 80 37 00
        E 0 90 34 60
        E 960 80 34 00
        E 0 90 39 60
        E 240 80 39 00
        E 0 90 37 60
        E 240 80 37 00
        E 0 90 34 60
        E 960 80 34 00
        E 0 90 34 60
        E 480 80 34 00
        E 0 90 37 60
        E 960 80 37 00
        E 0 90 39 60
        E 960 80 39 00
        E 0 90 39 60
        E 240 80 39 00
        E 0 90 37 60
        E 240 80 37 00
        E 0 90 34 60
        E 480 80 34 00
        E 0 90 34 60
        E 480 80 34 00
        E 0 90 39 60
        E 480 80 39 00
        E 0 90 37 60
        E 960 80 37 00
        E 26880 b0 7b 00
        CCINTERP 32
        CHASE_CC_TAKEOFFS 1
        GUID {43F69E83-3E75-47E2-8873-C19E2D99D692}
        IGNTEMPO 0 120 4 4
        SRCCOLOR 27044
        VELLANE 132 100 0
        VELLANE -1 100 0
        CFGEDITVIEW 49394.891402 77.450537 33 9 0 -1 0 0 0 0.9
        KEYSNAP 0
        TRACKSEL 269
        EVTFILTER 0 -1 -1 -1 -1 0 0 0 0 -1 -1 -1 -1 0 -1 0 -1 -1
        CFGEDIT 1 1 0 1 1 0 1 3 1 1 1 0.25 476 726 1388 1764 0 0 1 0 0 0 0 1 0 0.5 0 0 1 64
      >
    >
    <ITEM
      POSITION 104.79069377100444
      SNAPOFFS 0
      LENGTH 51.95057114887956
      LOOP 0
      ALLTAKES 0
      FADEIN 1 0 0 1 0 0 0
      FADEOUT 1 0 0 1 0 0 0
      MUTE 0 0
      SEL 0
      IGUID {5AEDBB70-7E3D-4DA2-990F-8F78BE57D4AF}
      IID 2236
      NAME "untitled MIDI item-glued"
      VOLPAN 1 0 1 -1
      SOFFS 0 0
      PLAYRATE 1 1 0 -1 0 0.0025
      CHANMODE 0
      GUID {8BFA3C51-021B-4F0F-80DC-70546D96D469}
      <SOURCE MIDI
        HASDATA 1 960 QN
        CCINTERP 32
        POOLEDEVTS {808E20B7-0331-4A3E-949F-82D6E0AF08BD}
        E 0 90 43 60
        E 2880 80 43 00
        E 0 90 46 60
        E 960 80 46 00
        E 0 90 41 60
        E 2880 80 41 00
        E 0 90 3f 60
        E 960 80 3f 00
        E 0 90 3e 60
        E 7680 80 3e 00
        E 38024 b0 7b 00
        CCINTERP 32
        CHASE_CC_TAKEOFFS 1
        GUID {6353CF8E-5C05-4C4A-89A8-C007DE8D74AF}
        IGNTEMPO 0 120 4 4
        SRCCOLOR 136117
        VELLANE -1 100 0
        VELLANE 10 100 0
        CFGEDITVIEW 0 20.240916 60 12 0 -1 0 0 0 0.5
        KEYSNAP 0
        TRACKSEL 283
        EVTFILTER 0 -1 -1 -1 -1 0 0 0 0 -1 -1 -1 -1 0 -1 0 -1 -1
        CFGEDIT 1 1 0 1 1 0 1 3 1 1 1 0.25 65 629 961 1651 0 0 1 0 0 0 0 1 0 0.5 1 0 1 64
      >
    >
    <ITEM
      POSITION 156.74126491988403
      SNAPOFFS 0
      LENGTH 73.56384495718015
      LOOP 0
      ALLTAKES 0
      FADEIN 1 0 0 1 0 0 0
      FADEOUT 1 0 0 1 0 0 0
      MUTE 0 0
      SEL 0
      IGUID {BDAADC97-6AE2-4728-9C5D-DED29E60EB98}
      IID 43
      NAME Exiled_(Coda)-glued
      VOLPAN 1 0 1 -1
      SOFFS 0 0
      PLAYRATE 1 1 0 -1 0 0.0025
      CHANMODE 0
      GUID {7ED2E153-8231-481C-8FF3-64F3273913A8}
      <SOURCE MIDI
        HASDATA 1 960 QN
        CCINTERP 32
        POOLEDEVTS {DE090630-397A-469E-BC7D-794B4ADB88B6}
        <X 0 0 0 0 3 "Marimba (Grand Staff)"
          /wNNYXJpbWJhIChHcmFuZCBTdGFmZik=
        >
        <X 0 0 0 0 3 Voice
          /wNWb2ljZQ==
        >
        <X 0 0
          /yEBAA==
        >
        <X 0 0
          /1kCBAA=
        >
        <X 0 0
          /yEBAA==
        >
        <X 0 0
          /1kCBAA=
        >
        <X 0 0
          /yEBAA==
        >
        E 0 b0 5b 00
        E 0 b0 5d 00
        E 0 b2 5b 00
        E 0 b2 5d 00
        E 0 b0 79 00
        E 0 b2 79 00
        E 480 92 3a 50
        E 478 92 3a 00
        E 2 92 3f 50
        E 478 92 3f 00
        E 2 92 41 50
        E 478 92 41 00
        E 2 92 44 50
        E 958 92 44 00
        E 2 92 48 50
        E 62 92 48 00
        E 2 92 44 50
        E 892 92 44 00
        E 484 92 46 50
        E 478 92 46 00
        E 2 92 44 50
        E 238 92 44 00
        E 2 92 42 50
        E 238 92 42 00
        E 2 92 41 50
        E 478 92 41 00
        E 2 92 41 50
        E 958 92 41 00
        E 2 92 3f 50
        E 1438 92 3f 00
        E 2 92 3d 50
        E 478 92 3d 00
        E 2 92 3d 50
        E 958 92 3d 00
        E 2 92 3d 50
        E 958 92 3d 00
        E 482 92 38 50
        E 478 92 38 00
        E 2 92 3a 50
        E 478 92 3a 00
        E 2 92 3c 50
        E 238 92 3c 00
        E 2 92 3d 50
        E 1198 92 3d 00
        E 482 92 3a 50
        E 478 92 3a 00
        E 2 92 3d 50
        E 478 92 3d 00
        E 2 92 41 50
        E 478 92 41 00
        E 2 92 44 50
        E 958 92 44 00
        E 2 92 44 50
        E 958 92 44 00
        E 482 92 46 50
        E 478 92 46 00
        E 2 92 44 50
        E 478 92 44 00
        E 2 92 42 50
        E 478 92 42 00
        E 2 92 41 50
        E 958 92 41 00
        E 2 92 3d 50
        E 958 92 3d 00
        E 482 92 3d 50
        E 478 92 3d 00
        E 2 92 3d 50
        E 958 92 3d 00
        E 2 92 3d 50
        E 958 92 3d 00
        E 482 92 38 50
        E 478 92 38 00
        E 2 92 3a 50
        E 478 92 3a 00
        E 2 92 3c 50
        E 238 92 3c 00
        E 2 92 3d 50
        E 1198 92 3d 00
        E 2402 92 3a 50
        E 478 92 3a 00
        E 2 92 3d 50
        E 478 92 3d 00
        E 2 92 41 50
        E 478 92 41 00
        E 2 92 44 50
        E 958 92 44 00
        E 2 92 48 50
        E 62 92 48 00
        E 2 92 44 50
        E 892 92 44 00
        E 484 92 46 50
        E 478 92 46 00
        E 2 92 44 50
        E 478 92 44 00
        E 2 92 42 50
        E 478 92 42 00
        E 2 92 41 50
        E 958 92 41 00
        E 2 92 3d 50
        E 958 92 3d 00
        E 2 92 42 50
        E 478 92 42 00
        E 2 92 44 50
        E 478 92 44 00
        E 2 92 47 50
        E 478 92 47 00
        E 2 92 49 50
        E 478 92 49 00
        E 2 92 4b 50
        E 2878 92 4b 00
        E 722 92 4a 50
        E 238 92 4a 00
        E 2 92 4a 50
        E 478 92 4a 00
        E 2 92 4a 50
        E 238 92 4a 00
        E 2 92 4a 50
        E 238 92 4a 00
        E 2 92 4a 50
        E 238 92 4a 00
        E 2 92 4a 50
        E 718 92 4a 00
        E 2 92 4a 50
        E 638 92 4a 00
        E 2 92 4a 50
        E 638 92 4a 00
        E 2 92 4a 50
        <X 4478 0
          /1kCBAA=
        >
        E 0 92 4a 00
        <X 2 0
          /1kCBAA=
        >
        <X 0 0
          /1kCBAA=
        >
        <X 0 0
          /1kCBAA=
        >
        E 0 b6 5b 00
        E 0 b6 5d 00
        E 0 b7 5b 00
        E 0 b7 5d 00
        E 0 b8 5b 00
        E 0 b8 5d 00
        E 0 90 44 50
        E 0 96 38 50
        E 116 90 44 00
        E 2 90 44 50
        E 116 90 44 00
        E 2 90 44 50
        E 116 90 44 00
        E 2 90 44 50
        E 116 90 44 00
        E 2 90 44 50
        E 116 90 44 00
        E 2 90 44 50
        E 116 90 44 00
        E 2 90 44 50
        E 116 90 44 00
        E 2 90 44 50
        E 116 90 44 00
        E 2 90 44 50
        E 116 90 44 00
        E 2 90 44 50
        E 116 90 44 00
        E 2 90 44 50
        E 116 90 44 00
        E 2 90 44 50
        E 116 90 44 00
        E 2 90 44 50
        E 116 90 44 00
        E 2 90 44 50
        E 116 90 44 00
        E 2 90 44 50
        E 116 90 44 00
        E 2 90 44 50
        E 116 90 44 00
        E 2 90 44 50
        E 116 90 44 00
        E 2 90 44 50
        E 116 90 44 00
        E 2 90 44 50
        E 116 90 44 00
        E 2 90 44 50
        E 116 90 44 00
        E 2 90 44 50
        E 116 90 44 00
        E 2 90 44 50
        E 116 90 44 00
        E 2 90 44 50
        E 116 90 44 00
        E 2 90 44 50
        E 116 90 44 00
        E 48 96 38 00
        E 2 90 46 50
        E 0 96 3a 50
        E 118 90 46 00
        E 2 90 46 50
        E 118 90 46 00
        E 2 90 46 50
        E 118 90 46 00
        E 2 90 46 50
        E 118 90 46 00
        E 2 90 46 50
        E 118 90 46 00
        E 2 90 46 50
        E 118 90 46 00
        E 2 90 46 50
        E 118 90 46 00
        E 2 90 46 50
        E 118 90 46 00
        E 0 96 3a 00
        E 2 90 41 50
        E 0 96 35 50
        E 116 90 41 00
        E 2 90 41 50
        E 116 90 41 00
        E 2 90 41 50
        E 116 90 41 00
        E 2 90 41 50
        E 116 90 41 00
        E 2 90 41 50
        E 116 90 41 00
        E 2 90 41 50
        E 116 90 41 00
        E 2 90 41 50
        E 116 90 41 00
        E 2 90 41 50
        E 116 90 41 00
        E 2 90 41 50
        E 116 90 41 00
        E 2 90 41 50
        E 116 90 41 00
        E 2 90 41 50
        E 116 90 41 00
        E 2 90 41 50
        E 116 90 41 00
        E 2 90 41 50
        E 116 90 41 00
        E 2 90 41 50
        E 116 90 41 00
        E 2 90 41 50
        E 116 90 41 00
        E 2 90 41 50
        E 116 90 41 00
        E 2 90 41 50
        E 116 90 41 00
        E 2 90 41 50
        E 116 90 41 00
        E 2 90 41 50
        E 116 90 41 00
        E 2 90 41 50
        E 116 90 41 00
        E 2 90 41 50
        E 116 90 41 00
        E 2 90 41 50
        E 116 90 41 00
        E 2 90 41 50
        E 116 90 41 00
        E 2 90 41 50
        E 116 90 41 00
        E 48 96 35 00
        E 2 90 3f 50
        E 0 96 33 50
        E 118 90 3f 00
        E 2 90 3f 50
        E 118 90 3f 00
        E 2 90 3f 50
        E 118 90 3f 00
        E 2 90 3f 50
        E 118 90 3f 00
        E 2 90 3f 50
        E 118 90 3f 00
        E 2 90 3f 50
        E 118 90 3f 00
        E 2 90 3f 50
        E 118 90 3f 00
        E 2 90 3f 50
        E 118 90 3f 00
        E 0 96 33 00
        E 2 90 3e 50
        E 0 96 32 50
        E 116 90 3e 00
        E 2 90 3e 50
        E 116 90 3e 00
        E 4 90 3e 50
        E 116 90 3e 00
        E 2 90 3e 50
        E 116 90 3e 00
        E 4 90 3e 50
        E 116 90 3e 00
        E 2 90 3e 50
        E 116 90 3e 00
        E 4 90 3e 50
        E 116 90 3e 00
        E 2 90 3e 50
        E 116 90 3e 00
        E 4 90 3e 50
        E 116 90 3e 00
        E 2 90 3e 50
        E 116 90 3e 00
        E 4 90 3e 50
        E 116 90 3e 00
        E 2 90 3e 50
        E 116 90 3e 00
        E 4 90 3e 50
        E 116 90 3e 00
        E 2 90 3e 50
        E 116 90 3e 00
        E 4 90 3e 50
        E 116 90 3e 00
        E 2 90 3e 50
        E 116 90 3e 00
        E 4 90 3e 50
        E 116 90 3e 00
        E 2 90 3e 50
        E 116 90 3e 00
        E 4 90 3e 50
        E 116 90 3e 00
        E 2 90 3e 50
        E 116 90 3e 00
        E 4 90 3e 50
        E 116 90 3e 00
        E 2 90 3e 50
        E 116 90 3e 00
        E 4 90 3e 50
        E 116 90 3e 00
        E 2 90 3e 50
        E 116 90 3e 00
        E 4 90 3e 50
        E 116 90 3e 00
        E 4 90 3e 50
        E 116 90 3e 00
        E 2 90 3e 50
        E 116 90 3e 00
        E 4 90 3e 50
        E 116 90 3e 00
        E 2 90 3e 50
        E 116 90 3e 00
        E 4 90 3e 50
        E 116 90 3e 00
        E 2 90 3e 50
        E 116 90 3e 00
        E 4 90 3e 50
        E 116 90 3e 00
        E 32 96 32 00
        E 2 90 37 50
        E 0 96 2b 50
        E 238 96 2b 00
        E 2 96 3c 50
        E 238 96 3c 00
        E 2 96 3a 50
        E 238 96 3a 00
        E 2 96 37 50
        E 238 96 37 00
        E 2 96 3a 50
        E 238 96 3a 00
        E 2 96 38 50
        E 238 96 38 00
        E 2 96 37 50
        E 238 96 37 00
        E 2 96 35 50
        E 238 96 35 00
        E 2 96 37 50
        E 238 96 37 00
        E 2 96 35 50
        E 238 96 35 00
        E 2 96 32 50
        E 238 96 32 00
        E 2 96 30 50
        E 238 90 37 00
        E 0 96 30 00
        E 2 90 35 50
        E 0 96 29 50
        E 238 96 29 00
        E 2 96 30 50
        E 238 96 30 00
        E 2 96 2e 50
        E 238 96 2e 00
        E 2 96 2b 50
        E 238 90 35 00
        E 0 96 2b 00
        E 2 96 26 50
        E 15 90 32 50
        E 238 90 32 00
        E 2 90 32 50
        E 238 90 32 00
        E 2 90 32 50
        E 238 90 32 00
        E 2 90 32 50
        E 223 96 26 00
        E 15 90 32 00
        E 227 96 26 50
        E 15 90 32 50
        E 58 90 32 00
        E 2 90 32 50
        E 58 90 32 00
        E 2 90 32 50
        E 58 90 32 00
        E 2 90 32 50
        E 43 96 26 00
        E 15 90 32 00
        E 467 96 26 50
        E 15 90 32 50
        E 238 90 32 00
        E 2 90 32 50
        E 238 90 32 00
        E 2 90 32 50
        E 238 90 32 00
        E 2 90 32 50
        E 223 96 26 00
        E 15 90 32 00
        E 227 96 26 50
        E 15 90 32 50
        E 58 90 32 00
        E 2 90 32 50
        E 58 90 32 00
        E 2 90 32 50
        E 58 90 32 00
        E 2 90 32 50
        E 43 96 26 00
        E 15 90 32 00
        E 467 96 26 50
        E 15 90 32 50
        E 238 90 32 00
        E 2 90 32 50
        E 238 90 32 00
        E 2 90 32 50
        E 238 90 32 00
        E 2 90 32 50
        E 223 96 26 00
        E 15 90 32 00
        E 227 96 26 50
        E 15 90 32 50
        E 58 90 32 00
        E 2 90 32 50
        E 58 90 32 00
        E 2 90 32 50
        E 58 90 32 00
        E 2 90 32 50
        E 43 96 26 00
        E 15 90 32 00
        E 467 96 26 50
        E 15 90 32 50
        E 238 90 32 00
        E 2 90 32 50
        E 238 90 32 00
        E 2 90 32 50
        E 238 90 32 00
        E 2 90 32 50
        E 223 96 26 00
        E 15 90 32 00
        E 227 96 26 50
        E 15 90 32 50
        E 58 90 32 00
        E 2 90 32 50
        E 58 90 32 00
        E 2 90 32 50
        E 58 90 32 00
        E 2 90 32 50
        E 43 96 26 00
        E 15 90 32 00
        E 482 b0 7b 00
        CCINTERP 32
        CHASE_CC_TAKEOFFS 1
        GUID {ABD0482A-4C43-4CD6-B776-6C055AF0F0F6}
        IGNTEMPO 0 120 4 4
        SRCCOLOR 131539
        VELLANE -1 100 0
        VELLANE 93 100 0
      >
    >
    <ITEM
      POSITION 230.28965691984487
      SNAPOFFS 0
      LENGTH 15.48387199999172
      LOOP 0
      ALLTAKES 0
      FADEIN 1 0 0 1 0 0 0
      FADEOUT 1 0 0 1 0 0 0
      MUTE 0 0
      SEL 0
      IGUID {4D21851C-46C2-47B7-ABF2-6325687EB872}
      IID 2228
      NAME Exiled-glued
      VOLPAN 1 0 1 -1
      SOFFS 0 0
      PLAYRATE 1 1 0 -1 0 0.0025
      CHANMODE 0
      GUID {5A9E929C-8F12-4A34-AFCF-647FCD4DAE75}
      <SOURCE MIDI
        HASDATA 1 960 QN
        CCINTERP 32
        POOLEDEVTS {2349D730-504D-4881-8515-A942F383457C}
        E 15360 b0 7b 00
        CCINTERP 32
        CHASE_CC_TAKEOFFS 1
        GUID {94300709-391D-4655-BE95-080A128373BC}
        IGNTEMPO 0 120 4 4
        SRCCOLOR 136120
        VELLANE 132 100 0
        VELLANE -1 100 0
        CFGEDITVIEW 0 11.057659 49 12 0 -1 0 0 0 0.5
        KEYSNAP 0
        TRACKSEL 269
        EVTFILTER 0 -1 -1 -1 -1 0 0 0 0 -1 -1 -1 -1 0 -1 0 -1 -1
        CFGEDIT 1 1 0 1 1 0 1 3 1 1 1 0.25 580 733 1492 1771 0 0 1 0 0 0 0 0 0 0.5 1 0 1 64
      >
    >
    <ITEM
      POSITION 230.28965691984487
      SNAPOFFS 0
      LENGTH 15.48386167750198
      LOOP 0
      ALLTAKES 0
      FADEIN 1 0 0 1 0 0 0
      FADEOUT 1 0 0 1 0 0 0
      MUTE 0 0
      SEL 0
      IGUID {5079F338-8FA9-4315-8A05-904A1CF61E2C}
      IID 2226
      NAME Exiled-glued
      VOLPAN 1 0 1 -1
      SOFFS 0 0
      PLAYRATE 1 1 0 -1 0 0.0025
      CHANMODE 0
      GUID {B2B1B283-EA83-491B-A1BF-5DD60E3F5F35}
      <SOURCE MIDI
        HASDATA 1 960 QN
        CCINTERP 32
        POOLEDEVTS {B9DACB93-959E-4972-A25E-F9E4D6748EA8}
        e 0 b0 07 64
        e 0 b0 0a 40
        e 0 b0 5b 00
        e 0 b0 5d 00
        e 0 90 4d 32
        e 150 90 4d 00
        e 10 90 4f 32
        e 188 90 4f 00
        e 12 90 43 32
        e 112 90 43 00
        e 8 90 45 32
        e 112 90 45 00
        e 8 90 48 32
        e 112 90 48 00
        e 8 90 45 32
        e 112 90 45 00
        e 8 90 48 32
        e 112 90 48 00
        e 8 90 4a 28
        e 112 90 4a 00
        e 8 90 4f 32
        e 112 90 4f 00
        e 8 90 4a 32
        e 112 90 4a 00
        e 8 90 4f 32
        e 112 90 4f 00
        e 8 90 48 28
        e 112 90 48 00
        e 8 90 48 32
        e 58 90 48 00
        e 62 90 48 28
        e 58 90 48 00
        e 62 90 48 32
        e 58 90 48 00
        e 62 90 47 32
        e 112 90 47 00
        e 8 90 4a 32
        e 112 90 4a 00
        e 8 90 47 32
        e 112 90 47 00
        e 8 90 4a 32
        e 112 90 4a 00
        e 8 90 4a 32
        e 112 90 4a 00
        e 8 90 47 32
        e 112 90 47 00
        e 8 90 4a 32
        e 112 90 4a 00
        e 8 90 47 32
        e 112 90 47 00
        e 8 90 4a 32
        e 454 90 4a 00
        e 26 90 4f 32
        e 454 90 4f 00
        e 26 90 4d 32
        e 150 90 4d 00
        e 10 90 4f 32
        e 188 90 4f 00
        e 12 90 43 32
        e 112 90 43 00
        e 8 90 45 32
        e 112 90 45 00
        e 8 90 48 32
        e 112 90 48 00
        e 8 90 45 32
        e 112 90 45 00
        e 8 90 48 32
        e 112 90 48 00
        e 8 90 4a 28
        e 112 90 4a 00
        e 8 90 4f 32
        e 112 90 4f 00
        e 8 90 4a 32
        e 112 90 4a 00
        e 8 90 4f 32
        e 112 90 4f 00
        e 8 90 48 28
        e 112 90 48 00
        e 8 90 48 32
        e 58 90 48 00
        e 62 90 48 28
        e 58 90 48 00
        e 62 90 48 32
        e 58 90 48 00
        e 62 90 47 32
        e 112 90 47 00
        e 8 90 4a 32
        e 112 90 4a 00
        e 8 90 47 32
        e 112 90 47 00
        e 8 90 4a 32
        e 112 90 4a 00
        e 8 90 4a 32
        e 112 90 4a 00
        e 8 90 47 32
        e 112 90 47 00
        e 8 90 4a 32
        e 112 90 4a 00
        e 8 90 47 32
        e 112 90 47 00
        e 8 90 4a 32
        e 454 90 4a 00
        e 26 90 4f 32
        e 454 90 4f 00
        e 26 90 4d 32
        e 226 90 4d 00
        e 14 90 4a 32
        e 226 90 4a 00
        e 14 90 4a 32
        e 454 90 4a 00
        e 26 90 45 32
        e 112 90 45 00
        e 8 90 45 32
        e 58 90 45 00
        e 62 90 45 32
        e 58 90 45 00
        e 62 90 45 32
        e 58 90 45 00
        e 62 90 4d 32
        e 226 90 4d 00
        e 14 90 4d 32
        e 226 90 4d 00
        e 14 90 47 32
        e 150 90 47 00
        e 10 90 4f 32
        e 150 90 4f 00
        e 10 90 45 32
        e 150 90 45 00
        e 10 90 4a 32
        e 150 90 4a 00
        e 10 90 45 32
        e 150 90 45 00
        e 10 90 47 32
        e 150 90 47 00
        e 10 90 47 32
        e 226 90 47 00
        e 14 90 43 32
        e 226 90 43 00
        e 14 90 4a 32
        e 454 90 4a 00
        e 26 90 4d 32
        e 226 90 4d 00
        e 14 90 4a 32
        e 226 90 4a 00
        e 14 90 4a 32
        e 454 90 4a 00
        e 26 90 45 32
        e 112 90 45 00
        e 8 90 45 32
        e 58 90 45 00
        e 62 90 45 32
        e 58 90 45 00
        e 62 90 45 32
        e 58 90 45 00
        e 62 90 4d 32
        e 226 90 4d 00
        e 14 90 4d 32
        e 226 90 4d 00
        e 14 90 47 32
        e 150 90 47 00
        e 10 90 4f 32
        e 150 90 4f 00
        e 10 90 45 32
        e 150 90 45 00
        e 10 90 4a 32
        e 150 90 4a 00
        e 10 90 45 32
        e 150 90 45 00
        e 10 90 47 32
        e 150 90 47 00
        e 10 90 47 32
        e 226 90 47 00
        e 14 90 43 32
        e 226 90 43 00
        e 14 90 4a 32
        e 454 90 4a 00
        E 26 b0 7b 00
        CCINTERP 32
        CHASE_CC_TAKEOFFS 1
        GUID {D1C38685-50F8-47BA-BAC8-73021C322B8A}
        IGNTEMPO 0 120 4 4
        SRCCOLOR 136121
        VELLANE 132 100 0
        VELLANE -1 100 0
        CFGEDITVIEW 0 11.653295 48 12 0 -1 0 0 0 0.5
        KEYSNAP 0
        TRACKSEL 187
        EVTFILTER 0 -1 -1 -1 -1 0 0 0 0 -1 -1 -1 -1 0 -1 0 -1 -1
        CFGEDIT 1 1 0 1 1 0 1 2 1 1 1 0.25 814 690 1532 1424 0 0 1 2 0 0 0 1 0 0.2 1 0 1 64
      >
    >
  >
  <TRACK {DBEBC484-EB16-4C7B-92B7-E13F3A8224E8}
    NAME "perc long"
    PEAKCOL 27852793
    BEAT -1
    AUTOMODE 0
    VOLPAN 1 1 -1 -1 1
    MUTESOLO 0 0 0
    IPHASE 0
    PLAYOFFS 0 1
    ISBUS 0 0
    BUSCOMP 0 0 0 0 0
    SHOWINMIX 1 0.6667 0.5 1 0.5 -1 -1 -1
    SEL 0
    REC 0 4096 1 0 0 0 0
    VU 2
    TRACKHEIGHT 0 0 0 0 0 0
    INQ 0 0 0 0.5 100 0 0 100
    NCHAN 2
    FX 1
    TRACKID {DBEBC484-EB16-4C7B-92B7-E13F3A8224E8}
    PERF 0
    MIDIOUT -1
    MAINSEND 1 0
    <VOLENV2
      EGUID {FA7C4EDF-7031-48C1-A932-B1BB8AC9C25E}
      ACT 1 -1
      VIS 1 1 1
      LANEHEIGHT 0 0
      ARM 1
      DEFSHAPE 0 -1 -1
      VOLTYPE 1
      PT 0 0.1682993 0
    >
    <FXCHAIN
      WNDRECT 347 171 1071 831
      SHOW 0
      LASTSEL 0
      DOCKED 0
      BYPASS 0 0 0
      <VST "VSTi: Absynth 5 (Native Instruments GmbH)" "Absynth 5 Stereo.dll" 0 "" 1131179320<565354436C6D38616273796E74682035> ""
        OG1sQ+5e7f4CAAAAAQAAAAAAAAACAAAAAAAAAAIAAAABAAAAAAAAAAIAAAAAAAAAWxUAAAEAAAAAABAA
        WxUAAAAAAAABAAAAaHNpbgEAAAAAAAAADNSXhly5zEOyI5MAnbtkp5YAAAAAAAAARFNJTnYAAAABAAAASAAAAAAAAABEU0lOagAAAAEAAAAYAAAAAAAAAERTSU4BAAAA
        AQAAAAEAAAABAAAAAQAAAAEAAAAAAAAAAAAAAAAAAAANYmWFAQAAAA5wEAAAAAAAAQAAAAEAAAAAAAAAAAAAAAAAAAADAAAAMAAwADAAAAAAAAAAAAAAAAAAAAAAAAEA
        AAABAAAAAAAAAERTSU5lAAAAiRQAAAAAAAABAAAAaHNpbgEAAAAAAAAAanJtEGImREOpLqPe6hOHs2cAAAAAAAAARFNJTmUAAAABAAAANAAAAAAAAABEU0lOagAAAAEA
        AAAYAAAAAAAAAERTSU4BAAAAAQAAAAEAAAABAAAAAgAAAAEAAAAABgAAAAEAAAAHAAAANQAuADAALgAwAC4AMAABAAAAAwAAAAAAAABEU0lObAAAALIBAAAAAAAAAQAA
        AGhzaW4BAAAAAAAAAEKFExlb5ZVOpENv1gYlhWaCAQAAAAAAAERTSU5sAAAAAQAAABgAAAAAAAAARFNJTgEAAAABAAAAAQAAAAEAAAACAAAAAQAAAAAAAAAOAAAAVQBu
        AHQAaQB0AGwAZQBkACAAUwBvAHUAbgBkAAAAAAAAAAAAAAAAAAAAAAAAAAAAAAAAAAAAAAAAAAAAAAAAAAAAAAABAAAAAQAAAAEAAAAHAAAAQQBiAHMAeQBuAHQAaAAA
        AAAAAAAAAAcAAAAHAAAAXABAAGMAbwBsAG8AcgABAAAAMAARAAAAXABAAGQAZQB2AGkAYwBlAHQAeQBwAGUAZgBsAGEAZwBzAAEAAAAxAAsAAABcAEAAcwBvAHUAbgBk
        AHQAeQBwAGUAAQAAADAABwAAAFwAQAB0AGUAbQBwAG8AAQAAADAABgAAAFwAQAB2AGUAcgBsAAYAAAAxAC4ANwAuADEANAAGAAAAXABAAHYAZQByAG0ABgAAADEALgA3
        AC4AMQA0AAcAAABcAEAAdgBpAHMAaQBiAAEAAAAwAAEAAAAAAAAAAgAAAERTSU55AAAAaAAAAAAAAAABAAAAaHNpbgEAAAAAAAAARunc6wuWMkeBq42ZoYuWRDgAAAAA
        AAAARFNJTnkAAAABAAAAGAAAAAAAAABEU0lOAQAAAAEAAAABAAAAAQAAAAEAAAAAAAAAAQAAAAAAAAABAAAARFNJTnQAAAC0EQAAAAAAAAEAAABoc2luAQAAAAAAAAC4
        Mb68F5gVSIUKXh5S4dZ8hBEAAAAAAABEU0lOdAAAAAEAAABrEQAAAAAAAERTSU5zAAAAAQAAABgAAAAAAAAARFNJTgEAAAABAAAAAQAAAAEAAAABw0UAADIRAAACw0UA
        YAAAASAFA2hzaW5AB0AAEAcORjrk8KJOuWzVLgJm3/wYQBQgAANEU0lOQCPgBwNAAEAbAG0gCAFvRSAEIABAI+ADUxCuZnYUZKycR4Ges7CW6DR4P6AnwDdAL+AXZ0Aj
        AfdEIFwgAAADIAMAuqALB3RzcnBtYUxjIBIRACASAAA0Y3RwggAAACAPb+kAIAAIBACAP8kDgD8AIAcCAAAAQAMEAICI9UAgBQNAAwIAoAAPXkBVbnRpdGxlZCBTb3Vu
        ZKAW4AQACwEAXYgBANVtAQC2uCALABwgHEBNwAPgDAAEZkliTBAgGQK/znZgjeADAAQ0Y3NvoCAQBhoSb+nud6MgkUAAQKXAAwEAAKAXBT+D+SJDAGAX4BEAQSFAA0AA
        AAEgqcAAwAmAB0BbgLOA/EAPA4A/BABAAACAIZeADwIbL30g14ALAAAgAOA/q4CDgADAC0CrA83MTD1AFeAAE0AMYH/gcauBH4AAgI8gByFX4EOrBDE1ZG0oIFwE4I4t
        ugDiAAPAAAGAPyAaBAAOAKNAIvEhhwDwIgMEwEFddEggB0APAYA+IAMgF+ADA+AHAARIQuf7SSAjBvpFAACgQQDgBCsBSEIgV0AAIB9AQ4AAAs3MzCGLwA+ABwKamZkg
        a2AbYAcGAECcRWZmZiA3QFMgAAIcH9ogBSAABNxDMzNzIBcFAAAK1yM8IAbgBQALs2euAgDkPwMA3DoAIFui3yAACYA/MzOzPgEvPOBACwAAIAAC8wQ1IAeACwAAYAcF
        QD8BVggJ4QczQSNAAIAH4f0z4RczAAAgAIEvQADh/TPhFzNBL8ADAADh/TPhGDMAACAA5QFH4v1n4htnQTNCawAA4f0z4RgzQS+myyAA4v1n4hdnAAAgAEEz4v1n4g1n
        A25yR2ZJnwHlOku/gTMABiE3QTMABaJnAAGgF+ABACizBeCrRgAAIClvQAAgD2ADAPDpBG8pHylnaVMgB0AjQACAB+kYb6An6RdvAAHJn2njSecgAAGIs2H7AgAA0CCX
        QAAA4GpngABKU+AXAICjAADpCp8AACmfAzRyU2ZNzeEDMyAAoGtgOw1AIDRjY3wAAABAYPUWACrTBIwuuj0KYCMBgD9ACwQAAABAB2FXgA8BAQBAyyPXIVcAASFXAAEg
        DwAAIA9AKwABIVdADyADAT8BoBNAGwYBAMw92YkdIAtAAEB3gANEKwVBAMw+BQAs1wUxZ2MMGwBuLUEUQANNrwAAICsEFQAAAH8gAwAAIAsAAOAXACC/IMjgIS8gUwEX
        AOAjL48h4CCPIAAAGSAD4CMvABrgIy8CdX2VITbgIV8CEMdTTzDgII8gXwAd4CZfAB7gIy8gXwAf4CMvIL8AIOAjLyBfAAHgAi8HTW9kd2hlZWwgEuAMAAABIF8ACyAZ
        wR8NQ2hhbm5lbCBWb2x1bWUgGOAGAAABIF8jL2KvCgQCAT9QYW4gTFIA4BAAQF8AFCAdQsgD+Pv9PkAvAUZCIBDgDgAADqAXADQgB44PQAAjBy2/AAAgAAAPIANAAAA1
        IATgBB9tvwIAAA0gA0AAQWPgBB8kH0AXQB9BH+AIH6BfQB9Dp+AIH6BfAP8gAEBHIAYA/6BfINogn6BfIBbgDR+gXyAe4A0f4DdfAXy/IIfgEl+gACB+4A1/4AIXQCog
        DuAF3wBwUZeAFyAG4AkfoAAgNuANH+AXnwEFQ2BDID7gDT8B2i7gFR8BJxjgFR8Bf/5wPyBe4A1fAf7I4BUfAY6Q4BUfAfwr4BUfASNRZg8gfuANfwKPiL1BQiAe4A0f
        Avs7vuAUHwGNmOAVHwH+0OAVHwI/A7/gFF8BJxzgFR8B2TLgFR8BBUfgFR8BXljgFR8Bp2bgFR8BqnHgFR8BP3ngFR8BS33gFR8ANeAWHwFwc+AVPwHwXuAVHwGjQOAV
        HwHmGeAVHwHz2OEV3wGwaeAVHwL5v7zhFP8BsTniFd8B9MDgFR8B5g3jFZ8BozTgFR8B8VLgFR8BcGfgFR8BNXHgFR8B/fnhFR8BhAfhFX8BthHgFR8BjxvgFR8BByXg
        FR8BGi7gFR8BwTbgFR8B+D7gFR8BuUbgFR8B/03gFR8BxlTgFR8BClvgFR8Bx2BgHwCBQoQgAEejh18nW0ADAfll4AAfQBtAA+AEHwGeauAAH0e/4AgfAbJu4AAfQAAA
        ByAE4AQ/ATJy4AAfQDvgCB8BHXXgAB9AX+AIHwFxd+AAH0AASGzgBF8BLXngAB9AX+AIHwFPeuAAH0Bf4AgfANbgAR9Ae+AIHwDDgB8mPuYNPwEAciAD4JIfAbptYP8g
        vuANvwGCaeAVHwG6ZOAVHwFlX+AVHwGGWeAVHwEhU+AVHwE5TOAVHwHUROAVHwH1POAVHwGiNOAVHwHfK+AVHwGzIuAVHwAi5hZfATIP4BU/AeoE4BUfAaL05RVfAdfe
        4BUfAYPI4BUfAbSx4BUfAXea4BUfAduC4BUfAdxV4BUfAX4l4BUfAXTp6RXfAVyH4BUfAcWT5xWfoAAjPuMNP6AAIB7gDR/rV9+gACB+4A1/4AIXQCogDuwFf0YDIAAg
        FuAOH4AAIB7gDR/sF3/gAjdASSAO4AV/IA/AF8AHhd+t/+BXnwEA1+IVXwEACOMVf6AAIMbgDr+AACAe4A0fAYJO4BVf4AI3QEkgDuEFHyAPwBfAB+FkP+AXf+AXH+FX
        3+AXf+AXH+D9n+CRnwEAi+0VHwEAiOAWH4AAIgbjDj+AACAe4A0fAM6XXyAe4A0foAAgHuANH+ACF0AqIA7jZb+gACB24A1/4AIXQCogDuBlnwD+QHWAdyAG4Al/II8g
        FkAG4AAH5GT/ARGP4AB3IIZgh+AEf+AClyAeQA7gBR/kV18BTIrgAHcAACAAIH7gBX8gDyAWQAbgAAfgBL/gV58BvIPgAHcAACAAIIbgBX8gDyAWQAbgAAfgZJ8Bxn3g
        AHcghmCH4AR/4AKXIB5ADuAFH+FXPwGZ9+AAdwAAIAAgfuAFfyAPIBYFADR1R2MELyBbn1sPIArgAABAC+ADA08nQA9AB0AD3lNAB0ADAAQgOUAfQAdAA1t3QA9AB0AD
        3U9AB0ADT1dAH0AHQAMACKA/QAdAA09zQB9AB0ADWQdAD0AHQANZR0APQAdAAwAMoD9AB0ADWFtAH0AHQANY60C3QAdAA1jbQB9AB0ADQP8ENGRNYYAgR0EPQBsAAGGn
        CIA+zcxMPfMENSG3gAAhPmE/AADgUh8ENG9mbDAghOAHi1krQAAgGoADIIuAC10LAoA+ASCrAAEgqwABIB9BV0AAQAsAAeAKHwABIBzAP0FjQADgAz/gAx9gCyAgQAMA
        MyAHQABAC+ADAOAHD0AAQBPgBwPAAABIYAhSc0AAQAfgAwPgBwBAG2AAZ7vgBQAA4KGbfusAP+EDOwAAYABAO+G9O0FLQADh/TvhJTtD/0AA4U87BDE0bmVkJPxDs0UT
        AAEidyADAj4BAOABAECDAAEkQYARgB8CAABMOq9Co0AAQAcEgD9QcUmi0wQAAJqZmSAj4BEAgF9AN0AAQAdAA8AX4BEAB2gtqT5OffNAQCEC1n2C4ARjJFZgAEAbQ1cE
        sHJoke2P1yDTgFsApLDHgAAKgD+zIJwM5BoAQQAgAAJyF3HgIE9BK0AA4AdPQGdAAMAHQACBPwHHU0ATQAMAAiB3QBcAAOAEB4ATQB9AAOEXPwACQCSgMwAAYAeAP0AA
        AAHgAgvgDAABkHshP2AvoIeAAGE8IACADeEFP4AT4AnvIBIDAICI1eAoTwEBAECn4BNPYABgX8AAIJpgAIAP4AWfYY8AUuAJT0BjQAADARDHU0AHQAACAgD9It8BbiBA
        G0ADgUtAAIDPAABgB4ALwBvhF49gf6AzAABgB4A/YAACzMw9QGcAAEATAVYIxrbgAQDhgI8BgD/iB89ApIHfYABgD8AAYYwgAIAP4QqPIADgB08EcnNkYSAgF0RvAAAg
        AAD+oD/gCwcDZ3JUYUkXJJ5gAAA8IAUH8wS1PmRuRXAgCgkAIBIAAGVudXQ0ICADIA9v6eEArOAAAA0oQGxhY1N1VCBhZ25pbuAAFuACAB8pc5Zvu0zIP1vajyaH0ck/
        jkGJ3VJWyz/KI07s4CjNPx/0D3xL6l/OPxuiuZ8nM9A/LG+33MC00D9f1rCTjDnSPx+RPapKWL7TP6IKqIfxP9Q/w6SjASRD1T/2C52478fWP4BfANigXwDZoF8A26Bf
        AN2gXwDeoF8A4KBfAOCgXwDioF8A46BfAOSgXwDloF8A5qBfAOigXwDpoF8A66BfAO2gXwDuoF8A8KBfAPCgXwDyoF8A86BfAPSgXwD1oF8A9qBfAPigXwD5oF8A+6Bf
        AP2gXwD+oF8BAECBHwEAQIEfAQJAgR8BA0CBHwEEQIEfAQVAgR8BBkCBHwEIQIF/AQlAgX8BC0CBfwENQIF/AQ5AgX8AEKBfABCgXwASoF8AE6BfABSgXwAVoF8AFqBf
        ABigXwAZoF8AG6BfAB2gXwAeoF8AIKBfACCgXwAioF8AI6BfACSgXwAloF8AJqBfACigXwApoF8AK6BfAC2gXwAuoF8AMKBfADCgXwAyoF8AM6BfADSgXwA1oF8ANqBf
        ADigXwA5oF8AO6BfAD2gXwA+oF8AQKBfAECgXwBCoF8AQ6BfAESgXwBFoF8ARqBfAEigXwBJoF8AS6BfAE2gXwBOoF8AUKBfAFCgXwBSoF8AU6BfAFSgXwBVoF8AVqBf
        AFigXwBZoF8AW6BfAF2gXwBeoF8AYKBfAGCgXwBioF8AY6BfAGSgXwBloF8AZqBfAGigXwBpoF8Aa6BfAG2gXwBuoF8AcKBfAHCgXwFyQOQDPwABxezgAADk/T/k/T/k
        /T/kBz8HJiGygXJ6wz6Fv+T1PwAC5Co/BIX67UG76P1/6P1/6P1/6Ox/AAMkPwABKHtM84AADChAd2VuZHkganVzdFyAEuAGAAh38VHH+MbHP44u3x9oQ8k/pi884Ne/
        yj+P7vu7XYjMP9VtJvm2uM0/XRwf2gT1s88/Ai5/H8tY0D8ZdX2VOtXRPzGU8iGqUdM/BFzrPXrQ0z9Is2euCxnO1D9g0tw6iUrWP4BfANegXwDZoF8A2qBfANygXwDd
        oF8A36BfAOCgXwDhoF8A46BfAOOgXwDkoF8A5qBfAOegXwDpoF8A6qBfAOygXwDtoF8A76BfAPCgXwDxoF8A86BfAPOgXwD0oF8A9qBfAPegXwD5oF8A+qBfAPygXwD9
        oF8A/6BfAQBAgR8BAUCBHwEDQIEfAgNASGEfAQRAgR8BBkCBHwEHQIF/AQlAgX8BCkCBfwEMQIF/AQ1AgX8BD0CBfwAQoF8AEaBfABOgXwAToF8AFKBfABagXwAXoF8A
        GaBfABqgXwAcoF8AHaBfAB+gXwAgoF8AIaBfACOgXwAjoF8AJKBfACagXwAnoF8AKaBfACqgXwAsoF8ALaBfAC+gXwAwoF8AMaBfADOgXwAzoF8ANKBfADagXwA3oF8A
        OaBfADqgXwA8oF8APaBfAD+gXwBAoF8AQaBfAEOgXwBDoF8ARKBfAEagXwBHoF8ASaBfAEqgXwBMoF8ATaBfAE+gXwBQoF8AUaBfAFOgXwBToF8AVKBfAFagXwBXoF8A
        WaBfAFqgXwBcoF8AXaBfAF+gXwBgoF8AYaBfAGOgXwBjoF8AZKBfAGagXwBnoF8AaaBfAGqgXwBsoF8AbaBfAG+gXwBwoF8FcUA0NElwM3ww+gGcvoy/8gLzAABAF5Kb
        MSL6ANPZY0AbBwAAoEIAAEDBMYYF/2xpYXQAIAAEmIsTABEgB0AAA2tuYWKAJ4AAWmtgTEAAB2dwdGNZVE1FQAsLDWJlhQEAAAAAAAAAAQAAAAABAAAAAAAAAA==
        ADxkaXNhYmxlZD4AEAAAAA==
      >
      PRESETNAME <disabled>
      FLOATPOS 0 0 0 0
      FXID {762AF519-94EF-43D1-8638-2DFFF0D48E57}
      WAK 0 0
    >
    <ITEM
      POSITION 0
      SNAPOFFS 0
      LENGTH 156.95057114887956
      LOOP 0
      ALLTAKES 0
      FADEIN 1 0 0 1 0 0 0
      FADEOUT 1 0 0 1 0 0 0
      MUTE 0 0
      SEL 0
      IGUID {F28C9076-0910-4EA6-83DB-2A31B20A217F}
      IID 1605
      NAME Exiled-glued
      VOLPAN 1 0 1 -1
      SOFFS 0 0
      PLAYRATE 1 1 0 -1 0 0.0025
      CHANMODE 0
      GUID {E74B36AF-A8AB-4930-A15D-43C9F857C3D1}
      <SOURCE MIDI
        HASDATA 1 960 QN
        CCINTERP 32
        POOLEDEVTS {1EB9D080-9D37-465D-A602-3636358C5192}
        E 0 b0 07 64
        E 0 b0 0a 40
        E 0 b0 5b 00
        E 0 b0 5d 00
        E 0 b1 79 00
        E 42240 90 45 50
        E 1438 90 45 00
        E 2 90 45 50
        E 1438 90 45 00
        E 2 90 45 50
        E 478 90 45 00
        E 2 90 45 50
        E 1920 90 45 00
        E 0 90 45 50
        E 960 90 45 00
        E 480 90 45 50
        E 240 90 45 00
        E 0 90 40 50
        E 480 90 40 00
        E 0 90 40 50
        E 240 80 40 00
        E 0 90 45 50
        E 238 90 45 00
        E 242 90 45 50
        E 238 90 45 00
        E 242 90 45 50
        E 238 90 45 00
        E 242 90 45 50
        E 718 90 45 00
        E 242 90 45 50
        E 240 90 45 00
        E 720 90 45 50
        E 238 90 45 00
        E 2 90 45 50
        E 238 90 45 00
        E 6722 90 45 50
        E 478 90 45 00
        E 2 90 47 50
        E 478 90 47 00
        E 2 90 4c 50
        E 1438 90 4c 00
        E 2 90 4c 50
        E 478 90 4c 00
        E 962 90 4a 50
        E 958 90 4a 00
        E 2 90 45 50
        E 1438 90 45 00
        E 2 90 45 50
        E 478 90 45 00
        E 962 90 45 50
        E 478 90 45 00
        E 2 90 45 50
        E 478 90 45 00
        E 6722 90 45 50
        E 478 90 45 00
        E 2 90 45 50
        E 478 90 45 00
        E 2 90 4c 50
        E 1438 90 4c 00
        E 2 90 4c 50
        E 478 90 4c 00
        E 962 90 4a 50
        E 478 90 4a 00
        E 482 90 45 50
        E 1438 90 45 00
        E 2 90 45 50
        E 478 90 45 00
        E 482 90 47 50
        E 478 90 47 00
        E 2 90 48 50
        E 478 90 48 00
        E 2 90 45 50
        E 1918 90 45 00
        E 2 90 45 50
        E 1918 90 45 00
        E 962 90 3e 50
        E 478 90 3e 00
        E 2 90 45 50
        E 238 90 45 00
        E 2 90 45 50
        E 238 90 45 00
        E 2 90 45 50
        E 958 90 45 00
        E 482 90 45 50
        E 238 90 45 00
        E 2 90 45 50
        E 238 90 45 00
        E 2 90 3e 50
        E 958 90 3e 00
        E 2 90 45 50
        E 1918 90 45 00
        E 28322 90 47 60
        E 960 80 47 00
        E 0 90 4a 60
        E 960 80 4a 00
        E 0 90 47 60
        E 960 80 47 00
        E 0 90 43 60
        E 960 80 43 00
        E 0 90 41 60
        E 240 80 41 00
        E 0 90 3f 60
        E 1680 80 3f 00
        E 240 90 3d 60
        E 720 80 3d 00
        E 240 90 3b 60
        E 720 80 3b 00
        E 0 90 3e 60
        E 3840 80 3e 00
        E 0 90 47 60
        E 960 80 47 00
        E 0 90 4a 60
        E 960 80 4a 00
        E 0 90 47 60
        E 960 80 47 00
        E 0 90 43 60
        E 960 80 43 00
        E 0 90 41 60
        E 240 80 41 00
        E 0 90 3f 60
        E 1680 80 3f 00
        E 240 90 3d 60
        E 720 80 3d 00
        E 240 90 3b 60
        E 720 80 3b 00
        E 0 90 3e 60
        E 3840 80 3e 00
        E 240 90 3e 60
        E 240 80 3e 00
        E 0 90 40 60
        E 240 80 40 00
        E 0 90 41 60
        E 240 80 41 00
        E 0 90 44 60
        E 2880 80 44 00
        E 0 90 43 5d
        E 240 80 43 00
        E 0 90 44 60
        E 240 80 44 00
        E 0 90 43 57
        E 240 80 43 00
        E 0 90 41 60
        E 240 80 41 00
        E 0 90 43 60
        E 2400 80 43 00
        E 0 90 3e 60
        E 240 80 3e 00
        E 0 90 3e 60
        E 240 80 3e 00
        E 0 90 3e 60
        E 480 80 3e 00
        E 0 90 3e 60
        E 240 80 3e 00
        E 0 90 3e 60
        E 240 80 3e 00
        E 0 90 3e 60
        E 240 80 3e 00
        E 0 90 3e 60
        E 720 80 3e 00
        E 0 90 3e 60
        E 720 80 3e 00
        E 0 90 3e 60
        E 480 80 3e 00
        E 240 90 3e 60
        E 480 80 3e 00
        E 3840 b0 7b 00
        CCINTERP 32
        CHASE_CC_TAKEOFFS 1
        GUID {91B792A7-0B1D-4430-8236-F05CD7D5FABE}
        IGNTEMPO 0 120 4 4
        SRCCOLOR 19843
        VELLANE 132 100 0
        VELLANE -1 100 0
        CFGEDITVIEW 174298.551753 11.057659 49 12 0 -1 0 0 0 0.5
        KEYSNAP 1
        TRACKSEL 269
        EVTFILTER 0 -1 -1 -1 -1 0 0 0 0 -1 -1 -1 -1 0 -1 0 -1 -1
        CFGEDIT 1 1 0 1 1 0 1 3 1 1 1 0.25 580 733 1492 1771 0 0 1 0 0 0 0 0 0 0.5 0 0 1 64
      >
    >
    <ITEM
      POSITION 104.79069377100444
      SNAPOFFS 0
      LENGTH 51.95057114887956
      LOOP 0
      ALLTAKES 0
      FADEIN 1 0 0 1 0 0 0
      FADEOUT 1 0 0 1 0 0 0
      MUTE 0 0
      SEL 0
      IGUID {BED51D07-F53D-4E19-A373-1EF316C80796}
      IID 1781
      NAME "untitled MIDI item-glued"
      VOLPAN 1 0 1 -1
      SOFFS 0 0
      PLAYRATE 1 1 0 -1 0 0.0025
      CHANMODE 0
      GUID {5AA6D753-4806-4A87-A353-70B4C27A9423}
      <SOURCE MIDI
        HASDATA 1 960 QN
        CCINTERP 32
        POOLEDEVTS {C01AE2A9-5ADF-4E13-BA6B-A379954F32F1}
        E 0 90 43 60
        E 2880 80 43 00
        E 0 90 46 60
        E 960 80 46 00
        E 0 90 41 60
        E 2880 80 41 00
        E 0 90 3f 60
        E 960 80 3f 00
        E 0 90 3e 60
        E 7680 80 3e 00
        E 38024 b0 7b 00
        CCINTERP 32
        CHASE_CC_TAKEOFFS 1
        GUID {6148E63E-DD8C-4D80-B3D0-E436A8E1EED6}
        IGNTEMPO 0 120 4 4
        SRCCOLOR 27046
        VELLANE -1 100 0
        VELLANE 10 100 0
        CFGEDITVIEW 20203.094268 20.240916 60 12 0 -1 0 0 0 0.5
        KEYSNAP 0
        TRACKSEL 283
        EVTFILTER 0 -1 -1 -1 -1 0 0 0 0 -1 -1 -1 -1 0 -1 0 -1 -1
        CFGEDIT 1 1 0 1 1 0 1 3 1 1 1 0.25 65 629 961 1651 0 0 1 0 0 0 0 1 0 0.5 0 0 1 64
      >
    >
    <ITEM
      POSITION 156.74126491988403
      SNAPOFFS 0
      LENGTH 73.5483919999773
      LOOP 0
      ALLTAKES 0
      FADEIN 1 0 0 1 0 0 0
      FADEOUT 1 0 0 1 0 0 0
      MUTE 0 0
      SEL 0
      IGUID {52B55F20-5904-4224-BEBE-20B8C731B0A1}
      IID 44
      NAME "Voice - Exiled_(Coda)-glued"
      VOLPAN 1 0 1 -1
      SOFFS 0 0
      PLAYRATE 1 1 0 -1 0 0.0025
      CHANMODE 0
      GUID {7F841EFE-8AB3-422E-A506-18E06D22932D}
      <SOURCE MIDI
        HASDATA 1 960 QN
        CCINTERP 32
        POOLEDEVTS {C285E981-5544-4F55-9FAA-3D6FFE7D6E46}
        <X 117 0 0 0 3 Voice
          /wNWb2ljZQ==
        >
        <X 0 0
          /1kCBAA=
        >
        <X 0 0
          /yEBAA==
        >
        E 0 b2 5b 00
        E 0 b2 5d 00
        E 0 b2 79 00
        E 480 92 2e 50
        E 478 92 2e 00
        E 2 92 33 50
        E 478 92 33 00
        E 2 92 35 50
        E 478 92 35 00
        E 2 92 38 50
        E 958 92 38 00
        E 2 92 3c 50
        E 62 92 3c 00
        E 2 92 38 50
        E 892 92 38 00
        E 484 92 3a 50
        E 478 92 3a 00
        E 2 92 38 50
        E 238 92 38 00
        E 2 92 36 50
        E 238 92 36 00
        E 2 92 35 50
        E 478 92 35 00
        E 2 92 35 50
        E 958 92 35 00
        E 2 92 33 50
        E 1438 92 33 00
        E 2 92 31 50
        E 478 92 31 00
        E 2 92 31 50
        E 958 92 31 00
        E 2 92 31 50
        E 958 92 31 00
        E 482 92 2c 50
        E 478 92 2c 00
        E 2 92 2e 50
        E 478 92 2e 00
        E 2 92 30 50
        E 238 92 30 00
        E 2 92 31 50
        E 1198 92 31 00
        E 482 92 2e 50
        E 478 92 2e 00
        E 2 92 31 50
        E 478 92 31 00
        E 2 92 35 50
        E 478 92 35 00
        E 2 92 38 50
        E 958 92 38 00
        E 2 92 38 50
        E 958 92 38 00
        E 482 92 3a 50
        E 478 92 3a 00
        E 2 92 38 50
        E 478 92 38 00
        E 2 92 36 50
        E 478 92 36 00
        E 2 92 35 50
        E 958 92 35 00
        E 2 92 31 50
        E 958 92 31 00
        E 482 92 31 50
        E 478 92 31 00
        E 2 92 31 50
        E 958 92 31 00
        E 2 92 31 50
        E 958 92 31 00
        E 482 92 2c 50
        E 478 92 2c 00
        E 2 92 2e 50
        E 478 92 2e 00
        E 2 92 30 50
        E 238 92 30 00
        E 2 92 31 50
        E 1198 92 31 00
        E 2402 92 2e 50
        E 478 92 2e 00
        E 2 92 31 50
        E 478 92 31 00
        E 2 92 35 50
        E 478 92 35 00
        E 2 92 38 50
        E 958 92 38 00
        E 2 92 3c 50
        E 62 92 3c 00
        E 2 92 38 50
        E 892 92 38 00
        E 484 92 3a 50
        E 478 92 3a 00
        E 2 92 38 50
        E 478 92 38 00
        E 2 92 36 50
        E 478 92 36 00
        E 2 92 35 50
        E 958 92 35 00
        E 2 92 31 50
        E 958 92 31 00
        E 2 92 36 50
        E 478 92 36 00
        E 2 92 38 50
        E 478 92 38 00
        E 2 92 3b 50
        E 478 92 3b 00
        E 2 92 3d 50
        E 478 92 3d 00
        E 2 92 3f 50
        E 2878 92 3f 00
        E 722 92 3e 50
        E 238 92 3e 00
        E 2 92 3e 50
        E 478 92 3e 00
        E 2 92 3e 50
        E 238 92 3e 00
        E 2 92 3e 50
        E 238 92 3e 00
        E 2 92 3e 50
        E 238 92 3e 00
        E 2 92 3e 50
        E 718 92 3e 00
        E 2 92 3e 50
        E 638 92 3e 00
        E 2 92 3e 50
        E 638 92 3e 00
        E 2 92 3e 50
        <X 4363 0
          /1kCBAA=
        >
        E 0 b1 5b 00
        E 0 b1 5d 00
        E 0 b3 5b 00
        E 0 b3 5d 00
        E 0 82 3e 00
        E 0 91 44 60
        E 0 91 47 50
        E 0 91 4b 50
        E 0 90 3e 60
        E 2878 91 44 00
        E 0 91 47 00
        E 0 91 4b 00
        E 0 80 3e 00
        E 2 91 40 50
        E 0 91 46 60
        E 0 91 49 50
        E 0 90 3e 60
        E 958 91 40 00
        E 0 91 46 00
        E 0 91 49 00
        E 0 80 3e 00
        E 2 91 41 50
        E 0 91 44 50
        E 0 91 47 50
        E 0 90 3e 60
        E 1918 91 41 00
        E 0 91 44 00
        E 0 91 47 00
        E 2 80 3e 00
        E 0 91 40 50
        E 0 91 45 60
        E 0 91 49 50
        E 0 90 3e 60
        E 958 91 40 00
        E 0 91 45 00
        E 0 91 49 00
        E 0 80 3e 00
        E 2 91 3f 50
        E 0 91 42 50
        E 0 91 45 50
        E 958 91 3f 00
        E 0 91 42 00
        E 0 91 45 00
        E 2 91 3e 50
        E 0 91 41 50
        E 0 91 44 50
        E 3838 91 3e 00
        E 0 91 41 00
        E 0 91 44 00
        E 2 b0 5b 00
        E 0 b0 5d 00
        E 240 90 3c 50
        E 238 90 3c 00
        E 2 90 3a 50
        E 238 90 3a 00
        E 2 90 37 50
        E 238 90 37 00
        E 2 90 3a 50
        E 238 90 3a 00
        E 2 90 38 50
        E 238 90 38 00
        E 2 90 37 50
        E 238 90 37 00
        E 2 90 35 50
        E 238 90 35 00
        E 2 90 37 50
        E 238 90 37 00
        E 2 90 35 50
        E 238 90 35 00
        E 2 90 32 50
        E 238 90 32 00
        E 2 90 30 50
        E 238 90 30 00
        E 242 90 30 50
        E 238 90 30 00
        E 2 90 2e 50
        E 238 90 2e 00
        E 2 90 2b 50
        E 238 90 2b 00
        E 242 90 32 50
        E 238 90 32 00
        E 2 90 32 50
        E 238 90 32 00
        E 2 90 32 50
        E 238 90 32 00
        E 2 90 32 50
        E 238 90 32 00
        E 242 90 32 50
        E 58 90 32 00
        E 2 90 32 50
        E 58 90 32 00
        E 2 90 32 50
        E 58 90 32 00
        E 2 90 32 50
        E 58 90 32 00
        E 482 90 32 50
        E 238 90 32 00
        E 2 90 32 50
        E 238 90 32 00
        E 2 90 32 50
        E 238 90 32 00
        E 2 90 32 50
        E 238 90 32 00
        E 242 90 32 50
        E 58 90 32 00
        E 2 90 32 50
        E 58 90 32 00
        E 2 90 32 50
        E 58 90 32 00
        E 2 90 32 50
        E 58 90 32 00
        E 482 90 32 50
        E 238 90 32 00
        E 2 90 32 50
        E 238 90 32 00
        E 2 90 32 50
        E 238 90 32 00
        E 2 90 32 50
        E 238 90 32 00
        E 242 90 32 50
        E 58 90 32 00
        E 2 90 32 50
        E 58 90 32 00
        E 2 90 32 50
        E 58 90 32 00
        E 2 90 32 50
        E 58 90 32 00
        E 482 90 32 50
        E 238 90 32 00
        E 2 90 32 50
        E 238 90 32 00
        E 2 90 32 50
        E 238 90 32 00
        E 2 90 32 50
        E 238 90 32 00
        E 242 90 32 50
        E 58 90 32 00
        E 2 90 32 50
        E 58 90 32 00
        E 2 90 32 50
        E 58 90 32 00
        E 2 90 32 50
        E 58 90 32 00
        E 242 b0 7b 00
        CCINTERP 32
        CHASE_CC_TAKEOFFS 1
        GUID {672791FA-9451-4A26-8810-CEBCE8690902}
        IGNTEMPO 0 120 4 4
        SRCCOLOR 131541
        VELLANE -1 100 0
        VELLANE 2 100 0
        CFGEDITVIEW 46860.445911 83.380336 52 12 0 -1 0 0 0 0.5
        KEYSNAP 0
        TRACKSEL 283
        EVTFILTER 0 -1 -1 -1 -1 0 0 0 0 -1 -1 -1 -1 0 -1 0 -1 -1
        CFGEDIT 1 1 0 1 1 0 1 2 1 1 1 0.25 814 690 1532 1424 0 0 1 2 0 0 0 1 0 0.2 1 0 1 64
      >
    >
    <ITEM
      POSITION 230.28965691984487
      SNAPOFFS 0
      LENGTH 15.48387199999172
      LOOP 0
      ALLTAKES 0
      FADEIN 1 0 0 1 0 0 0
      FADEOUT 1 0 0 1 0 0 0
      MUTE 0 0
      SEL 0
      IGUID {06988E27-ED24-4273-B799-6B0E07C69216}
      IID 1605
      NAME Exiled-glued
      VOLPAN 1 0 1 -1
      SOFFS 0 0
      PLAYRATE 1 1 0 -1 0 0.0025
      CHANMODE 0
      GUID {5F80DEF3-586B-492D-836A-D320431A198A}
      <SOURCE MIDI
        HASDATA 1 960 QN
        CCINTERP 32
        POOLEDEVTS {9318BD85-B7E4-44D9-93E1-0CC617FA3E16}
        E 15360 b0 7b 00
        CCINTERP 32
        CHASE_CC_TAKEOFFS 1
        GUID {4460C296-F407-499D-8896-0916940F4B63}
        IGNTEMPO 0 120 4 4
        SRCCOLOR 136118
        VELLANE 132 100 0
        VELLANE -1 100 0
        CFGEDITVIEW 0 11.057659 49 12 0 -1 0 0 0 0.5
        KEYSNAP 0
        TRACKSEL 269
        EVTFILTER 0 -1 -1 -1 -1 0 0 0 0 -1 -1 -1 -1 0 -1 0 -1 -1
        CFGEDIT 1 1 0 1 1 0 1 3 1 1 1 0.25 580 733 1492 1771 0 0 1 0 0 0 0 0 0 0.5 1 0 1 64
      >
    >
  >
  <TRACK {896DC84F-133B-4844-97A4-542E8A557DA5}
    NAME organ
    PEAKCOL 27852793
    BEAT -1
    AUTOMODE 0
    VOLPAN 0.57403385915171 -0.656 -1 -1 1
    MUTESOLO 0 0 0
    IPHASE 0
    PLAYOFFS 0 1
    ISBUS 0 0
    BUSCOMP 0 0 0 0 0
    SHOWINMIX 1 0.6667 0.5 1 0.5 -1 -1 -1
    SEL 0
    REC 0 4096 1 0 0 0 0
    VU 2
    TRACKHEIGHT 0 0 0 0 0 0
    INQ 0 0 0 0.5 100 0 0 100
    NCHAN 2
    FX 1
    TRACKID {896DC84F-133B-4844-97A4-542E8A557DA5}
    PERF 0
    MIDIOUT -1
    MAINSEND 1 0
    <FXCHAIN
      WNDRECT 445 621 1071 576
      SHOW 0
      LASTSEL 0
      DOCKED 0
      BYPASS 0 0 0
      <VST "VSTi: Absynth 5 (Native Instruments GmbH)" "Absynth 5 Stereo.dll" 0 "" 1131179320<565354436C6D38616273796E74682035> ""
        OG1sQ+5e7f4CAAAAAQAAAAAAAAACAAAAAAAAAAIAAAABAAAAAAAAAAIAAAAAAAAAbxUAAAEAAAAAABAA
        bxUAAAAAAAABAAAAaHNpbgEAAAAAAAAADNSXhly5zEOyI5MAnbtkp5YAAAAAAAAARFNJTnYAAAABAAAASAAAAAAAAABEU0lOagAAAAEAAAAYAAAAAAAAAERTSU4BAAAA
        AQAAAAEAAAABAAAAAQAAAAEAAAAAAAAAAAAAAAAAAAANYmWFAQAAAA5wEAAAAAAAAQAAAAEAAAAAAAAAAAAAAAAAAAADAAAAMAAwADAAAAAAAAAAAAAAAAAAAAAAAAEA
        AAABAAAAAAAAAERTSU5lAAAAnRQAAAAAAAABAAAAaHNpbgEAAAAAAAAAanJtEGImREOpLqPe6hOHs2cAAAAAAAAARFNJTmUAAAABAAAANAAAAAAAAABEU0lOagAAAAEA
        AAAYAAAAAAAAAERTSU4BAAAAAQAAAAEAAAABAAAAAgAAAAEAAAAABgAAAAEAAAAHAAAANQAuADAALgAwAC4AMAABAAAAAwAAAAAAAABEU0lObAAAALIBAAAAAAAAAQAA
        AGhzaW4BAAAAAAAAAEKFExlb5ZVOpENv1gYlhWaCAQAAAAAAAERTSU5sAAAAAQAAABgAAAAAAAAARFNJTgEAAAABAAAAAQAAAAEAAAACAAAAAQAAAAAAAAAOAAAAVQBu
        AHQAaQB0AGwAZQBkACAAUwBvAHUAbgBkAAAAAAAAAAAAAAAAAAAAAAAAAAAAAAAAAAAAAAAAAAAAAAAAAAAAAAABAAAAAQAAAAEAAAAHAAAAQQBiAHMAeQBuAHQAaAAA
        AAAAAAAAAAcAAAAHAAAAXABAAGMAbwBsAG8AcgABAAAAMAARAAAAXABAAGQAZQB2AGkAYwBlAHQAeQBwAGUAZgBsAGEAZwBzAAEAAAAxAAsAAABcAEAAcwBvAHUAbgBk
        AHQAeQBwAGUAAQAAADAABwAAAFwAQAB0AGUAbQBwAG8AAQAAADAABgAAAFwAQAB2AGUAcgBsAAYAAAAxAC4ANwAuADEANAAGAAAAXABAAHYAZQByAG0ABgAAADEALgA3
        AC4AMQA0AAcAAABcAEAAdgBpAHMAaQBiAAEAAAAwAAEAAAAAAAAAAgAAAERTSU55AAAAaAAAAAAAAAABAAAAaHNpbgEAAAAAAAAARunc6wuWMkeBq42ZoYuWRDgAAAAA
        AAAARFNJTnkAAAABAAAAGAAAAAAAAABEU0lOAQAAAAEAAAABAAAAAQAAAAEAAAAAAAAAAQAAAAAAAAABAAAARFNJTnQAAADIEQAAAAAAAAEAAABoc2luAQAAAAAAAAC4
        Mb68F5gVSIUKXh5S4dZ8mBEAAAAAAABEU0lOdAAAAAEAAAB/EQAAAAAAAERTSU5zAAAAAQAAABgAAAAAAAAARFNJTgEAAAABAAAAAQAAAAEAAAABE0YAAEYRAAACE0YA
        YAAAASAFA2hzaW5AB0AAEAcORjrk8KJOuWzVLgJm3/wYQBQgAANEU0lOQCPgBwNAAEAbAG0gCAG/RSAEIABAI+ADUxCuZnYUZKycR4Ges7CW6DR4j6AnwDdAL+AXZ0Aj
        AEegNwADIGMACqALB3RzcnBtYUxjIBIJAAAXAAA0Y3RwgiAKBCAPb+kAIAAICACAP04KtT8AIAcCAAAAQAMEAICI9UAgBQNAAwIAoAAPXkBVbnRpdGxlZCBTb3VuZKAW
        4AQACwEAXYgBANVtAQC2uCALABwgHEBNwAPgDAAEZkliTBAgGQK/znZgjeADAAQ0Y3NvoCAQBhoSb+nud6MgkUAAQKXAAwEAAKAXBT+D+SJDAGAX4BEAQSFAA0AAAAEg
        qcAAwAmAB0BbgLOA/EAPA4A/BABAAACAIVOADwIbL30g14ALAAAgAOA/q4CDgADAC0CrA83MTD1AFeAAE0AMYH/gcauBH4AAgI8gByFX4EOrBDE1ZG0oIFwE4I4tugDi
        AAPAAAGAPyAaBAAOAKNAIvEhhwDwIgMEwEFddEggB0APAYA+IAMgF+ADA+AHAARIQuf7SSAjBvpFAACgQQDgBCsBSEIgV0AAIB9AQ4AAAs3MzCGLwA+ABwKamZkga2Ab
        YAcGAECcRWZmZiA3QFMgAAIcH9ogBSAABNxDMzNzIBcjoQLXIzwgBuAFAAuzZ64CAOQ/AwDcOgAgW6LfIAAJgD8zM7M+AS884EALAAAgAALzBDUgB4ALAABgBwVAPwFW
        CAnhBzNBI0AAgAfh/TPhFzMAACAAgS9AAOH9M+EXM0EvwAMAAOH9M+EYMwAAIADlAUfi/WfiG2dBM0JrAADh/TPhGDNBL6bLIADi/WfiF2cAACAAQTPi/WfiDWcDbnJH
        ZkmfAeU6S7+BMwAGITdBMwAFomcAAaAX4AEAKLMF4KtGAAAgKW9AACAPYAMA8OkEbykfKWdpUyAHQCNAAIAH6RhvoCfpF28AAcmfaeNJ5yAAAYizYfsCAADQIJdAAADg
        ameAAEpT4BcAgKMAAOkKnwAAKZ8DNHJTZk3N4QMzIACga2A7DUAgNGNjfAAAAEBg9RYAKtMEjC66PQpgIwGAP0ALBAAAAEAHYVeADwEBAEDLI9chVwABIVcAASAPAAAg
        D0ArAAEhV0APIAMBPwGgE0AbBgEAzD3ZiR0gC0AAQHeAA0QrBUEAzD4FACzXBTFnYwwbAG4tQRRAA02vAAAgKwQVAAAAfyADAAAgCwAA4BcAIL8gyOAhLyBTLqzgIi+P
        IeAgjyAAABkgA+AjLwAa4CMvAnV9lSE24CFfAhDHU08w4CCPIF8AHeAmXwAe4CMvIF8AH+AjLyC/ACDgIy8gXwAB4AIvB01vZHdoZWVsIBLgDAAAASBfAAsgGcEfDUNo
        YW5uZWwgVm9sdW1lIBjgBgAAASBfIy/DVAY/UGFuIExSIBDgDgBAXwAUIBtCyAP4+/0+QC8BRkIgEOAOAAAOoBcANCAHjg9AACMHLb8AACAAAA8gA0AAADUgBOAEH22/
        AgAADSADQABBY+AEHyQfQBdAH0Ef4AgfoF9AH0On4AgfoF8A/yAAQEcgBgD/oF8g2iCfoF8gFuANH6BfIB7gDR/gN18BfL8gh+ASX6AAIH7gDX/gAhdAKiAO4AXfAHBR
        l4AXIAbgCR+gACA24A0f4BefAQVDYEMgPuANPwHaLuAVHwEnGOAVHwF//nA/IF7gDV8B/sjgFR8BjpDgFR8B/CvgFR8BI1FmDyB+4A1/Ao+IvUFCIB7gDR8C+zu+4BQf
        AY2Y4BUfAf7Q4BUfAj8Dv+AUXwEnHOAVHwHZMuAVHwEFR+AVHwFeWOAVHwGnZuAVHwGqceAVHwE/eeAVHwFLfeAVHwA14BYfAXBz4BU/AfBe4BUfAaNA4BUfAeYZ4BUf
        AfPY4RXfAbBp4BUfAvm/vOEU/wGxOeIV3wH0wOAVHwHmDeMVnwGjNOAVHwHxUuAVHwFwZ+AVHwE1ceAVHwH9+eEVHwGEB+EVfwG2EeAVHwGPG+AVHwEHJeAVHwEaLuAV
        HwHBNuAVHwH4PuAVHwG5RuAVHwH/TeAVHwHGVOAVHwEKW+AVHwHHYGAfAIFChCAAR6OHXydbQAMB+WXgAB9AG0AD4AQfAZ5q4AAfR7/gCB8Bsm7gAB9AAAAHIATgBD8B
        MnLgAB9AO+AIHwEddeAAH0Bf4AgfAXF34AAfQABIbOAEXwEteeAAH0Bf4AgfAU964AAfQF/gCB8A1uABH0B74AgfAMOAHyY+5g0/AQByIAPgkh8Bum1g/yC+4A2/AYJp
        4BUfAbpk4BUfAWVf4BUfAYZZ4BUfASFT4BUfATlM4BUfAdRE4BUfAfU84BUfAaI04BUfAd8r4BUfAbMi4BUfACLmFl8BMg/gFT8B6gTgFR8BovTlFV8B197gFR8Bg8jg
        FR8BtLHgFR8Bd5rgFR8B24LgFR8B3FXgFR8BfiXgFR8BdOnpFd8BXIfgFR8BxZPnFZ+gACM+4w0/oAAgHuANH+tX36AAIH7gDX/gAhdAKiAO7AV/RgMgACAW4A4fgAAg
        HuANH+wXf+ACN0BJIA7gBX8gD8AXwAeF363/4FefAQDX4hVfAQAI4xV/oAAgxuAOv4AAIB7gDR8Bgk7gFV/gAjdASSAO4QUfIA/AF8AH4WQ/4Bd/4Bcf4Vff4Bd/4Bcf
        4P2f4JGfAQCL7RUfAQCI4BYfgAAiBuMOP4AAIB7gDR8AzpdfIB7gDR+gACAe4A0f4AIXQCogDuNlv6AAIHbgDX/gAhdAKiAO4GWfAP5AdYB3IAbgCX8gjyAWQAbgAAfk
        ZP8BEY/gAHcghmCH4AR/4AKXIB5ADuAFH+RXXwFMiuAAdwAAIAAgfuAFfyAPIBZABuAAB+AEv+BXnwG8g+AAdwAAIAAghuAFfyAPIBZABuAAB+BknwHGfeAAdyCGYIfg
        BH/gApcgHkAO4AUf4Vc/AZn34AB3AAAgACB+4AV/IA8gFgUANHVHYwQvIFufWw8gCuAAAEAL4AMDTydAD0AHQAPeU0AHQAMABCA5QB9AB0ADW3dAD0AHQAPdT0AHQANP
        V0AfQAdAAwAIoD9AB0ADT3NAH0AHQANZB0APQAdAA1lHQA9AB0ADAAygP0AHQANYW0AfQAdAA1jrQLdAB0ADWNtAH0AHQANA/wQ0ZE1hgCBHQQ9AGwAAYacIgD7NzEw9
        8wQ1IbeAACE+YT8AAOBSHwQ0b2ZsMCCE4AeLWStAACAagAMgi4ALXQsCgD4BIKsAASCrAAEgH0FXQABACwAB4AofAAEgHMA/QWNAAOADP+ADH2ALICBAAwAzIAdAAEAL
        4AMA4AcPQABAE+AHA8AAAEhgCFJzQABAB+ADA+AHAEAbYABnu+AFAADgoZt+6wA/4QM7AABgAEA74b07QUtAAOH9O+ElO0P/QADhTzsEMTRuZbQk/EOzRRMAASJ3IAMC
        PgEA4AEAQIMAASRBQBMAASAfAAIgHwIAAEw6r0KjQABAB0AD4AEAApqZmSAj4BEAAAFgGsAzQAdAA8AX4BEAAAIgGgqAmHVAep9iP5dorKNDgAAkVmAAgA0G0D+wcmiR
        7Y/X4AIngGeAAIALBgjh1kCYDEFAI0AD4AAAYEwgAIAQ4AVPQL9AAwIzM3PgAjOATwRcPspAAIAA4AIbAADgFE9Be0AAAKSxZ4AAQYtAAMAHgABBA0AXwANADwQAAMdT
        ACAnAABgAEAHQAOAI0AA4RePgEOAMwAAYAfAC6BDABBAX8AA4AEbYAABkHsg72AToH+AACE6YACADeEFP4AT4AnvIBIDAICI1eAoT2ELAFLgE09gAGBfwABgnCAAgA/g
        BZ/hEY8BZ65AL0BvwAADAgDMPUAPAAEhAwMBADzggUtAAIDPAABgB4ALwBvhF4+Af4AzAABgB6ALAy884AAgAEcDIAZgxAIAzMwji0DboCPhMI8BgD/iB38AACAA4TCP
        AADhR4/gCZ8GcnNkYSAAAGS/AAAgAAD+oc/gCwcDZ3JUYUlnJO5gAAA8IAUH8wS1PmRuRXAgCgkAABcAAGVudXQ0ICADIA9v6eEArOAAAA0oQGxhY1N1VCBhZ25pbuAA
        FuACAB8pc5Zvu0zIP1vajyaH0ck/jkGJ3VJWyz/KI07s4CjNPx/0D3xL6l/OPxuiuZ8nM9A/LG+33MC00D9f1rCTjDnSPx+RPapKWL7TP6IKqIfxP9Q/w6SjASRD1T/2
        C52478fWP4BfANigXwDZoF8A26BfAN2gXwDeoF8A4KBfAOCgXwDioF8A46BfAOSgXwDloF8A5qBfAOigXwDpoF8A66BfAO2gXwDuoF8A8KBfAPCgXwDyoF8A86BfAPSg
        XwD1oF8A9qBfAPigXwD5oF8A+6BfAP2gXwD+oF8BAECBHwEAQIEfAQJAgR8BA0CBHwEEQIEfAQVAgR8BBkCBHwEIQIF/AQlAgX8BC0CBfwENQIF/AQ5AgX8AEKBfABCg
        XwASoF8AE6BfABSgXwAVoF8AFqBfABigXwAZoF8AG6BfAB2gXwAeoF8AIKBfACCgXwAioF8AI6BfACSgXwAloF8AJqBfACigXwApoF8AK6BfAC2gXwAuoF8AMKBfADCg
        XwAyoF8AM6BfADSgXwA1oF8ANqBfADigXwA5oF8AO6BfAD2gXwA+oF8AQKBfAECgXwBCoF8AQ6BfAESgXwBFoF8ARqBfAEigXwBJoF8AS6BfAE2gXwBOoF8AUKBfAFCg
        XwBSoF8AU6BfAFSgXwBVoF8AVqBfAFigXwBZoF8AW6BfAF2gXwBeoF8AYKBfAGCgXwBioF8AY6BfAGSgXwBloF8AZqBfAGigXwBpoF8Aa6BfAG2gXwBuoF8AcKBfAHCg
        XwFyQOQDPwABxezgAADk/T/k/T/k/T/kBz8HJiGygXJ6wz6Fv+T1PwAC5Co/BIX67UG76P1/6P1/6P1/6Ox/AAMkP02DTPOAAAwoQHdlbmR5IGp1c3RcgBLgBgAId/FR
        x/jGxz+OL+8EaEPJP6Yubx/Xv8o/j+77u12IzD/VbSb5trjNP10cH9r1s88/AlYICR/LWNA/GXV9lTrV0T8xlPIhqlHTPwRc6z160NM/SLNnrgsZztQ/YNLcOolK1j+A
        XwDXoF8A2aBfANqgXwDcoF8A3aBfAN+gXwDgoF8A4aBfAOOgXwDjoF8A5KBfAOagXwDnoF8A6aBfAOqgXwDsoF8A7aBfAO+gXwDwoF8A8aBfAPOgXwDzoF8A9KBfAPag
        XwD3oF8A+aBfAPqgXwD8oF8A/aBfAP+gXwEAQIEfAQFAgR8BA0CBHwIDQEhhHwEEQIEfAQZAgR8BB0CBfwEJQIF/AQpAgX8BDECBfwENQIF/AQ9AgX8AEKBfABGgXwAT
        oF8AE6BfABSgXwAWoF8AF6BfABmgXwAaoF8AHKBfAB2gXwAfoF8AIKBfACGgXwAjoF8AI6BfACSgXwAmoF8AJ6BfACmgXwAqoF8ALKBfAC2gXwAvoF8AMKBfADGgXwAz
        oF8AM6BfADSgXwA2oF8AN6BfADmgXwA6oF8APKBfAD2gXwA/oF8AQKBfAEGgXwBDoF8AQ6BfAESgXwBGoF8AR6BfAEmgXwBKoF8ATKBfAE2gXwBPoF8AUKBfAFGgXwBT
        oF8AU6BfAFSgXwBWoF8AV6BfAFmgXwBaoF8AXKBfAF2gXwBfoF8AYKBfAGGgXwBjoF8AY6BfAGSgXwBmoF8AZ6BfAGmgXwBqoF8AbKBfAG2gXwBvoF8AcKBfBXFANDRJ
        cDN8MPoB776Mv1LTgABAByRScpsxIvsAI9mzQBsHAACgQgAAQMExhgX/bGlhdAAgAASYixMAESAHQAADa25hYoAngABau2BMQAAHZ3B0Y1lUTUVACwsNYmWFAQAAAAAA
        AAABAAAAAAEAAAAAAAAA
        ADxkaXNhYmxlZD4AEAAAAA==
      >
      PRESETNAME <disabled>
      FLOATPOS 0 0 0 0
      FXID {761E6037-FE21-49F8-952D-336359302CCA}
      WAK 0 0
    >
    <ITEM
      POSITION 0
      SNAPOFFS 0
      LENGTH 146.25
      LOOP 0
      ALLTAKES 0
      FADEIN 1 0 0 1 0 0 0
      FADEOUT 1 0 0 1 0 0 0
      MUTE 0 0
      SEL 0
      IGUID {7E080A93-B6C7-4AA5-98B7-DE4DFB926089}
      IID 2224
      NAME Exiled-glued
      VOLPAN 1 0 1 -1
      SOFFS 0 0
      PLAYRATE 1 1 0 -1 0 0.0025
      CHANMODE 0
      GUID {D7935D1D-3328-4F15-A680-929A8FBC894F}
      <SOURCE MIDI
        HASDATA 1 960 QN
        CCINTERP 32
        POOLEDEVTS {F722677B-4CAA-4636-8DE9-113F4695E2B7}
        <X 0 0
          /1kCAAA=
        >
        E 3840 90 28 50
        E 66 90 2d 50
        E 68 90 34 50
        E 70 90 3b 50
        E 68 90 3e 50
        E 68 90 43 50
        E 616 90 2d 00
        E 0 90 34 00
        E 0 90 3b 00
        E 0 90 3e 00
        E 0 90 43 00
        E 2 90 28 00
        E 2 90 28 50
        E 66 90 2d 50
        E 68 90 34 50
        E 70 90 3b 50
        E 68 90 3e 50
        E 68 90 43 50
        E 616 90 2d 00
        E 0 90 34 00
        E 0 90 3b 00
        E 0 90 3e 00
        E 0 90 43 00
        E 2 90 28 00
        E 2 90 28 50
        E 66 90 2d 50
        E 68 90 34 50
        E 70 90 3b 50
        E 68 90 3e 50
        E 68 90 43 50
        E 616 90 2d 00
        E 0 90 34 00
        E 0 90 3b 00
        E 0 90 3e 00
        E 0 90 43 00
        E 2 90 28 00
        E 2 90 28 50
        E 66 90 2d 50
        E 68 90 34 50
        E 70 90 3b 50
        E 68 90 3e 50
        E 68 90 43 50
        E 616 90 2d 00
        E 0 90 34 00
        E 0 90 3b 00
        E 0 90 3e 00
        E 0 90 43 00
        E 2 90 28 00
        E 2 90 28 50
        E 66 90 2d 50
        E 68 90 34 50
        E 70 90 3b 50
        E 68 90 3e 50
        E 68 90 43 50
        E 616 90 2d 00
        E 0 90 34 00
        E 0 90 3b 00
        E 0 90 3e 00
        E 0 90 43 00
        E 2 90 28 00
        E 2 90 28 50
        E 66 90 2d 50
        E 68 90 34 50
        E 70 90 3b 50
        E 68 90 3e 50
        E 68 90 43 50
        E 616 90 2d 00
        E 0 90 34 00
        E 0 90 3b 00
        E 0 90 3e 00
        E 0 90 43 00
        E 2 90 28 00
        E 2 90 28 50
        E 66 90 2d 50
        E 68 90 34 50
        E 70 90 3b 50
        E 68 90 3e 50
        E 68 90 43 50
        E 616 90 2d 00
        E 0 90 34 00
        E 0 90 3b 00
        E 0 90 3e 00
        E 0 90 43 00
        E 2 90 28 00
        E 2 90 28 50
        E 66 90 2d 50
        E 68 90 34 50
        E 70 90 3b 50
        E 68 90 3e 50
        E 68 90 43 50
        E 616 90 2d 00
        E 0 90 34 00
        E 0 90 3b 00
        E 0 90 3e 00
        E 0 90 43 00
        E 2 90 28 00
        E 2 90 28 50
        E 66 90 2d 50
        E 68 90 34 50
        E 70 90 3b 50
        E 68 90 3e 50
        E 68 90 43 50
        E 616 90 2d 00
        E 0 90 34 00
        E 0 90 3b 00
        E 0 90 3e 00
        E 0 90 43 00
        E 2 90 28 00
        E 2 90 28 50
        E 66 90 2d 50
        E 68 90 34 50
        E 70 90 3b 50
        E 68 90 3e 50
        E 68 90 43 50
        E 616 90 2d 00
        E 0 90 34 00
        E 0 90 3b 00
        E 0 90 3e 00
        E 0 90 43 00
        E 2 90 28 00
        E 2 90 28 50
        E 66 90 2d 50
        E 68 90 34 50
        E 70 90 3b 50
        E 68 90 3e 50
        E 68 90 43 50
        E 616 90 2d 00
        E 0 90 34 00
        E 0 90 3b 00
        E 0 90 3e 00
        E 0 90 43 00
        E 2 90 28 00
        E 2 90 28 50
        E 66 90 2d 50
        E 68 90 34 50
        E 70 90 3b 50
        E 68 90 3e 50
        E 68 90 43 50
        E 616 90 2d 00
        E 0 90 34 00
        E 0 90 3b 00
        E 0 90 3e 00
        E 0 90 43 00
        E 2 90 28 00
        E 2 90 28 50
        E 66 90 2d 50
        E 68 90 34 50
        E 70 90 3b 50
        E 68 90 3e 50
        E 68 90 43 50
        E 616 90 2d 00
        E 0 90 34 00
        E 0 90 3b 00
        E 0 90 3e 00
        E 0 90 43 00
        E 2 90 28 00
        E 2 90 28 50
        E 66 90 2d 50
        E 68 90 34 50
        E 70 90 3b 50
        E 68 90 3e 50
        E 68 90 43 50
        E 616 90 2d 00
        E 0 90 34 00
        E 0 90 3b 00
        E 0 90 3e 00
        E 0 90 43 00
        E 2 90 28 00
        E 2 90 43 50
        E 66 90 40 50
        E 68 90 39 50
        E 70 90 32 50
        E 68 90 2d 50
        E 68 90 28 50
        E 616 90 40 00
        E 0 90 39 00
        E 0 90 32 00
        E 0 90 2d 00
        E 0 90 28 00
        E 2 90 43 00
        E 2 90 43 50
        E 66 90 40 50
        E 68 90 39 50
        E 70 90 32 50
        E 68 90 2d 50
        E 68 90 28 50
        E 616 90 40 00
        E 0 90 39 00
        E 0 90 32 00
        E 0 90 2d 00
        E 0 90 28 00
        E 2 90 43 00
        E 2 90 43 50
        E 66 90 40 50
        E 68 90 39 50
        E 70 90 32 50
        E 68 90 2d 50
        E 684 90 40 00
        E 0 90 39 00
        E 0 90 32 00
        E 0 90 2d 00
        E 2 90 43 00
        E 2 90 43 50
        E 66 90 40 50
        E 68 90 39 50
        E 70 90 32 50
        E 68 90 2d 50
        E 684 90 40 00
        E 0 90 39 00
        E 0 90 32 00
        E 0 90 2d 00
        E 2 90 43 00
        E 2 90 43 50
        E 66 90 40 50
        E 68 90 39 50
        E 70 90 32 50
        E 68 90 2d 50
        E 684 90 40 00
        E 0 90 39 00
        E 0 90 32 00
        E 0 90 2d 00
        E 2 90 43 00
        E 2 90 43 50
        E 66 90 40 50
        E 68 90 39 50
        E 70 90 32 50
        E 68 90 2d 50
        E 684 90 40 00
        E 0 90 39 00
        E 0 90 32 00
        E 0 90 2d 00
        E 2 90 43 00
        E 2 90 43 50
        E 66 90 40 50
        E 68 90 39 50
        E 70 90 32 50
        E 68 90 2d 50
        E 68 90 28 50
        E 616 90 40 00
        E 0 90 39 00
        E 0 90 32 00
        E 0 90 2d 00
        E 0 90 28 00
        E 2 90 43 00
        E 2 90 43 50
        E 66 90 40 50
        E 68 90 39 50
        E 70 90 32 50
        E 68 90 2d 50
        E 68 90 28 50
        E 616 90 40 00
        E 0 90 39 00
        E 0 90 32 00
        E 0 90 2d 00
        E 0 90 28 00
        E 2 90 43 00
        E 2 90 43 50
        E 66 90 40 50
        E 68 90 39 50
        E 70 90 32 50
        E 68 90 2d 50
        E 68 90 28 50
        E 616 90 40 00
        E 0 90 39 00
        E 0 90 32 00
        E 0 90 2d 00
        E 0 90 28 00
        E 2 90 43 00
        E 2 90 43 50
        E 66 90 40 50
        E 68 90 39 50
        E 70 90 32 50
        E 68 90 2d 50
        E 68 90 28 50
        E 616 90 40 00
        E 0 90 39 00
        E 0 90 32 00
        E 0 90 2d 00
        E 0 90 28 00
        E 2 90 43 00
        E 2 90 43 50
        E 66 90 40 50
        E 68 90 39 50
        E 70 90 32 50
        E 68 90 2d 50
        E 68 90 28 50
        E 616 90 40 00
        E 0 90 39 00
        E 0 90 32 00
        E 0 90 2d 00
        E 0 90 28 00
        E 2 90 43 00
        E 2 90 43 50
        E 66 90 40 50
        E 68 90 39 50
        E 70 90 32 50
        E 68 90 2d 50
        E 68 90 28 50
        E 616 90 40 00
        E 0 90 39 00
        E 0 90 32 00
        E 0 90 2d 00
        E 0 90 28 00
        E 2 90 43 00
        E 2 90 43 50
        E 66 90 40 50
        E 68 90 39 50
        E 70 90 32 50
        E 68 90 2d 50
        E 68 90 28 50
        E 616 90 40 00
        E 0 90 39 00
        E 0 90 32 00
        E 0 90 2d 00
        E 0 90 28 00
        E 2 90 43 00
        E 2 90 43 50
        E 66 90 40 50
        E 68 90 39 50
        E 70 90 32 50
        E 68 90 2d 50
        E 68 90 28 50
        E 616 90 40 00
        E 0 90 39 00
        E 0 90 32 00
        E 0 90 2d 00
        E 0 90 28 00
        E 2 90 43 00
        E 2 90 43 50
        E 66 90 40 50
        E 68 90 39 50
        E 70 90 32 50
        E 68 90 2d 50
        E 68 90 28 50
        E 616 90 40 00
        E 0 90 39 00
        E 0 90 32 00
        E 0 90 2d 00
        E 0 90 28 00
        E 2 90 43 00
        E 2 90 43 50
        E 66 90 40 50
        E 68 90 39 50
        E 70 90 32 50
        E 68 90 2d 50
        E 68 90 28 50
        E 616 90 40 00
        E 0 90 39 00
        E 0 90 32 00
        E 0 90 2d 00
        E 0 90 28 00
        E 2 90 43 00
        E 2 90 43 50
        E 66 90 40 50
        E 68 90 39 50
        E 70 90 32 50
        E 68 90 2d 50
        E 68 90 28 50
        E 616 90 40 00
        E 0 90 39 00
        E 0 90 32 00
        E 0 90 2d 00
        E 0 90 28 00
        E 2 90 43 00
        E 2 90 43 50
        E 66 90 40 50
        E 68 90 39 50
        E 70 90 32 50
        E 68 90 2d 50
        E 68 90 28 50
        E 616 90 40 00
        E 0 90 39 00
        E 0 90 32 00
        E 0 90 2d 00
        E 0 90 28 00
        E 2 90 43 00
        E 2 90 43 50
        E 66 90 40 50
        E 68 90 39 50
        E 70 90 32 50
        E 68 90 2d 50
        E 68 90 28 50
        E 616 90 40 00
        E 0 90 39 00
        E 0 90 32 00
        E 0 90 2d 00
        E 0 90 28 00
        E 2 90 43 00
        E 2 90 43 50
        E 66 90 40 50
        E 68 90 39 50
        E 70 90 32 50
        E 68 90 2d 50
        E 68 90 28 50
        E 616 90 40 00
        E 0 90 39 00
        E 0 90 32 00
        E 0 90 2d 00
        E 0 90 28 00
        E 2 90 43 00
        E 2 90 43 50
        E 66 90 40 50
        E 68 90 39 50
        E 70 90 32 50
        E 68 90 2d 50
        E 68 90 28 50
        E 616 90 40 00
        E 0 90 39 00
        E 0 90 32 00
        E 0 90 2d 00
        E 0 90 28 00
        E 2 90 43 00
        E 2 90 43 50
        E 66 90 40 50
        E 68 90 39 50
        E 70 90 32 50
        E 68 90 2d 50
        E 68 90 28 50
        E 616 90 40 00
        E 0 90 39 00
        E 0 90 32 00
        E 0 90 2d 00
        E 0 90 28 00
        E 2 90 43 00
        E 2 90 43 50
        E 66 90 40 50
        E 68 90 39 50
        E 70 90 32 50
        E 68 90 2d 50
        E 68 90 28 50
        E 616 90 40 00
        E 0 90 39 00
        E 0 90 32 00
        E 0 90 2d 00
        E 0 90 28 00
        E 2 90 43 00
        E 2 90 43 50
        E 66 90 40 50
        E 68 90 39 50
        E 70 90 32 50
        E 68 90 2d 50
        E 68 90 28 50
        E 616 90 40 00
        E 0 90 39 00
        E 0 90 32 00
        E 0 90 2d 00
        E 0 90 28 00
        E 2 90 43 00
        E 2 90 43 50
        E 66 90 40 50
        E 68 90 39 50
        E 70 90 32 50
        E 68 90 2d 50
        E 68 90 28 50
        E 616 90 40 00
        E 0 90 39 00
        E 0 90 32 00
        E 0 90 2d 00
        E 0 90 28 00
        E 2 90 43 00
        E 2 90 43 50
        E 66 90 40 50
        E 68 90 39 50
        E 70 90 32 50
        E 68 90 2d 50
        E 68 90 28 50
        E 616 90 40 00
        E 0 90 39 00
        E 0 90 32 00
        E 0 90 2d 00
        E 0 90 28 00
        E 2 90 43 00
        E 2 90 43 50
        E 66 90 40 50
        E 68 90 39 50
        E 70 90 34 50
        E 68 90 2d 50
        E 68 90 28 50
        E 616 90 40 00
        E 0 90 39 00
        E 0 90 34 00
        E 0 90 2d 00
        E 0 90 28 00
        E 2 90 43 00
        E 2 90 43 50
        E 66 90 40 50
        E 68 90 39 50
        E 70 90 34 50
        E 68 90 2d 50
        E 68 90 28 50
        E 616 90 40 00
        E 0 90 39 00
        E 0 90 34 00
        E 0 90 2d 00
        E 0 90 28 00
        E 2 90 43 00
        E 2 90 43 50
        E 66 90 40 50
        E 68 90 39 50
        E 70 90 34 50
        E 68 90 2d 50
        E 68 90 28 50
        E 616 90 40 00
        E 0 90 39 00
        E 0 90 34 00
        E 0 90 2d 00
        E 0 90 28 00
        E 2 90 43 00
        E 2 90 43 50
        E 66 90 40 50
        E 68 90 39 50
        E 70 90 34 50
        E 68 90 2d 50
        E 68 90 28 50
        E 616 90 40 00
        E 0 90 39 00
        E 0 90 34 00
        E 0 90 2d 00
        E 0 90 28 00
        E 2 90 43 00
        E 2 90 43 50
        E 66 90 40 50
        E 68 90 39 50
        E 70 90 34 50
        E 68 90 2d 50
        E 68 90 28 50
        E 616 90 40 00
        E 0 90 39 00
        E 0 90 34 00
        E 0 90 2d 00
        E 0 90 28 00
        E 2 90 43 00
        E 2 90 43 50
        E 66 90 40 50
        E 68 90 39 50
        E 70 90 34 50
        E 68 90 2d 50
        E 68 90 28 50
        E 616 90 40 00
        E 0 90 39 00
        E 0 90 34 00
        E 0 90 2d 00
        E 0 90 28 00
        E 2 90 43 00
        E 2 90 43 50
        E 66 90 40 50
        E 68 90 39 50
        E 70 90 34 50
        E 68 90 2d 50
        E 68 90 28 50
        E 616 90 40 00
        E 0 90 39 00
        E 0 90 34 00
        E 0 90 2d 00
        E 0 90 28 00
        E 2 90 43 00
        E 2 90 43 50
        E 66 90 40 50
        E 68 90 39 50
        E 70 90 34 50
        E 68 90 2d 50
        E 68 90 28 50
        E 616 90 40 00
        E 0 90 39 00
        E 0 90 34 00
        E 0 90 2d 00
        E 0 90 28 00
        E 2 90 43 00
        E 2 90 43 50
        E 66 90 40 50
        E 68 90 39 50
        E 70 90 34 50
        E 68 90 2d 50
        E 68 90 28 50
        E 616 90 40 00
        E 0 90 39 00
        E 0 90 34 00
        E 0 90 2d 00
        E 0 90 28 00
        E 2 90 43 00
        E 2 90 43 50
        E 66 90 40 50
        E 68 90 39 50
        E 70 90 34 50
        E 68 90 2d 50
        E 68 90 28 50
        E 616 90 40 00
        E 0 90 39 00
        E 0 90 34 00
        E 0 90 2d 00
        E 0 90 28 00
        E 2 90 43 00
        E 2 90 43 50
        E 66 90 40 50
        E 68 90 39 50
        E 70 90 34 50
        E 68 90 2d 50
        E 68 90 28 50
        E 616 90 40 00
        E 0 90 39 00
        E 0 90 34 00
        E 0 90 2d 00
        E 0 90 28 00
        E 2 90 43 00
        E 2 90 43 50
        E 66 90 40 50
        E 68 90 39 50
        E 70 90 34 50
        E 68 90 2d 50
        E 68 90 28 50
        E 616 90 40 00
        E 0 90 39 00
        E 0 90 34 00
        E 0 90 2d 00
        E 0 90 28 00
        E 2 90 43 00
        E 38402 90 2a 50
        E 66 90 2f 50
        E 68 90 34 50
        E 70 90 3b 50
        E 68 90 3e 50
        E 68 90 43 50
        E 616 90 2f 00
        E 0 90 34 00
        E 0 90 3b 00
        E 0 90 3e 00
        E 0 90 43 00
        E 2 90 2a 00
        E 2 90 28 50
        E 66 90 2d 50
        E 68 90 34 50
        E 70 90 3b 50
        E 68 90 3e 50
        E 68 90 43 50
        E 616 90 2d 00
        E 0 90 34 00
        E 0 90 3b 00
        E 0 90 3e 00
        E 0 90 43 00
        E 2 90 28 00
        E 2 90 2b 50
        E 66 90 30 50
        E 68 90 34 50
        E 70 90 3b 50
        E 68 90 3e 50
        E 68 90 43 50
        E 616 90 30 00
        E 0 90 34 00
        E 0 90 3b 00
        E 0 90 3e 00
        E 0 90 43 00
        E 2 90 2b 00
        E 2 90 2b 50
        E 66 90 30 50
        E 68 90 34 50
        E 70 90 3b 50
        E 68 90 3e 50
        E 68 90 43 50
        E 616 90 30 00
        E 0 90 34 00
        E 0 90 3b 00
        E 0 90 3e 00
        E 0 90 43 00
        E 2 90 2b 00
        E 2 90 2b 50
        E 66 90 30 50
        E 68 90 35 50
        E 70 90 3c 50
        E 68 90 40 50
        E 68 90 43 50
        E 616 90 30 00
        E 0 90 35 00
        E 0 90 3c 00
        E 0 90 40 00
        E 0 90 43 00
        E 2 90 2b 00
        E 2 90 2b 50
        E 66 90 30 50
        E 68 90 35 50
        E 70 90 3c 50
        E 68 90 40 50
        E 68 90 43 50
        E 616 90 30 00
        E 0 90 35 00
        E 0 90 3c 00
        E 0 90 40 00
        E 0 90 43 00
        E 2 90 2b 00
        E 2 90 2b 50
        E 66 90 30 50
        E 68 90 35 50
        E 70 90 3c 50
        E 68 90 40 50
        E 68 90 43 50
        E 616 90 30 00
        E 0 90 35 00
        E 0 90 3c 00
        E 0 90 40 00
        E 0 90 43 00
        E 2 90 2b 00
        E 2 90 2b 50
        E 66 90 30 50
        E 68 90 35 50
        E 70 90 3c 50
        E 68 90 40 50
        E 68 90 43 50
        E 616 90 30 00
        E 0 90 35 00
        E 0 90 3c 00
        E 0 90 40 00
        E 0 90 43 00
        E 2 90 2b 00
        E 2 90 2b 50
        E 66 90 30 50
        E 68 90 35 50
        E 70 90 3c 50
        E 68 90 40 50
        E 68 90 43 50
        E 616 90 30 00
        E 0 90 35 00
        E 0 90 3c 00
        E 0 90 40 00
        E 0 90 43 00
        E 2 90 2b 00
        E 2 90 2b 50
        E 66 90 30 50
        E 68 90 35 50
        E 70 90 3c 50
        E 68 90 40 50
        E 68 90 43 50
        E 616 90 30 00
        E 0 90 35 00
        E 0 90 3c 00
        E 0 90 40 00
        E 0 90 43 00
        E 2 90 2b 00
        E 2 90 2b 50
        E 66 90 30 50
        E 68 90 35 50
        E 70 90 3c 50
        E 68 90 40 50
        E 68 90 43 50
        E 616 90 30 00
        E 0 90 35 00
        E 0 90 3c 00
        E 0 90 40 00
        E 0 90 43 00
        E 2 90 2b 00
        E 2 90 2b 50
        E 66 90 30 50
        E 68 90 35 50
        E 70 90 3c 50
        E 68 90 40 50
        E 68 90 43 50
        E 616 90 30 00
        E 0 90 35 00
        E 0 90 3c 00
        E 0 90 40 00
        E 0 90 43 00
        E 2 90 2b 00
        E 2 90 2b 50
        E 66 90 30 50
        E 68 90 35 50
        E 70 90 3c 50
        E 68 90 40 50
        E 68 90 43 50
        E 616 90 30 00
        E 0 90 35 00
        E 0 90 3c 00
        E 0 90 40 00
        E 0 90 43 00
        E 2 90 2b 00
        E 2 90 2b 50
        E 66 90 30 50
        E 68 90 35 50
        E 70 90 3c 50
        E 68 90 40 50
        E 68 90 43 50
        E 616 90 30 00
        E 0 90 35 00
        E 0 90 3c 00
        E 0 90 40 00
        E 0 90 43 00
        E 2 90 2b 00
        E 2 90 2b 50
        E 66 90 30 50
        E 68 90 35 50
        E 70 90 3c 50
        E 68 90 40 50
        E 68 90 43 50
        E 616 90 30 00
        E 0 90 35 00
        E 0 90 3c 00
        E 0 90 40 00
        E 0 90 43 00
        E 2 90 2b 00
        E 2 90 2b 50
        E 66 90 30 50
        E 68 90 35 50
        E 70 90 3c 50
        E 68 90 40 50
        E 68 90 43 50
        E 616 90 30 00
        E 0 90 35 00
        E 0 90 3c 00
        E 0 90 40 00
        E 0 90 43 00
        E 2 90 2b 00
        E 2 90 43 50
        E 66 90 40 50
        E 68 90 39 50
        E 70 90 34 50
        E 68 90 2d 50
        E 68 90 28 50
        E 616 90 40 00
        E 0 90 39 00
        E 0 90 34 00
        E 0 90 2d 00
        E 0 90 28 00
        E 2 90 43 00
        E 2 90 43 50
        E 66 90 40 50
        E 68 90 39 50
        E 70 90 34 50
        E 68 90 2d 50
        E 68 90 28 50
        E 616 90 40 00
        E 0 90 39 00
        E 0 90 34 00
        E 0 90 2d 00
        E 0 90 28 00
        E 2 90 43 00
        E 2 90 43 50
        E 66 90 40 50
        E 68 90 39 50
        E 70 90 34 50
        E 68 90 2d 50
        E 68 90 28 50
        E 616 90 40 00
        E 0 90 39 00
        E 0 90 34 00
        E 0 90 2d 00
        E 0 90 28 00
        E 2 90 43 00
        E 2 90 43 50
        E 66 90 40 50
        E 68 90 39 50
        E 70 90 34 50
        E 68 90 2d 50
        E 68 90 28 50
        E 616 90 40 00
        E 0 90 39 00
        E 0 90 34 00
        E 0 90 2d 00
        E 0 90 28 00
        E 2 90 43 00
        E 2 90 43 50
        E 66 90 40 50
        E 68 90 39 50
        E 70 90 34 50
        E 68 90 2d 50
        E 68 90 28 50
        E 616 90 40 00
        E 0 90 39 00
        E 0 90 34 00
        E 0 90 2d 00
        E 0 90 28 00
        E 2 90 43 00
        E 2 90 43 50
        E 66 90 40 50
        E 68 90 39 50
        E 70 90 34 50
        E 68 90 2d 50
        E 68 90 28 50
        E 616 90 40 00
        E 0 90 39 00
        E 0 90 34 00
        E 0 90 2d 00
        E 0 90 28 00
        E 2 90 43 00
        E 2 90 43 50
        E 66 90 40 50
        E 68 90 39 50
        E 70 90 34 50
        E 68 90 2d 50
        E 68 90 28 50
        E 616 90 40 00
        E 0 90 39 00
        E 0 90 34 00
        E 0 90 2d 00
        E 0 90 28 00
        E 2 90 43 00
        E 2 90 43 50
        E 66 90 40 50
        E 68 90 39 50
        E 70 90 34 50
        E 68 90 2d 50
        E 68 90 28 50
        E 616 90 40 00
        E 0 90 39 00
        E 0 90 34 00
        E 0 90 2d 00
        E 0 90 28 00
        E 2 90 43 00
        E 2 90 43 50
        E 66 90 40 50
        E 68 90 39 50
        E 70 90 34 50
        E 68 90 2d 50
        E 68 90 28 50
        E 616 90 40 00
        E 0 90 39 00
        E 0 90 34 00
        E 0 90 2d 00
        E 0 90 28 00
        E 2 90 43 00
        E 2 90 43 50
        E 66 90 40 50
        E 68 90 39 50
        E 70 90 34 50
        E 68 90 2d 50
        E 68 90 28 50
        E 616 90 40 00
        E 0 90 39 00
        E 0 90 34 00
        E 0 90 2d 00
        E 0 90 28 00
        E 2 90 43 00
        E 2 90 43 50
        E 66 90 40 50
        E 68 90 39 50
        E 70 90 34 50
        E 68 90 2d 50
        E 68 90 28 50
        E 616 90 40 00
        E 0 90 39 00
        E 0 90 34 00
        E 0 90 2d 00
        E 0 90 28 00
        E 2 90 43 00
        E 2 90 43 50
        E 66 90 40 50
        E 68 90 39 50
        E 70 90 34 50
        E 68 90 2d 50
        E 68 90 28 50
        E 616 90 40 00
        E 0 90 39 00
        E 0 90 34 00
        E 0 90 2d 00
        E 0 90 28 00
        E 2 90 43 00
        E 2 90 43 50
        E 66 90 40 50
        E 68 90 39 50
        E 70 90 34 50
        E 68 90 2d 50
        E 68 90 28 50
        E 616 90 40 00
        E 0 90 39 00
        E 0 90 34 00
        E 0 90 2d 00
        E 0 90 28 00
        E 2 90 43 00
        E 2 90 43 50
        E 66 90 40 50
        E 68 90 39 50
        E 70 90 34 50
        E 68 90 2d 50
        E 68 90 28 50
        E 616 90 40 00
        E 0 90 39 00
        E 0 90 34 00
        E 0 90 2d 00
        E 0 90 28 00
        E 2 90 43 00
        E 2 90 43 50
        E 66 90 40 50
        E 68 90 39 50
        E 70 90 34 50
        E 68 90 2d 50
        E 68 90 28 50
        E 616 90 40 00
        E 0 90 39 00
        E 0 90 34 00
        E 0 90 2d 00
        E 0 90 28 00
        E 2 90 43 00
        E 2 90 43 50
        E 66 90 40 50
        E 68 90 39 50
        E 70 90 34 50
        E 68 90 2d 50
        E 68 90 28 50
        E 616 90 40 00
        E 0 90 39 00
        E 0 90 34 00
        E 0 90 2d 00
        E 0 90 28 00
        E 2 90 43 00
        E 7682 90 43 50
        E 66 90 40 50
        E 68 90 39 50
        E 70 90 34 50
        E 68 90 2d 50
        E 68 90 28 50
        E 616 90 40 00
        E 0 90 39 00
        E 0 90 34 00
        E 0 90 2d 00
        E 0 90 28 00
        E 2 90 43 00
        E 2 90 43 50
        E 66 90 40 50
        E 68 90 39 50
        E 70 90 34 50
        E 68 90 2d 50
        E 68 90 28 50
        E 616 90 40 00
        E 0 90 39 00
        E 0 90 34 00
        E 0 90 2d 00
        E 0 90 28 00
        E 2 90 43 00
        E 2 90 43 50
        E 66 90 40 50
        E 68 90 39 50
        E 70 90 34 50
        E 68 90 2d 50
        E 68 90 28 50
        E 616 90 40 00
        E 0 90 39 00
        E 0 90 34 00
        E 0 90 2d 00
        E 0 90 28 00
        E 2 90 43 00
        E 2 90 43 50
        E 66 90 40 50
        E 68 90 39 50
        E 70 90 34 50
        E 68 90 2d 50
        E 68 90 28 50
        E 616 90 40 00
        E 0 90 39 00
        E 0 90 34 00
        E 0 90 2d 00
        E 0 90 28 00
        E 2 90 43 00
        E 15362 b0 7b 00
        CCINTERP 32
        CHASE_CC_TAKEOFFS 1
        GUID {FAC386CF-3380-494E-AFE3-B58C5F89F385}
        IGNTEMPO 0 120 4 4
        SRCCOLOR 136105
        VELLANE -1 100 0
        VELLANE 131 100 0
        CFGEDITVIEW 0 1.671598 56 12 0 -1 0 0 0 0.5
        KEYSNAP 0
        TRACKSEL 283
        EVTFILTER 0 -1 -1 -1 -1 0 0 0 0 -1 -1 -1 -1 0 -1 0 -1 -1
        CFGEDIT 1 1 0 1 1 0 1 3 1 1 1 1 385 670 1329 1692 0 0 1 2 0 0 0 0 0 0.5 1 0 1 64
      >
    >
    <ITEM
      POSITION 52.5
      SNAPOFFS 0
      LENGTH 11.484375
      LOOP 0
      ALLTAKES 0
      FADEIN 1 0 0 1 0 0 0
      FADEOUT 1 0 0 1 0 0 0
      MUTE 0 0
      SEL 0
      IGUID {D6C2BBE0-5FAA-424E-B06E-A6D68F745513}
      IID 2230
      NAME "untitled MIDI item-glued"
      VOLPAN 1 0 1 -1
      SOFFS 0 0
      PLAYRATE 1 1 0 -1 0 0.0025
      CHANMODE 0
      GUID {0331CE9F-F2BF-4839-88B1-06BF3D8B5821}
      <SOURCE MIDI
        HASDATA 1 960 QN
        CCINTERP 32
        POOLEDEVTS {CA26FD7E-78AA-4993-ABFE-17F58F240381}
        E 0 90 39 5f
        E 240 90 3b 5e
        E 240 90 3e 60
        E 0 90 43 60
        <X 2400 0
          /w9UVVBMIDM6MiBsZW4gMS4wMDAwMDAgc3RhZmYgMQ==
        >
        E 302 80 39 00
        E 0 80 3b 00
        E 0 80 3e 00
        E 0 80 43 00
        E 18 90 39 60
        E 0 90 3b 5f
        E 0 90 3e 5f
        E 0 90 43 5f
        E 320 80 39 00
        E 0 80 3b 00
        E 0 80 3e 00
        E 0 80 43 00
        E 0 90 3d 61
        E 0 90 45 59
        E 0 90 40 59
        E 0 90 49 60
        E 8000 80 45 00
        E 0 80 40 00
        E 0 80 49 00
        E 21 80 3d 00
        E 219 b0 7b 00
        CCINTERP 32
        CHASE_CC_TAKEOFFS 1
        GUID {294C52BB-A80C-455B-9530-71D91C251084}
        IGNTEMPO 0 120 4 4
        SRCCOLOR 136111
        VELLANE 132 100 0
        VELLANE -1 100 0
      >
    >
    <ITEM
      POSITION 158.67674891988401
      SNAPOFFS 0
      LENGTH 71.61290799997732
      LOOP 0
      ALLTAKES 0
      FADEIN 1 0 0 1 0 0 0
      FADEOUT 1 0 0 1 0 0 0
      MUTE 0 0
      SEL 0
      IGUID {61AE1181-2C66-4A27-8F41-60A8150C22C0}
      IID 45
      NAME "Harpsichord - Exiled_(Coda)-glued"
      VOLPAN 1 0 1 -1
      SOFFS 0 0
      PLAYRATE 1 1 0 -1 0 0.0025
      CHANMODE 0
      GUID {487254D7-10BB-446D-B568-534D38C304EE}
      <SOURCE MIDI
        HASDATA 1 960 QN
        CCINTERP 32
        POOLEDEVTS {23B5F29C-2225-45C7-96A1-5F6AECFFD59C}
        E 0 91 38 60
        E 0 93 38 50
        E 238 91 38 00
        E 2 91 44 60
        E 238 91 44 00
        E 482 93 38 00
        E 0 91 42 60
        E 0 93 36 50
        E 238 91 42 00
        E 2 91 46 60
        E 238 91 46 00
        E 482 91 42 60
        E 238 91 42 00
        E 2 91 46 60
        E 238 91 46 00
        E 482 91 42 60
        E 238 91 42 00
        E 2 91 46 60
        E 238 91 46 00
        E 482 93 36 00
        E 0 91 35 60
        E 0 93 35 50
        E 238 91 35 00
        E 722 93 35 00
        E 0 91 33 60
        E 0 93 33 50
        E 238 91 33 00
        E 2 91 46 60
        E 238 91 46 00
        E 482 91 33 60
        E 238 91 33 00
        E 2 91 46 60
        E 238 91 46 00
        E 482 93 33 00
        E 0 91 31 60
        E 0 93 31 50
        E 238 91 31 00
        E 2 91 41 60
        E 238 91 41 00
        E 482 93 31 00
        E 0 91 31 60
        E 0 93 31 50
        E 238 91 31 00
        E 2 91 41 60
        E 238 91 41 00
        E 482 93 31 00
        E 0 91 31 60
        E 0 93 31 50
        E 238 91 31 00
        E 2 91 3a 60
        E 238 91 3a 00
        E 2 91 44 60
        E 238 91 44 00
        E 2 91 49 60
        E 238 91 49 00
        E 2 93 31 00
        E 0 91 30 60
        E 0 93 31 50
        E 0 93 48 50
        E 238 91 30 00
        E 2 91 44 60
        E 238 91 44 00
        E 2 91 48 60
        E 238 91 48 00
        E 2 91 31 60
        E 238 91 31 00
        E 2 93 31 00
        E 0 93 48 00
        E 0 91 41 60
        E 0 93 31 50
        E 238 91 41 00
        E 2 91 44 60
        E 238 91 44 00
        E 2 91 49 60
        E 238 91 49 00
        E 2 91 31 60
        E 238 91 31 00
        E 2 91 41 60
        E 238 91 41 00
        E 2 91 44 60
        E 238 91 44 00
        E 2 91 31 60
        E 238 91 31 00
        E 2 91 40 60
        E 238 91 40 00
        E 2 93 31 00
        E 0 91 43 60
        E 0 93 34 50
        E 238 91 43 00
        E 2 91 49 60
        E 238 91 49 00
        E 2 91 31 60
        E 238 91 31 00
        E 2 91 40 60
        E 238 91 40 00
        E 2 93 34 00
        E 0 91 38 60
        E 0 93 38 50
        E 238 91 38 00
        E 2 91 44 60
        E 238 91 44 00
        E 482 93 38 00
        E 0 91 36 60
        E 0 93 36 50
        E 238 91 36 00
        E 2 91 46 60
        E 238 91 46 00
        E 482 91 36 60
        E 238 91 36 00
        E 2 91 46 60
        E 238 91 46 00
        E 482 91 36 60
        E 238 91 36 00
        E 2 91 46 60
        E 238 91 46 00
        E 482 93 36 00
        E 0 91 35 60
        E 0 93 35 50
        E 238 91 35 00
        E 722 93 35 00
        E 0 91 33 60
        E 0 93 33 50
        E 238 91 33 00
        E 2 91 46 60
        E 238 91 46 00
        E 482 91 33 60
        E 238 91 33 00
        E 2 91 46 60
        E 238 91 46 00
        E 482 93 33 00
        E 0 91 31 60
        E 0 93 31 50
        E 0 93 49 50
        E 238 91 31 00
        E 2 91 41 60
        E 238 91 41 00
        E 2 91 44 60
        E 238 91 44 00
        E 2 91 49 60
        E 238 91 49 00
        E 2 93 31 00
        E 0 93 49 00
        E 0 91 31 60
        E 0 93 31 50
        E 0 93 49 50
        E 238 91 31 00
        E 2 91 41 60
        E 238 91 41 00
        E 2 91 46 60
        E 238 91 46 00
        E 2 91 49 60
        E 238 91 49 00
        E 2 93 31 00
        E 0 93 49 00
        E 0 91 31 60
        E 0 93 31 50
        E 0 93 49 50
        E 238 91 31 00
        E 2 91 3a 60
        E 238 91 3a 00
        E 2 91 44 60
        E 238 91 44 00
        E 2 91 49 60
        E 238 91 49 00
        E 2 93 31 00
        E 0 93 49 00
        E 0 91 3f 60
        E 0 93 31 50
        E 0 93 48 50
        E 0 93 49 50
        E 238 91 3f 00
        E 2 91 44 60
        E 238 91 44 00
        E 2 91 48 60
        E 238 91 48 00
        E 2 91 31 60
        E 238 91 31 00
        E 2 93 31 00
        E 0 93 48 00
        E 0 93 49 00
        E 0 91 41 60
        E 0 93 31 50
        E 0 93 49 50
        E 238 91 41 00
        E 2 91 44 60
        E 238 91 44 00
        E 2 91 49 60
        E 238 91 49 00
        E 2 91 31 60
        E 238 91 31 00
        E 2 91 44 60
        E 238 91 44 00
        E 2 91 49 5f
        E 238 91 49 00
        E 2 91 31 60
        E 238 91 31 00
        E 2 91 40 60
        E 238 91 40 00
        E 2 91 43 60
        E 238 91 43 00
        E 2 91 49 60
        E 238 91 49 00
        E 2 91 31 60
        E 238 91 31 00
        E 2 91 40 60
        E 238 91 40 00
        E 2 93 31 00
        E 0 93 49 00
        E 0 91 33 50
        E 0 93 33 50
        E 0 93 48 50
        E 0 93 4b 50
        E 238 91 33 00
        E 2 91 3a 50
        E 238 91 3a 00
        E 2 91 44 50
        E 238 91 44 00
        E 242 93 33 00
        E 0 93 48 00
        E 0 93 4b 00
        E 0 91 36 60
        E 0 93 36 50
        E 0 93 49 50
        E 238 91 36 00
        E 2 91 46 60
        E 238 91 46 00
        E 482 93 36 00
        E 0 93 49 00
        E 0 91 38 60
        E 0 93 38 50
        E 0 93 4b 50
        E 238 91 38 00
        E 2 91 44 60
        E 238 91 44 00
        E 482 93 38 00
        E 0 93 4b 00
        E 0 91 42 60
        E 0 93 36 50
        E 0 93 49 50
        E 238 91 42 00
        E 2 91 46 60
        E 238 91 46 00
        E 482 91 42 60
        E 238 91 42 00
        E 2 91 46 60
        E 238 91 46 00
        E 482 91 42 60
        E 238 91 42 00
        E 2 91 46 60
        E 238 91 46 00
        E 482 93 36 00
        E 0 93 49 00
        E 0 91 33 60
        E 0 93 35 50
        E 0 93 48 50
        E 238 91 33 00
        E 2 91 46 60
        E 238 91 46 00
        E 482 93 35 00
        E 0 93 48 00
        E 0 91 33 60
        E 0 93 33 50
        E 0 93 49 50
        E 0 93 4b 50
        E 238 91 33 00
        E 2 91 46 60
        E 238 91 46 00
        E 482 93 33 00
        E 0 93 49 00
        E 0 93 4b 00
        E 0 91 31 60
        E 0 93 31 50
        E 0 93 49 50
        E 238 91 31 00
        E 2 91 41 60
        E 238 91 41 00
        E 2 91 44 60
        E 238 91 44 00
        E 2 91 49 60
        E 238 91 49 00
        E 2 91 31 60
        E 238 91 31 00
        E 2 91 41 60
        E 238 91 41 00
        E 2 91 46 60
        E 238 91 46 00
        E 2 91 49 60
        E 238 91 49 00
        E 2 93 31 00
        E 0 93 49 00
        E 0 91 33 60
        E 0 93 33 50
        E 0 93 4b 50
        E 238 91 33 00
        E 2 91 3f 60
        E 238 91 3f 00
        E 2 91 42 60
        E 238 91 42 00
        E 2 91 4b 60
        E 238 91 4b 00
        E 2 93 33 00
        E 0 93 4b 00
        E 0 91 33 60
        E 0 93 33 50
        E 0 93 4b 50
        E 238 91 33 00
        E 2 91 3a 60
        E 238 91 3a 00
        E 2 91 44 60
        E 238 91 44 00
        E 2 91 4b 60
        E 238 91 4b 00
        E 2 93 33 00
        E 0 93 4b 00
        E 0 91 33 60
        E 0 93 33 50
        E 0 93 4b 50
        E 238 91 33 00
        E 2 91 42 60
        E 238 91 42 00
        E 2 91 46 60
        E 238 91 46 00
        E 2 91 49 60
        E 238 91 49 00
        E 2 93 33 00
        E 0 93 4b 00
        E 0 91 33 60
        E 0 93 33 50
        E 0 93 4a 50
        E 0 93 4b 50
        E 238 91 33 00
        E 2 91 42 60
        E 238 91 42 00
        E 2 91 46 60
        E 238 91 46 00
        E 2 91 4a 60
        E 238 91 4a 00
        E 2 93 33 00
        E 0 93 4a 00
        E 0 93 4b 00
        E 0 91 32 60
        E 0 93 32 50
        E 0 93 4a 50
        E 238 91 32 00
        E 2 91 41 60
        E 238 91 41 00
        E 2 91 44 60
        E 238 91 44 00
        E 2 91 4a 60
        E 238 91 4a 00
        E 2 91 32 60
        E 238 91 32 00
        E 2 91 41 60
        E 238 91 41 00
        E 2 91 44 60
        E 238 91 44 00
        E 2 91 4a 60
        E 238 91 4a 00
        E 2 91 32 60
        E 238 91 32 00
        E 2 91 41 60
        E 238 91 41 00
        E 2 91 44 60
        E 238 91 44 00
        E 2 91 4a 60
        E 238 91 4a 00
        E 2 93 32 00
        E 0 93 4a 00
        E 0 91 32 60
        E 0 93 32 50
        E 0 93 4a 50
        E 238 91 32 00
        E 2 91 41 60
        E 238 91 41 00
        E 2 91 44 60
        E 238 91 44 00
        E 2 91 4a 60
        E 238 91 4a 00
        E 2 93 32 00
        E 0 93 4a 00
        E 0 91 32 60
        E 0 93 3e 50
        E 240 91 42 60
        E 238 91 42 00
        E 2 91 45 60
        E 0 90 32 5f
        E 238 91 45 00
        E 0 80 32 00
        E 2 91 4a 60
        E 238 91 4a 00
        E 2 90 32 5f
        E 240 80 32 00
        E 0 91 42 60
        E 0 90 32 5f
        E 238 91 42 00
        E 2 80 32 00
        E 0 91 45 60
        E 238 91 45 00
        E 2 91 4a 60
        E 238 91 32 00
        E 0 91 4a 00
        E 2 91 32 60
        E 240 91 42 60
        E 238 91 42 00
        E 2 91 45 60
        E 0 90 32 5f
        E 238 91 45 00
        E 0 80 32 00
        E 2 90 4a 50
        E 240 80 4a 00
        E 0 90 32 5f
        E 240 80 32 00
        E 0 91 42 60
        E 0 90 32 5f
        E 238 91 42 00
        E 2 80 32 00
        E 0 91 45 60
        E 0 90 32 5f
        E 238 91 45 00
        E 2 91 4a 60
        E 238 91 32 00
        E 0 91 4a 00
        <X 2 0
          /1kCBAA=
        >
        E 0 83 3e 00
        E 0 80 32 00
        E 0 90 32 5f
        E 3840 80 32 00
        E 51 90 32 5f
        E 3840 80 32 00
        E 0 90 32 5f
        E 3840 80 32 00
        e 0 90 32 5f
        E 3804 93 26 50
        E 0 93 3e 50
        E 2 93 35 50
        e 34 80 32 00
        E 429 93 35 00
        E 0 93 2c 50
        E 480 93 3e 00
        E 0 93 2c 00
        E 0 93 35 50
        E 0 93 3e 50
        E 463 93 35 00
        E 0 93 2c 50
        E 480 93 2c 00
        E 2 93 3e 00
        E 0 93 3e 50
        E 15 93 35 50
        E 463 93 35 00
        E 0 93 2c 50
        E 467 93 3e 00
        E 0 93 3e 50
        E 13 93 2c 00
        E 17 93 35 50
        E 463 93 35 00
        E 0 93 2c 50
        E 452 93 3e 00
        E 28 93 2c 00
        E 0 93 35 50
        E 17 93 26 00
        E 0 93 35 00
        E 0 93 26 50
        E 0 93 35 50
        E 0 93 3e 50
        E 446 93 35 00
        E 0 93 2c 50
        E 480 93 2c 00
        E 0 93 35 50
        E 34 93 26 00
        E 0 93 26 50
        E 429 93 38 50
        E 475 93 26 00 56
        E 0 93 26 50
        E 5 93 35 00
        E 0 93 38 00
        E 17 93 35 50
        E 463 93 38 50
        E 475 93 26 00
        E 5 93 35 00
        E 0 93 38 00
        E 17 93 35 50
        E 34 93 26 50
        E 429 93 38 50
        E 480 93 35 00
        E 0 93 38 00
        E 64 93 3e 00
        E 0 93 26 00
        E 0 b0 7b 00
        CCINTERP 32
        CHASE_CC_TAKEOFFS 1
        GUID {D3014763-493E-47B3-8E38-707577198554}
        IGNTEMPO 0 120 4 4
        SRCCOLOR 131543
        VELLANE -1 100 0
        VELLANE 2 100 0
        CFGEDITVIEW 31334.177367 21.242435 44 12 0 -1 0 0 0 0.5
        KEYSNAP 0
        TRACKSEL 283
        EVTFILTER 0 -1 -1 -1 -1 0 0 0 0 -1 -1 -1 -1 0 -1 0 -1 -1
        CFGEDIT 1 1 0 1 1 0 1 2 1 1 1 0.25 814 690 1532 1424 0 0 1 2 0 0 0 1 0 0.2 1 0 1 64
      >
    >
  >
  <TRACK {33417D34-9031-48A3-B5CA-4520CFF2A66D}
    NAME pad
    PEAKCOL 27852793
    BEAT -1
    AUTOMODE 0
    VOLPAN 1 0.52 -1 -1 1
    MUTESOLO 0 0 0
    IPHASE 0
    PLAYOFFS 0 1
    ISBUS 0 0
    BUSCOMP 0 0 0 0 0
    SHOWINMIX 1 0.6667 0.5 1 0.5 -1 -1 -1
    SEL 0
    REC 0 4096 1 0 0 0 0
    VU 2
    TRACKHEIGHT 0 0 0 0 0 0
    INQ 0 0 0 0.5 100 0 0 100
    NCHAN 2
    FX 1
    TRACKID {33417D34-9031-48A3-B5CA-4520CFF2A66D}
    PERF 0
    MIDIOUT -1
    MAINSEND 1 0
    <FXCHAIN
      WNDRECT 347 171 1071 576
      SHOW 0
      LASTSEL 0
      DOCKED 0
      BYPASS 0 0 0
      <VST "VSTi: Absynth 5 (Native Instruments GmbH)" "Absynth 5 Stereo.dll" 0 "" 1131179320<565354436C6D38616273796E74682035> ""
        OG1sQ+5e7f4CAAAAAQAAAAAAAAACAAAAAAAAAAIAAAABAAAAAAAAAAIAAAAAAAAAohUAAAEAAAAAABAA
        ohUAAAAAAAABAAAAaHNpbgEAAAAAAAAADNSXhly5zEOyI5MAnbtkp5YAAAAAAAAARFNJTnYAAAABAAAASAAAAAAAAABEU0lOagAAAAEAAAAYAAAAAAAAAERTSU4BAAAA
        AQAAAAEAAAABAAAAAQAAAAEAAAAAAAAAAAAAAAAAAAANYmWFAQAAAA5wEAAAAAAAAQAAAAEAAAAAAAAAAAAAAAAAAAADAAAAMAAwADAAAAAAAAAAAAAAAAAAAAAAAAEA
        AAABAAAAAAAAAERTSU5lAAAA0BQAAAAAAAABAAAAaHNpbgEAAAAAAAAAanJtEGImREOpLqPe6hOHs2cAAAAAAAAARFNJTmUAAAABAAAANAAAAAAAAABEU0lOagAAAAEA
        AAAYAAAAAAAAAERTSU4BAAAAAQAAAAEAAAABAAAAAgAAAAEAAAAABgAAAAEAAAAHAAAANQAuADAALgAwAC4AMAABAAAAAwAAAAAAAABEU0lObAAAALIBAAAAAAAAAQAA
        AGhzaW4BAAAAAAAAAEKFExlb5ZVOpENv1gYlhWaCAQAAAAAAAERTSU5sAAAAAQAAABgAAAAAAAAARFNJTgEAAAABAAAAAQAAAAEAAAACAAAAAQAAAAAAAAAOAAAAVQBu
        AHQAaQB0AGwAZQBkACAAUwBvAHUAbgBkAAAAAAAAAAAAAAAAAAAAAAAAAAAAAAAAAAAAAAAAAAAAAAAAAAAAAAABAAAAAQAAAAEAAAAHAAAAQQBiAHMAeQBuAHQAaAAA
        AAAAAAAAAAcAAAAHAAAAXABAAGMAbwBsAG8AcgABAAAAMAARAAAAXABAAGQAZQB2AGkAYwBlAHQAeQBwAGUAZgBsAGEAZwBzAAEAAAAxAAsAAABcAEAAcwBvAHUAbgBk
        AHQAeQBwAGUAAQAAADAABwAAAFwAQAB0AGUAbQBwAG8AAQAAADAABgAAAFwAQAB2AGUAcgBsAAYAAAAxAC4ANwAuADEANAAGAAAAXABAAHYAZQByAG0ABgAAADEALgA3
        AC4AMQA0AAcAAABcAEAAdgBpAHMAaQBiAAEAAAAwAAEAAAAAAAAAAgAAAERTSU55AAAAaAAAAAAAAAABAAAAaHNpbgEAAAAAAAAARunc6wuWMkeBq42ZoYuWRDgAAAAA
        AAAARFNJTnkAAAABAAAAGAAAAAAAAABEU0lOAQAAAAEAAAABAAAAAQAAAAEAAAAAAAAAAQAAAAAAAAABAAAARFNJTnQAAAD7EQAAAAAAAAEAAABoc2luAQAAAAAAAAC4
        Mb68F5gVSIUKXh5S4dZ8yxEAAAAAAABEU0lOdAAAAAEAAACyEQAAAAAAAERTSU5zAAAAAQAAABgAAAAAAAAARFNJTgEAAAABAAAAAQAAAAEAAAABY0YAAHkRAAACY0YA
        YAAAASAFA2hzaW5AB0AAEAcORjrk8KJOuWzVLgJm3/wYQBQgAANEU0lOQCPgBwNAAEAbAG0gCAEPRiAEIABAI+ADUxGuZnYUZKycR4Ges7CW6DR430UgJCAAwDdAL+AX
        Z0AjAJegNwADIDsAWqALB3RzcnBtYUxjIBIRACASAAA0Y3RwggAAACAPb+kAIAAICACAP04KtT8AIAcCAAAAQAMEAICI9UAgBQNAAwIAoAAPXkBVbnRpdGxlZCBTb3Vu
        ZKAW4AQACwEAXYgBANVtAQC2uCALABwgHEBNwAPgDAAEZkliTBAgGQK/znZgjeADAAQ0Y3NvoCAQBhoSb+nud6MgkUAAQKXAAwEAAKAXBT+D+SJDAGAX4BEAQSFAA0AA
        AAEgqcAAwAmAB0BbgLOA/EAPA4A/BABAAACAIVOADwIbL30g14ALAAAgAOA/q4CDgADAC0CrA83MTD1AFeAAE0AMYH/gcauBH4AAgI8gByFX4EOrBDE1ZG0oIFwE4I4t
        ugDiAAPAAAGAPyAaBAAOAKNAIvEhhwDwIgMEwEFddEggB0APAYA+IAMgF+ADA+AHAARIQuf7SSAjBvpFAACgQQDgBCsBSEIgV0AAIB9AQ4AAAs3MzCGLwA+ABwKamZkg
        a2AbYAcGAECcRWZmZiA3QFMgAAIcH9ogBSAABNxDMzNzIBcFAAAK1yM8IAbgBQALs2euAgDkPwMA3DoAIFui3yAACYA/MzOzPgEvPOBACwAAIAAC8wQ1IAeACwAAYAcF
        QD8BVggJ4QczQSNAAIAH4f0z4RczAAAgAIEvQADh/TPhFzNBL8ADAADh/TPhGDMAACAA5QFH4v1n4htnQTNCawAA4f0z4RgzQS+myyAA4v1n4hdnAAAgAEEz4v1n4g1n
        A25yR2ZJnwHlOku/gTMABiE3QTMABaJnAAGgF+ABACizAeCrLQsAIClvQAAgD2ADAPDpBG8pHylnaVMgB0AjQACAB+kYb6An6RdvAAHJn2njSecgAAGIs2H7AgAA0CCX
        QAAA4GpngABKU+AXAICjAADpCp8AACmfAzRyU2ZNzeEDMyAAoGtgOw1AIDRjY3wAAABAYPUWACrTBIwuuj0KYCMBgD9ACwQAAABAB2FXgA8BAQBAyyPXIVcAASFXAAEg
        DwAAIA9AKwABIVdADyADAT8BoBNAGwYBAMw92YkdIAtAAEB3gANEKwVBAMw+BQAs1wUxZ2MMGwBuLUEUQANNrwAAICsEFQAAAH8gAwAAIAsAAOAXACC/IMjgIS8gUwEX
        AOAjL48h4CCPIAAAGSAD4CMvABrgIy8CdX2VITbgIV8CEMdTTzDgII8gXwAd4CZfAB7gIy8gXwAf4CMvIL8AIOAjLyBfAAHgAi8HTW9kd2hlZWwgEuAMAAABIF8ACyAZ
        wR8NQ2hhbm5lbCBWb2x1bWUgGOAGAAABIF8jL2KvCgQCAT9QYW4gTFIA4BAAQF8AFCAdQsgD+Pv9PkAvAUZCIBDgDgAADqAXADQgB44PQAAjBy2/AAAgAAAPIANAAAA1
        IATgBB9tvwIAAA0gA0AAQWPgBB8kH0AXQB9BH+AIH6BfQB9Dp+AIH6BfAP8gAEBHIAYA/6BfINogn6BfIBbgDR+gXyAe4A0f4DdfAXy/IIfgEl+gACB+4A1/4AIXQCog
        DuAF3wBwUZeAFyAG4AkfoAAgNuANH+AXnwEFQ2BDID7gDT8B2i7gFR8BJxjgFR8Bf/5wPyBe4A1fAf7I4BUfAY6Q4BUfAfwr4BUfASNRZg8gfuANfwKPiL1BQiAe4A0f
        Avs7vuAUHwGNmOAVHwH+0OAVHwI/A7/gFF8BJxzgFR8B2TLgFR8BBUfgFR8BXljgFR8Bp2bgFR8BqnHgFR8BP3ngFR8BS33gFR8ANeAWHwFwc+AVPwHwXuAVHwGjQOAV
        HwHmGeAVHwHz2OEV3wGwaeAVHwL5v7zhFP8BsTniFd8B9MDgFR8B5g3jFZ8BozTgFR8B8VLgFR8BcGfgFR8BNXHgFR8B/fnhFR8BhAfhFX8BthHgFR8BjxvgFR8BByXg
        FR8BGi7gFR8BwTbgFR8B+D7gFR8BuUbgFR8B/03gFR8BxlTgFR8BClvgFR8Bx2BgHwCBQoQgAEejh18nW0ADAfll4AAfQBtAA+AEHwGeauAAH0e/4AgfAbJu4AAfQAAA
        ByAE4AQ/ATJy4AAfQDvgCB8BHXXgAB9AX+AIHwFxd+AAH0AASGzgBF8BLXngAB9AX+AIHwFPeuAAH0Bf4AgfANbgAR9Ae+AIHwDDgB8mPuYNPwEAciAD4JIfAbptYP8g
        vuANvwGCaeAVHwG6ZOAVHwFlX+AVHwGGWeAVHwEhU+AVHwE5TOAVHwHUROAVHwH1POAVHwGiNOAVHwHfK+AVHwGzIuAVHwAi5hZfATIP4BU/AeoE4BUfAaL05RVfAdfe
        4BUfAYPI4BUfAbSx4BUfAXea4BUfAduC4BUfAdxV4BUfAX4l4BUfAXTp6RXfAVyH4BUfAcWT5xWfoAAjPuMNP6AAIB7gDR/rV9+gACB+4A1/4AIXQCogDuwFf0YDIAAg
        FuAOH4AAIB7gDR/sF3/gAjdASSAO4AV/IA/AF8AHhd+t/+BXnwEA1+IVXwEACOMVf6AAIMbgDr+AACAe4A0fAYJO4BVf4AI3QEkgDuEFHyAPwBfAB+FkP+AXf+AXH+FX
        3+AXf+AXH+D9n+CRnwEAi+0VHwEAiOAWH4AAIgbjDj+AACAe4A0fAM6XXyAe4A0foAAgHuANH+ACF0AqIA7jZb+gACB24A1/4AIXQCogDuBlnwD+QHWAdyAG4Al/II8g
        FkAG4AAH5GT/ARGP4AB3IIZgh+AEf+AClyAeQA7gBR/kV18BTIrgAHcAACAAIH7gBX8gDyAWQAbgAAfgBL/gV58BvIPgAHcAACAAIIbgBX8gDyAWQAbgAAfgZJ8Bxn3g
        AHcghmCH4AR/4AKXIB5ADuAFH+FXPwGZ9+AAdwAAIAAgfuAFfyAPIBYFADR1R2MELyBbn1sPIArgAABAC+ADA08nQA9AB0AD3lNAB0ADAAQgOUAfQAdAA1t3QA9AB0AD
        3U9AB0ADT1dAH0AHQAMACKA/QAdAA09zQB9AB0ADWQdAD0AHQANZR0APQAdAAwAMoD9AB0ADWFtAH0AHQANY60C3QAdAA1jbQB9AB0ADQP8ENGRNYYAgR0EPQBsAAGGn
        CIA+zcxMPfMENSG3gAAhPmE/AADgUh8ENG9mbDAghOAHi1krQAAgGoADIIuAC10LAoA+ASCrAAEgqwABIB9BV0AAQAsAAeAKHwABIBzAP0FjQADgAz/gAx9gCyAgQAMA
        MyAHQABAC+ADAOAHD0AAQBPgBwPAAABIYAhSc0AAQAfgAwPgBwBAG2AAZ7vgBQAA4KGbfusAP+EDOwAAYABAO+G9O0FLQADh/TvhJTtD/0AA4U87BDE0bmUEJOxDs0UT
        AAEidyADAj4BAEALgABAgwABJEFABwACIB8AAyAfAgAATDqvQqNAAEAHQAPgAQACmpmZICPgEQCAW8AzQAdAA8AX4BUADGAm8EAYRSE/308VQADgAgAkVmAAgBIG0D+w
        cmiR7Y/Xo2tAAIBngACACwOAiNVApSvgIE9Av0ADAjMzc+AIWwaAiOVAwpULQBdAA+AAAGCcIACAEOAFnyAWoBeAk4AAgAtA7wYAAIA3AABA4CBPAQMAgAAApLG3gABB
        24AAX6eACYHTQBfAAwACIBOAAIB/AABgB4ALQCNAAOEX34BDgDMAAGAHwAvgAUPgBAACEMdT4AAPAZB7QO9A60AD4AAAISJgAIAQ4QU/YBMAUuAJ70AXQd8gBUALQAPg
        AABgTCAAgBDgBU9A50AD4Qc/QCuAT2AAYA/AACBKYACAD+AFT4GPAYA/4AdPQGMDAMzMPWAHIB8DALNnrkE7QA/AAwICAMwja0AAIB9gAEAHQANAG4AA4RePwH+ALUAH
        QAMgACCxoH8gGyATAy884ABAAEAXwADhL48gAOAH7yASoT9gC2APwAAgcmAAgA/hBT+BC+EJP0Ar4TGP4AmfBHJzZGEgIBdFDwAAIAAA/iCRIAbgDAcDZ3JUYUm3SjtA
        AAA8IAQH8wS1PmRuRXAgCgkAIBIAAGVudXQ0ICADIA9v6SHI4AYADShAbGFjU3VUIGFnbmlu4AYcYAAfKXOWb7tMyD9b2o8mh9HJP45Bid1SVss/yiNO7OAozT8f9A98
        S+pfzj8bormfJzPQPyxvt9zAtNA/X9awk4w50j8fkT2qSli+0z+iCqiH8T/UP8OkowEkQ9U/9guduO/H1j+AXwDYoF8A2aBfANugXwDdoF8A3qBfAOCgXwDgoF8A4qBf
        AOOgXwDkoF8A5aBfAOagXwDooF8A6aBfAOugXwDtoF8A7qBfAPCgXwDwoF8A8qBfAPOgXwD0oF8A9aBfAPagXwD4oF8A+aBfAPugXwD9oF8A/qBfAQBAgR8BAECBHwEC
        QIEfAQNAgR8BBECBHwEFQIEfAQZAgR8BCECBfwEJQIF/AQtAgX8BDUCBfwEOQIF/ABCgXwAQoF8AEqBfABOgXwAUoF8AFaBfABagXwAYoF8AGaBfABugXwAdoF8AHqBf
        ACCgXwAgoF8AIqBfACOgXwAkoF8AJaBfACagXwAooF8AKaBfACugXwAtoF8ALqBfADCgXwAwoF8AMqBfADOgXwA0oF8ANaBfADagXwA4oF8AOaBfADugXwA9oF8APqBf
        AECgXwBAoF8AQqBfAEOgXwBEoF8ARaBfAEagXwBIoF8ASaBfAEugXwBNoF8ATqBfAFCgXwBQoF8AUqBfAFOgXwBUoF8AVaBfAFagXwBYoF8AWaBfAFugXwBdoF8AXqBf
        AGCgXwBgoF8AYqBfAGOgXwBkoF8AZaBfAGagXwBooF8AaaBfAGugXwBtoF8AbqBfAHCgXwBwoF8BckDkAz8AAeT9P+T9P+T9P+QYPwcmIbKBcnrDPoW/5PU/AALkKj8E
        hfrtQbvo/X/o/X/o/X/o7H8AAyQ/AAEslUzzgAAMKEB3ZW5keSBqdXN0XIAS4AYACHfxUcf4xsc/ji/fBGhDyT+mLl8f17/KP4/u+7tdiMw/1W0m+ba4zT9dHB/a9bPP
        PwJWCAkcy1jQPxl1fZU61dE/MZTyIapR0z8EXOs9etDTP0gvHwsZztQ/YNLcOolK1j+AXwDXoF8A2aBfANqgXwDcoF8A3aBfAN+gXwDgoF8A4aBfAOOgXwDjoF8A5KBf
        AOagXwDnoF8A6aBfAOqgXwDsoF8A7aBfAO+gXwDwoF8A8aBfAPOgXwDzoF8A9KBfAPagXwD3oF8A+aBfAPqgXwD8oF8A/aBfAP+gXwEAQIEfAQFAgR8BA0CBHwIDQEhh
        HwEEQIEfAQZAgR8BB0CBfwEJQIF/AQpAgX8BDECBfwENQIF/AQ9AgX8AEKBfABGgXwAToF8AE6BfABSgXwAWoF8AF6BfABmgXwAaoF8AHKBfAB2gXwAfoF8AIKBfACGg
        XwAjoF8AI6BfACSgXwAmoF8AJ6BfACmgXwAqoF8ALKBfAC2gXwAvoF8AMKBfADGgXwAzoF8AM6BfADSgXwA2oF8AN6BfADmgXwA6oF8APKBfAD2gXwA/oF8AQKBfAEGg
        XwBDoF8AQ6BfAESgXwBGoF8AR6BfAEmgXwBKoF8ATKBfAE2gXwBPoF8AUKBfAFGgXwBToF8AU6BfAFSgXwBWoF8AV6BfAFmgXwBaoF8AXKBfAF2gXwBfoF8AYKBfAGGg
        XwBjoF8AY6BfAGSgXwBmoF8AZ6BfAGmgXwBqoF8AbKBfAG2gXwBvoF8AcKBfBXFANDRJcDN8MPoB6n6Mv7LzIABESyRScpsxIvsAc9oDQBsHAACgQgAAQMExhgX/bGlh
        dAAgAASYixMAESAHQAADa25hYoAngABbC2BMQAAHZ3B0Y1lUTUVACwsNYmWFAQAAAAAAAAABAAAAAAEAAAAAAAAA
        ADxkaXNhYmxlZD4AEAAAAA==
      >
      PRESETNAME <disabled>
      FLOATPOS 0 0 0 0
      FXID {101F3669-8BB6-43D2-B3D5-C733911FE41A}
      WAK 0 0
    >
    <ITEM
      POSITION 0
      SNAPOFFS 0
      LENGTH 146.25
      LOOP 0
      ALLTAKES 0
      FADEIN 1 0 0 1 0 0 0
      FADEOUT 1 0 0 1 0 0 0
      MUTE 0 0
      SEL 0
      IGUID {029454AF-66DC-4DDE-8783-883670ECAE5D}
      IID 2221
      NAME Exiled-glued
      VOLPAN 1 0 1 -1
      SOFFS 0 0
      PLAYRATE 1 1 0 -1 0 0.0025
      CHANMODE 0
      GUID {BA8B5B90-7E59-4AB9-B12E-296914273674}
      <SOURCE MIDI
        HASDATA 1 960 QN
        CCINTERP 32
        POOLEDEVTS {64338A8E-BC7B-437D-9888-4CA344B0539C}
        <X 0 0
          /1kCAAA=
        >
        E 3840 90 28 50
        E 66 90 2d 50
        E 68 90 34 50
        E 70 90 3b 50
        E 68 90 3e 50
        E 68 90 43 50
        E 616 90 2d 00
        E 0 90 34 00
        E 0 90 3b 00
        E 0 90 3e 00
        E 0 90 43 00
        E 2 90 28 00
        E 2 90 28 50
        E 66 90 2d 50
        E 68 90 34 50
        E 70 90 3b 50
        E 68 90 3e 50
        E 68 90 43 50
        E 616 90 2d 00
        E 0 90 34 00
        E 0 90 3b 00
        E 0 90 3e 00
        E 0 90 43 00
        E 2 90 28 00
        E 2 90 28 50
        E 66 90 2d 50
        E 68 90 34 50
        E 70 90 3b 50
        E 68 90 3e 50
        E 68 90 43 50
        E 616 90 2d 00
        E 0 90 34 00
        E 0 90 3b 00
        E 0 90 3e 00
        E 0 90 43 00
        E 2 90 28 00
        E 2 90 28 50
        E 66 90 2d 50
        E 68 90 34 50
        E 70 90 3b 50
        E 68 90 3e 50
        E 68 90 43 50
        E 616 90 2d 00
        E 0 90 34 00
        E 0 90 3b 00
        E 0 90 3e 00
        E 0 90 43 00
        E 2 90 28 00
        E 2 90 28 50
        E 66 90 2d 50
        E 68 90 34 50
        E 70 90 3b 50
        E 68 90 3e 50
        E 68 90 43 50
        E 616 90 2d 00
        E 0 90 34 00
        E 0 90 3b 00
        E 0 90 3e 00
        E 0 90 43 00
        E 2 90 28 00
        E 2 90 28 50
        E 66 90 2d 50
        E 68 90 34 50
        E 70 90 3b 50
        E 68 90 3e 50
        E 68 90 43 50
        E 616 90 2d 00
        E 0 90 34 00
        E 0 90 3b 00
        E 0 90 3e 00
        E 0 90 43 00
        E 2 90 28 00
        E 2 90 28 50
        E 66 90 2d 50
        E 68 90 34 50
        E 70 90 3b 50
        E 68 90 3e 50
        E 68 90 43 50
        E 616 90 2d 00
        E 0 90 34 00
        E 0 90 3b 00
        E 0 90 3e 00
        E 0 90 43 00
        E 2 90 28 00
        E 2 90 28 50
        E 66 90 2d 50
        E 68 90 34 50
        E 70 90 3b 50
        E 68 90 3e 50
        E 68 90 43 50
        E 616 90 2d 00
        E 0 90 34 00
        E 0 90 3b 00
        E 0 90 3e 00
        E 0 90 43 00
        E 2 90 28 00
        E 2 90 28 50
        E 66 90 2d 50
        E 68 90 34 50
        E 70 90 3b 50
        E 68 90 3e 50
        E 68 90 43 50
        E 616 90 2d 00
        E 0 90 34 00
        E 0 90 3b 00
        E 0 90 3e 00
        E 0 90 43 00
        E 2 90 28 00
        E 2 90 28 50
        E 66 90 2d 50
        E 68 90 34 50
        E 70 90 3b 50
        E 68 90 3e 50
        E 68 90 43 50
        E 616 90 2d 00
        E 0 90 34 00
        E 0 90 3b 00
        E 0 90 3e 00
        E 0 90 43 00
        E 2 90 28 00
        E 2 90 28 50
        E 66 90 2d 50
        E 68 90 34 50
        E 70 90 3b 50
        E 68 90 3e 50
        E 68 90 43 50
        E 616 90 2d 00
        E 0 90 34 00
        E 0 90 3b 00
        E 0 90 3e 00
        E 0 90 43 00
        E 2 90 28 00
        E 2 90 28 50
        E 66 90 2d 50
        E 68 90 34 50
        E 70 90 3b 50
        E 68 90 3e 50
        E 68 90 43 50
        E 616 90 2d 00
        E 0 90 34 00
        E 0 90 3b 00
        E 0 90 3e 00
        E 0 90 43 00
        E 2 90 28 00
        E 2 90 28 50
        E 66 90 2d 50
        E 68 90 34 50
        E 70 90 3b 50
        E 68 90 3e 50
        E 68 90 43 50
        E 616 90 2d 00
        E 0 90 34 00
        E 0 90 3b 00
        E 0 90 3e 00
        E 0 90 43 00
        E 2 90 28 00
        E 2 90 28 50
        E 66 90 2d 50
        E 68 90 34 50
        E 70 90 3b 50
        E 68 90 3e 50
        E 68 90 43 50
        E 616 90 2d 00
        E 0 90 34 00
        E 0 90 3b 00
        E 0 90 3e 00
        E 0 90 43 00
        E 2 90 28 00
        E 2 90 43 50
        E 66 90 40 50
        E 68 90 39 50
        E 70 90 32 50
        E 68 90 2d 50
        E 68 90 28 50
        E 616 90 40 00
        E 0 90 39 00
        E 0 90 32 00
        E 0 90 2d 00
        E 0 90 28 00
        E 2 90 43 00
        E 2 90 43 50
        E 66 90 40 50
        E 68 90 39 50
        E 70 90 32 50
        E 68 90 2d 50
        E 68 90 28 50
        E 616 90 40 00
        E 0 90 39 00
        E 0 90 32 00
        E 0 90 2d 00
        E 0 90 28 00
        E 2 90 43 00
        E 2 90 43 50
        E 66 90 40 50
        E 68 90 39 50
        E 70 90 32 50
        E 68 90 2d 50
        E 684 90 40 00
        E 0 90 39 00
        E 0 90 32 00
        E 0 90 2d 00
        E 2 90 43 00
        E 2 90 43 50
        E 66 90 40 50
        E 68 90 39 50
        E 70 90 32 50
        E 68 90 2d 50
        E 684 90 40 00
        E 0 90 39 00
        E 0 90 32 00
        E 0 90 2d 00
        E 2 90 43 00
        E 2 90 43 50
        E 66 90 40 50
        E 68 90 39 50
        E 70 90 32 50
        E 68 90 2d 50
        E 684 90 40 00
        E 0 90 39 00
        E 0 90 32 00
        E 0 90 2d 00
        E 2 90 43 00
        E 2 90 43 50
        E 66 90 40 50
        E 68 90 39 50
        E 70 90 32 50
        E 68 90 2d 50
        E 684 90 40 00
        E 0 90 39 00
        E 0 90 32 00
        E 0 90 2d 00
        E 2 90 43 00
        E 2 90 43 50
        E 66 90 40 50
        E 68 90 39 50
        E 70 90 32 50
        E 68 90 2d 50
        E 68 90 28 50
        E 616 90 40 00
        E 0 90 39 00
        E 0 90 32 00
        E 0 90 2d 00
        E 0 90 28 00
        E 2 90 43 00
        E 2 90 43 50
        E 66 90 40 50
        E 68 90 39 50
        E 70 90 32 50
        E 68 90 2d 50
        E 68 90 28 50
        E 616 90 40 00
        E 0 90 39 00
        E 0 90 32 00
        E 0 90 2d 00
        E 0 90 28 00
        E 2 90 43 00
        E 2 90 43 50
        E 66 90 40 50
        E 68 90 39 50
        E 70 90 32 50
        E 68 90 2d 50
        E 68 90 28 50
        E 616 90 40 00
        E 0 90 39 00
        E 0 90 32 00
        E 0 90 2d 00
        E 0 90 28 00
        E 2 90 43 00
        E 2 90 43 50
        E 66 90 40 50
        E 68 90 39 50
        E 70 90 32 50
        E 68 90 2d 50
        E 68 90 28 50
        E 616 90 40 00
        E 0 90 39 00
        E 0 90 32 00
        E 0 90 2d 00
        E 0 90 28 00
        E 2 90 43 00
        E 2 90 43 50
        E 66 90 40 50
        E 68 90 39 50
        E 70 90 32 50
        E 68 90 2d 50
        E 68 90 28 50
        E 616 90 40 00
        E 0 90 39 00
        E 0 90 32 00
        E 0 90 2d 00
        E 0 90 28 00
        E 2 90 43 00
        E 2 90 43 50
        E 66 90 40 50
        E 68 90 39 50
        E 70 90 32 50
        E 68 90 2d 50
        E 68 90 28 50
        E 616 90 40 00
        E 0 90 39 00
        E 0 90 32 00
        E 0 90 2d 00
        E 0 90 28 00
        E 2 90 43 00
        E 2 90 43 50
        E 66 90 40 50
        E 68 90 39 50
        E 70 90 32 50
        E 68 90 2d 50
        E 68 90 28 50
        E 616 90 40 00
        E 0 90 39 00
        E 0 90 32 00
        E 0 90 2d 00
        E 0 90 28 00
        E 2 90 43 00
        E 2 90 43 50
        E 66 90 40 50
        E 68 90 39 50
        E 70 90 32 50
        E 68 90 2d 50
        E 68 90 28 50
        E 616 90 40 00
        E 0 90 39 00
        E 0 90 32 00
        E 0 90 2d 00
        E 0 90 28 00
        E 2 90 43 00
        E 2 90 43 50
        E 66 90 40 50
        E 68 90 39 50
        E 70 90 32 50
        E 68 90 2d 50
        E 68 90 28 50
        E 616 90 40 00
        E 0 90 39 00
        E 0 90 32 00
        E 0 90 2d 00
        E 0 90 28 00
        E 2 90 43 00
        E 2 90 43 50
        E 66 90 40 50
        E 68 90 39 50
        E 70 90 32 50
        E 68 90 2d 50
        E 68 90 28 50
        E 616 90 40 00
        E 0 90 39 00
        E 0 90 32 00
        E 0 90 2d 00
        E 0 90 28 00
        E 2 90 43 00
        E 2 90 43 50
        E 66 90 40 50
        E 68 90 39 50
        E 70 90 32 50
        E 68 90 2d 50
        E 68 90 28 50
        E 616 90 40 00
        E 0 90 39 00
        E 0 90 32 00
        E 0 90 2d 00
        E 0 90 28 00
        E 2 90 43 00
        E 2 90 43 50
        E 66 90 40 50
        E 68 90 39 50
        E 70 90 32 50
        E 68 90 2d 50
        E 68 90 28 50
        E 616 90 40 00
        E 0 90 39 00
        E 0 90 32 00
        E 0 90 2d 00
        E 0 90 28 00
        E 2 90 43 00
        E 2 90 43 50
        E 66 90 40 50
        E 68 90 39 50
        E 70 90 32 50
        E 68 90 2d 50
        E 68 90 28 50
        E 616 90 40 00
        E 0 90 39 00
        E 0 90 32 00
        E 0 90 2d 00
        E 0 90 28 00
        E 2 90 43 00
        E 2 90 43 50
        E 66 90 40 50
        E 68 90 39 50
        E 70 90 32 50
        E 68 90 2d 50
        E 68 90 28 50
        E 616 90 40 00
        E 0 90 39 00
        E 0 90 32 00
        E 0 90 2d 00
        E 0 90 28 00
        E 2 90 43 00
        E 2 90 43 50
        E 66 90 40 50
        E 68 90 39 50
        E 70 90 32 50
        E 68 90 2d 50
        E 68 90 28 50
        E 616 90 40 00
        E 0 90 39 00
        E 0 90 32 00
        E 0 90 2d 00
        E 0 90 28 00
        E 2 90 43 00
        E 2 90 43 50
        E 66 90 40 50
        E 68 90 39 50
        E 70 90 32 50
        E 68 90 2d 50
        E 68 90 28 50
        E 616 90 40 00
        E 0 90 39 00
        E 0 90 32 00
        E 0 90 2d 00
        E 0 90 28 00
        E 2 90 43 00
        E 2 90 43 50
        E 66 90 40 50
        E 68 90 39 50
        E 70 90 32 50
        E 68 90 2d 50
        E 68 90 28 50
        E 616 90 40 00
        E 0 90 39 00
        E 0 90 32 00
        E 0 90 2d 00
        E 0 90 28 00
        E 2 90 43 00
        E 2 90 43 50
        E 66 90 40 50
        E 68 90 39 50
        E 70 90 32 50
        E 68 90 2d 50
        E 68 90 28 50
        E 616 90 40 00
        E 0 90 39 00
        E 0 90 32 00
        E 0 90 2d 00
        E 0 90 28 00
        E 2 90 43 00
        E 2 90 43 50
        E 66 90 40 50
        E 68 90 39 50
        E 70 90 32 50
        E 68 90 2d 50
        E 68 90 28 50
        E 616 90 40 00
        E 0 90 39 00
        E 0 90 32 00
        E 0 90 2d 00
        E 0 90 28 00
        E 2 90 43 00
        E 2 90 43 50
        E 66 90 40 50
        E 68 90 39 50
        E 70 90 32 50
        E 68 90 2d 50
        E 68 90 28 50
        E 616 90 40 00
        E 0 90 39 00
        E 0 90 32 00
        E 0 90 2d 00
        E 0 90 28 00
        E 2 90 43 00
        E 2 90 43 50
        E 66 90 40 50
        E 68 90 39 50
        E 70 90 34 50
        E 68 90 2d 50
        E 68 90 28 50
        E 616 90 40 00
        E 0 90 39 00
        E 0 90 34 00
        E 0 90 2d 00
        E 0 90 28 00
        E 2 90 43 00
        E 2 90 43 50
        E 66 90 40 50
        E 68 90 39 50
        E 70 90 34 50
        E 68 90 2d 50
        E 68 90 28 50
        E 616 90 40 00
        E 0 90 39 00
        E 0 90 34 00
        E 0 90 2d 00
        E 0 90 28 00
        E 2 90 43 00
        E 2 90 43 50
        E 66 90 40 50
        E 68 90 39 50
        E 70 90 34 50
        E 68 90 2d 50
        E 68 90 28 50
        E 616 90 40 00
        E 0 90 39 00
        E 0 90 34 00
        E 0 90 2d 00
        E 0 90 28 00
        E 2 90 43 00
        E 2 90 43 50
        E 66 90 40 50
        E 68 90 39 50
        E 70 90 34 50
        E 68 90 2d 50
        E 68 90 28 50
        E 616 90 40 00
        E 0 90 39 00
        E 0 90 34 00
        E 0 90 2d 00
        E 0 90 28 00
        E 2 90 43 00
        E 2 90 43 50
        E 66 90 40 50
        E 68 90 39 50
        E 70 90 34 50
        E 68 90 2d 50
        E 68 90 28 50
        E 616 90 40 00
        E 0 90 39 00
        E 0 90 34 00
        E 0 90 2d 00
        E 0 90 28 00
        E 2 90 43 00
        E 2 90 43 50
        E 66 90 40 50
        E 68 90 39 50
        E 70 90 34 50
        E 68 90 2d 50
        E 68 90 28 50
        E 616 90 40 00
        E 0 90 39 00
        E 0 90 34 00
        E 0 90 2d 00
        E 0 90 28 00
        E 2 90 43 00
        E 2 90 43 50
        E 66 90 40 50
        E 68 90 39 50
        E 70 90 34 50
        E 68 90 2d 50
        E 68 90 28 50
        E 616 90 40 00
        E 0 90 39 00
        E 0 90 34 00
        E 0 90 2d 00
        E 0 90 28 00
        E 2 90 43 00
        E 2 90 43 50
        E 66 90 40 50
        E 68 90 39 50
        E 70 90 34 50
        E 68 90 2d 50
        E 68 90 28 50
        E 616 90 40 00
        E 0 90 39 00
        E 0 90 34 00
        E 0 90 2d 00
        E 0 90 28 00
        E 2 90 43 00
        E 2 90 43 50
        E 66 90 40 50
        E 68 90 39 50
        E 70 90 34 50
        E 68 90 2d 50
        E 68 90 28 50
        E 616 90 40 00
        E 0 90 39 00
        E 0 90 34 00
        E 0 90 2d 00
        E 0 90 28 00
        E 2 90 43 00
        E 2 90 43 50
        E 66 90 40 50
        E 68 90 39 50
        E 70 90 34 50
        E 68 90 2d 50
        E 68 90 28 50
        E 616 90 40 00
        E 0 90 39 00
        E 0 90 34 00
        E 0 90 2d 00
        E 0 90 28 00
        E 2 90 43 00
        E 2 90 43 50
        E 66 90 40 50
        E 68 90 39 50
        E 70 90 34 50
        E 68 90 2d 50
        E 68 90 28 50
        E 616 90 40 00
        E 0 90 39 00
        E 0 90 34 00
        E 0 90 2d 00
        E 0 90 28 00
        E 2 90 43 00
        E 2 90 43 50
        E 66 90 40 50
        E 68 90 39 50
        E 70 90 34 50
        E 68 90 2d 50
        E 68 90 28 50
        E 616 90 40 00
        E 0 90 39 00
        E 0 90 34 00
        E 0 90 2d 00
        E 0 90 28 00
        E 2 90 43 00
        E 38402 90 2a 50
        E 66 90 2f 50
        E 68 90 34 50
        E 70 90 3b 50
        E 68 90 3e 50
        E 68 90 43 50
        E 616 90 2f 00
        E 0 90 34 00
        E 0 90 3b 00
        E 0 90 3e 00
        E 0 90 43 00
        E 2 90 2a 00
        E 2 90 28 50
        E 66 90 2d 50
        E 68 90 34 50
        E 70 90 3b 50
        E 68 90 3e 50
        E 68 90 43 50
        E 616 90 2d 00
        E 0 90 34 00
        E 0 90 3b 00
        E 0 90 3e 00
        E 0 90 43 00
        E 2 90 28 00
        E 2 90 2b 50
        E 66 90 30 50
        E 68 90 34 50
        E 70 90 3b 50
        E 68 90 3e 50
        E 68 90 43 50
        E 616 90 30 00
        E 0 90 34 00
        E 0 90 3b 00
        E 0 90 3e 00
        E 0 90 43 00
        E 2 90 2b 00
        E 2 90 2b 50
        E 66 90 30 50
        E 68 90 34 50
        E 70 90 3b 50
        E 68 90 3e 50
        E 68 90 43 50
        E 616 90 30 00
        E 0 90 34 00
        E 0 90 3b 00
        E 0 90 3e 00
        E 0 90 43 00
        E 2 90 2b 00
        E 2 90 2b 50
        E 66 90 30 50
        E 68 90 35 50
        E 70 90 3c 50
        E 68 90 40 50
        E 68 90 43 50
        E 616 90 30 00
        E 0 90 35 00
        E 0 90 3c 00
        E 0 90 40 00
        E 0 90 43 00
        E 2 90 2b 00
        E 2 90 2b 50
        E 66 90 30 50
        E 68 90 35 50
        E 70 90 3c 50
        E 68 90 40 50
        E 68 90 43 50
        E 616 90 30 00
        E 0 90 35 00
        E 0 90 3c 00
        E 0 90 40 00
        E 0 90 43 00
        E 2 90 2b 00
        E 2 90 2b 50
        E 66 90 30 50
        E 68 90 35 50
        E 70 90 3c 50
        E 68 90 40 50
        E 68 90 43 50
        E 616 90 30 00
        E 0 90 35 00
        E 0 90 3c 00
        E 0 90 40 00
        E 0 90 43 00
        E 2 90 2b 00
        E 2 90 2b 50
        E 66 90 30 50
        E 68 90 35 50
        E 70 90 3c 50
        E 68 90 40 50
        E 68 90 43 50
        E 616 90 30 00
        E 0 90 35 00
        E 0 90 3c 00
        E 0 90 40 00
        E 0 90 43 00
        E 2 90 2b 00
        E 2 90 2b 50
        E 66 90 30 50
        E 68 90 35 50
        E 70 90 3c 50
        E 68 90 40 50
        E 68 90 43 50
        E 616 90 30 00
        E 0 90 35 00
        E 0 90 3c 00
        E 0 90 40 00
        E 0 90 43 00
        E 2 90 2b 00
        E 2 90 2b 50
        E 66 90 30 50
        E 68 90 35 50
        E 70 90 3c 50
        E 68 90 40 50
        E 68 90 43 50
        E 616 90 30 00
        E 0 90 35 00
        E 0 90 3c 00
        E 0 90 40 00
        E 0 90 43 00
        E 2 90 2b 00
        E 2 90 2b 50
        E 66 90 30 50
        E 68 90 35 50
        E 70 90 3c 50
        E 68 90 40 50
        E 68 90 43 50
        E 616 90 30 00
        E 0 90 35 00
        E 0 90 3c 00
        E 0 90 40 00
        E 0 90 43 00
        E 2 90 2b 00
        E 2 90 2b 50
        E 66 90 30 50
        E 68 90 35 50
        E 70 90 3c 50
        E 68 90 40 50
        E 68 90 43 50
        E 616 90 30 00
        E 0 90 35 00
        E 0 90 3c 00
        E 0 90 40 00
        E 0 90 43 00
        E 2 90 2b 00
        E 2 90 2b 50
        E 66 90 30 50
        E 68 90 35 50
        E 70 90 3c 50
        E 68 90 40 50
        E 68 90 43 50
        E 616 90 30 00
        E 0 90 35 00
        E 0 90 3c 00
        E 0 90 40 00
        E 0 90 43 00
        E 2 90 2b 00
        E 2 90 2b 50
        E 66 90 30 50
        E 68 90 35 50
        E 70 90 3c 50
        E 68 90 40 50
        E 68 90 43 50
        E 616 90 30 00
        E 0 90 35 00
        E 0 90 3c 00
        E 0 90 40 00
        E 0 90 43 00
        E 2 90 2b 00
        E 2 90 2b 50
        E 66 90 30 50
        E 68 90 35 50
        E 70 90 3c 50
        E 68 90 40 50
        E 68 90 43 50
        E 616 90 30 00
        E 0 90 35 00
        E 0 90 3c 00
        E 0 90 40 00
        E 0 90 43 00
        E 2 90 2b 00
        E 2 90 2b 50
        E 66 90 30 50
        E 68 90 35 50
        E 70 90 3c 50
        E 68 90 40 50
        E 68 90 43 50
        E 616 90 30 00
        E 0 90 35 00
        E 0 90 3c 00
        E 0 90 40 00
        E 0 90 43 00
        E 2 90 2b 00
        E 2 90 43 50
        E 66 90 40 50
        E 68 90 39 50
        E 70 90 34 50
        E 68 90 2d 50
        E 68 90 28 50
        E 616 90 40 00
        E 0 90 39 00
        E 0 90 34 00
        E 0 90 2d 00
        E 0 90 28 00
        E 2 90 43 00
        E 2 90 43 50
        E 66 90 40 50
        E 68 90 39 50
        E 70 90 34 50
        E 68 90 2d 50
        E 68 90 28 50
        E 616 90 40 00
        E 0 90 39 00
        E 0 90 34 00
        E 0 90 2d 00
        E 0 90 28 00
        E 2 90 43 00
        E 2 90 43 50
        E 66 90 40 50
        E 68 90 39 50
        E 70 90 34 50
        E 68 90 2d 50
        E 68 90 28 50
        E 616 90 40 00
        E 0 90 39 00
        E 0 90 34 00
        E 0 90 2d 00
        E 0 90 28 00
        E 2 90 43 00
        E 2 90 43 50
        E 66 90 40 50
        E 68 90 39 50
        E 70 90 34 50
        E 68 90 2d 50
        E 68 90 28 50
        E 616 90 40 00
        E 0 90 39 00
        E 0 90 34 00
        E 0 90 2d 00
        E 0 90 28 00
        E 2 90 43 00
        E 2 90 43 50
        E 66 90 40 50
        E 68 90 39 50
        E 70 90 34 50
        E 68 90 2d 50
        E 68 90 28 50
        E 616 90 40 00
        E 0 90 39 00
        E 0 90 34 00
        E 0 90 2d 00
        E 0 90 28 00
        E 2 90 43 00
        E 2 90 43 50
        E 66 90 40 50
        E 68 90 39 50
        E 70 90 34 50
        E 68 90 2d 50
        E 68 90 28 50
        E 616 90 40 00
        E 0 90 39 00
        E 0 90 34 00
        E 0 90 2d 00
        E 0 90 28 00
        E 2 90 43 00
        E 2 90 43 50
        E 66 90 40 50
        E 68 90 39 50
        E 70 90 34 50
        E 68 90 2d 50
        E 68 90 28 50
        E 616 90 40 00
        E 0 90 39 00
        E 0 90 34 00
        E 0 90 2d 00
        E 0 90 28 00
        E 2 90 43 00
        E 2 90 43 50
        E 66 90 40 50
        E 68 90 39 50
        E 70 90 34 50
        E 68 90 2d 50
        E 68 90 28 50
        E 616 90 40 00
        E 0 90 39 00
        E 0 90 34 00
        E 0 90 2d 00
        E 0 90 28 00
        E 2 90 43 00
        E 2 90 43 50
        E 66 90 40 50
        E 68 90 39 50
        E 70 90 34 50
        E 68 90 2d 50
        E 68 90 28 50
        E 616 90 40 00
        E 0 90 39 00
        E 0 90 34 00
        E 0 90 2d 00
        E 0 90 28 00
        E 2 90 43 00
        E 2 90 43 50
        E 66 90 40 50
        E 68 90 39 50
        E 70 90 34 50
        E 68 90 2d 50
        E 68 90 28 50
        E 616 90 40 00
        E 0 90 39 00
        E 0 90 34 00
        E 0 90 2d 00
        E 0 90 28 00
        E 2 90 43 00
        E 2 90 43 50
        E 66 90 40 50
        E 68 90 39 50
        E 70 90 34 50
        E 68 90 2d 50
        E 68 90 28 50
        E 616 90 40 00
        E 0 90 39 00
        E 0 90 34 00
        E 0 90 2d 00
        E 0 90 28 00
        E 2 90 43 00
        E 2 90 43 50
        E 66 90 40 50
        E 68 90 39 50
        E 70 90 34 50
        E 68 90 2d 50
        E 68 90 28 50
        E 616 90 40 00
        E 0 90 39 00
        E 0 90 34 00
        E 0 90 2d 00
        E 0 90 28 00
        E 2 90 43 00
        E 2 90 43 50
        E 66 90 40 50
        E 68 90 39 50
        E 70 90 34 50
        E 68 90 2d 50
        E 68 90 28 50
        E 616 90 40 00
        E 0 90 39 00
        E 0 90 34 00
        E 0 90 2d 00
        E 0 90 28 00
        E 2 90 43 00
        E 2 90 43 50
        E 66 90 40 50
        E 68 90 39 50
        E 70 90 34 50
        E 68 90 2d 50
        E 68 90 28 50
        E 616 90 40 00
        E 0 90 39 00
        E 0 90 34 00
        E 0 90 2d 00
        E 0 90 28 00
        E 2 90 43 00
        E 2 90 43 50
        E 66 90 40 50
        E 68 90 39 50
        E 70 90 34 50
        E 68 90 2d 50
        E 68 90 28 50
        E 616 90 40 00
        E 0 90 39 00
        E 0 90 34 00
        E 0 90 2d 00
        E 0 90 28 00
        E 2 90 43 00
        E 2 90 43 50
        E 66 90 40 50
        E 68 90 39 50
        E 70 90 34 50
        E 68 90 2d 50
        E 68 90 28 50
        E 616 90 40 00
        E 0 90 39 00
        E 0 90 34 00
        E 0 90 2d 00
        E 0 90 28 00
        E 2 90 43 00
        E 7682 90 43 50
        E 66 90 40 50
        E 68 90 39 50
        E 70 90 34 50
        E 68 90 2d 50
        E 68 90 28 50
        E 616 90 40 00
        E 0 90 39 00
        E 0 90 34 00
        E 0 90 2d 00
        E 0 90 28 00
        E 2 90 43 00
        E 2 90 43 50
        E 66 90 40 50
        E 68 90 39 50
        E 70 90 34 50
        E 68 90 2d 50
        E 68 90 28 50
        E 616 90 40 00
        E 0 90 39 00
        E 0 90 34 00
        E 0 90 2d 00
        E 0 90 28 00
        E 2 90 43 00
        E 2 90 43 50
        E 66 90 40 50
        E 68 90 39 50
        E 70 90 34 50
        E 68 90 2d 50
        E 68 90 28 50
        E 616 90 40 00
        E 0 90 39 00
        E 0 90 34 00
        E 0 90 2d 00
        E 0 90 28 00
        E 2 90 43 00
        E 2 90 43 50
        E 66 90 40 50
        E 68 90 39 50
        E 70 90 34 50
        E 68 90 2d 50
        E 68 90 28 50
        E 616 90 40 00
        E 0 90 39 00
        E 0 90 34 00
        E 0 90 2d 00
        E 0 90 28 00
        E 2 90 43 00
        E 15362 b0 7b 00
        CCINTERP 32
        CHASE_CC_TAKEOFFS 1
        GUID {9B226E0E-4077-4990-8AA2-8E7551B8D392}
        IGNTEMPO 0 120 4 4
        SRCCOLOR 27196
        VELLANE -1 100 0
        VELLANE 131 100 0
        CFGEDITVIEW 21149.466888 1.671598 56 12 0 -1 0 0 0 0.5
        KEYSNAP 0
        TRACKSEL 283
        EVTFILTER 0 -1 -1 -1 -1 0 0 0 0 -1 -1 -1 -1 0 -1 0 -1 -1
        CFGEDIT 1 1 0 1 1 0 1 3 1 1 1 1 385 670 1329 1692 0 0 1 2 0 0 0 0 0 0.5 0 0 1 64
      >
    >
    <ITEM
      POSITION 52.5
      SNAPOFFS 0
      LENGTH 11.484375
      LOOP 0
      ALLTAKES 0
      FADEIN 1 0 0 1 0 0 0
      FADEOUT 1 0 0 1 0 0 0
      MUTE 0 0
      SEL 0
      IGUID {8D4F66E2-04FB-468D-87F5-C91261D2F3DD}
      IID 2231
      NAME "untitled MIDI item-glued"
      VOLPAN 1 0 1 -1
      SOFFS 0 0
      PLAYRATE 1 1 0 -1 0 0.0025
      CHANMODE 0
      GUID {E86E637C-123F-416C-A83B-876FF123D751}
      <SOURCE MIDI
        HASDATA 1 960 QN
        CCINTERP 32
        POOLEDEVTS {789A3A24-C868-49D6-BF31-18DEFF4828E8}
        E 0 90 39 5f
        E 240 90 3b 5e
        E 240 90 3e 60
        E 0 90 43 60
        <X 2400 0
          /w9UVVBMIDM6MiBsZW4gMS4wMDAwMDAgc3RhZmYgMQ==
        >
        E 302 80 39 00
        E 0 80 3b 00
        E 0 80 3e 00
        E 0 80 43 00
        E 18 90 39 60
        E 0 90 3b 5f
        E 0 90 3e 5f
        E 0 90 43 5f
        E 320 80 39 00
        E 0 80 3b 00
        E 0 80 3e 00
        E 0 80 43 00
        E 0 90 3d 61
        E 0 90 45 59
        E 0 90 40 59
        E 0 90 49 60
        E 8000 80 45 00
        E 0 80 40 00
        E 0 80 49 00
        E 21 80 3d 00
        E 219 b0 7b 00
        CCINTERP 32
        CHASE_CC_TAKEOFFS 1
        GUID {C6003EA2-1B29-4B64-A67D-9F2B26BE5412}
        IGNTEMPO 0 120 4 4
        SRCCOLOR 136112
        VELLANE 132 100 0
        VELLANE -1 100 0
      >
    >
    <ITEM
      POSITION 158.67674891988401
      SNAPOFFS 0
      LENGTH 71.612908
      LOOP 0
      ALLTAKES 0
      FADEIN 1 0 0 1 0 0 0
      FADEOUT 1 0 0 1 0 0 0
      MUTE 0 0
      SEL 0
      IGUID {903CE98E-C372-460A-9733-E9CBD13263C9}
      IID 46
      NAME "Harpsichord - Exiled_(Coda)-glued"
      VOLPAN 1 0 1 -1
      SOFFS 0 0
      PLAYRATE 1 1 0 -1 0 0.0025
      CHANMODE 0
      GUID {2A0C74E0-01E1-45EC-B532-3B58E931B609}
      <SOURCE MIDI
        HASDATA 1 960 QN
        CCINTERP 32
        POOLEDEVTS {D4543FDC-C129-44F0-A26B-E373210DAD1C}
        E 0 91 2c 60
        E 0 93 2c 50
        E 0 93 3f 50
        E 0 93 43 50
        E 0 93 44 50
        E 0 93 46 50
        E 238 91 2c 00
        E 722 93 2c 00
        E 0 93 3f 00
        E 0 93 43 00
        E 0 93 44 00
        E 0 93 46 00
        E 0 93 2a 50
        E 0 93 3d 50
        E 0 93 41 50
        E 0 93 42 50
        E 0 93 46 50
        E 2880 93 2a 00
        E 0 93 3d 00
        E 0 93 41 00
        E 0 93 42 00
        E 0 93 46 00
        E 0 91 29 60
        E 0 93 29 50
        E 0 93 41 50
        E 0 93 44 50
        E 0 91 3c 60
        E 238 91 29 00
        E 722 93 29 00
        E 0 93 41 00
        E 0 93 44 00
        E 0 91 3c 00
        E 0 91 27 60
        E 0 93 3f 50
        E 0 93 43 50
        E 0 93 46 50
        E 1920 91 27 00
        E 0 93 3f 00
        E 0 93 43 00
        E 0 93 46 00
        E 0 91 25 60
        E 0 93 3d 50
        E 0 93 41 50
        E 0 93 44 50
        E 960 93 3d 00
        E 0 93 41 00
        E 0 93 44 00
        E 0 93 3d 50
        E 0 93 42 50
        E 0 93 44 50
        E 960 91 25 00
        E 0 93 3d 00
        E 0 93 42 00
        E 0 93 44 00
        E 0 93 41 50
        E 0 93 44 50
        E 0 93 46 50
        E 0 91 25 60
        E 960 93 41 00
        E 0 93 44 00
        E 0 93 46 00
        E 0 93 3d 50
        E 0 93 41 50
        E 0 93 44 50
        E 0 90 3c 50
        E 960 91 25 00
        E 0 93 3d 00
        E 0 93 41 00
        E 0 93 44 00
        E 0 80 3c 00
        E 0 93 3d 50
        E 0 93 41 50
        E 0 93 44 50
        E 0 91 25 60
        E 1918 91 25 00
        E 2 93 3d 00
        E 0 93 41 00
        E 0 93 44 00
        E 0 93 28 50
        E 0 93 40 50
        E 0 93 43 50
        E 0 93 46 50
        E 960 93 28 00
        E 0 93 40 00
        E 0 93 43 00
        E 0 93 46 00
        E 0 91 2c 60
        E 0 93 2c 50
        E 0 93 3f 50
        E 0 93 43 50
        E 0 93 44 50
        E 0 93 46 50
        E 238 91 2c 00
        E 722 93 2c 00
        E 0 93 3f 00
        E 0 93 43 00
        E 0 93 44 00
        E 0 93 46 00
        E 0 91 2a 60
        E 0 93 3d 50
        E 0 93 41 50
        E 0 93 42 50
        E 0 93 46 50
        E 2880 91 2a 00
        E 0 93 3d 00
        E 0 93 41 00
        E 0 93 42 00
        E 0 93 46 00
        E 0 91 29 60
        E 0 93 29 50
        E 0 93 41 50
        E 0 93 44 50
        E 0 91 3c 60
        E 238 91 29 00
        E 722 93 29 00
        E 0 93 41 00
        E 0 93 44 00
        E 0 91 3c 00
        E 0 91 27 60
        E 0 93 27 50
        E 0 93 3d 50
        E 0 93 3f 50
        E 0 93 43 50
        E 0 93 46 50
        E 238 91 27 00
        E 722 91 27 60
        E 238 91 27 00
        E 722 93 27 00
        E 0 93 3d 00
        E 0 93 3f 00
        E 0 93 43 00
        E 0 93 46 00
        E 0 91 25 60
        E 0 93 46 50
        E 0 93 42 50
        E 0 93 3f 50
        E 960 91 25 00
        E 0 91 25 60
        E 0 93 41 50
        E 960 93 46 00
        E 0 93 42 00
        E 0 93 3f 00
        E 0 91 25 00
        E 0 91 25 60
        E 0 93 46 50
        E 0 93 42 50
        E 0 93 3f 50
        E 0 93 3d 50
        E 960 93 41 00
        E 0 91 3c 60
        E 718 91 3c 00
        E 242 91 25 00
        E 0 93 46 00
        E 0 93 42 00
        E 0 93 3f 00
        E 0 93 3d 00
        E 0 91 25 60
        E 0 93 41 50
        E 0 93 44 50
        E 2 91 3d 60
        E 958 91 25 00
        E 0 91 3d 00
        E 0 91 25 60
        E 0 91 3d 5f
        E 1920 93 41 00
        E 0 93 44 00
        E 0 91 25 00
        E 0 91 3d 00
        E 0 91 27 50
        E 0 93 27 50
        E 0 93 3c 50
        E 0 93 3f 50
        E 0 93 42 50
        E 0 93 46 50
        E 238 91 27 00
        E 722 93 27 00
        E 0 93 3c 00
        E 0 93 3f 00
        E 0 93 42 00
        E 0 93 46 00
        E 0 91 2a 60
        E 0 93 2a 50
        E 0 93 3d 50
        E 0 93 41 50
        E 0 93 42 50
        E 0 93 46 50
        E 238 91 2a 00
        E 722 93 2a 00
        E 0 93 3d 00
        E 0 93 41 00
        E 0 93 42 00
        E 0 93 46 00
        E 0 91 2c 60
        E 0 93 2c 50
        E 0 93 3f 50
        E 0 93 43 50
        E 0 93 44 50
        E 0 93 46 50
        E 238 91 2c 00
        E 722 93 2c 00
        E 0 93 3f 00
        E 0 93 43 00
        E 0 93 44 00
        E 0 93 46 00
        E 0 93 2a 50
        E 0 93 3d 50
        E 0 93 41 50
        E 0 93 42 50
        E 0 93 46 50
        E 2880 93 2a 00
        E 0 93 3d 00
        E 0 93 41 00
        E 0 93 42 00
        E 0 93 46 00
        E 0 91 27 60
        E 0 93 29 50
        E 0 93 3c 50
        E 0 93 41 50
        E 0 93 44 50
        E 960 93 29 00
        E 0 93 3c 00
        E 0 93 41 00
        E 0 93 44 00
        E 0 93 3d 50
        E 0 93 3f 50
        E 0 93 43 50
        E 0 93 46 50
        E 960 91 27 00
        E 0 93 3d 00
        E 0 93 3f 00
        E 0 93 43 00
        E 0 93 46 00
        E 0 91 25 60
        E 0 93 3d 50
        E 0 93 41 50
        E 0 93 44 50
        E 0 93 47 50
        E 1920 91 25 00
        E 0 93 3d 00
        E 0 93 41 00
        E 0 93 44 00
        E 0 93 47 00
        E 0 91 27 60
        E 0 93 3f 4d
        E 0 93 42 50
        E 0 93 46 50
        E 960 93 46 00
        E 0 93 44 50
        E 960 91 27 00
        E 0 93 3f 00
        E 0 93 42 00
        E 0 93 44 00
        E 0 91 27 5d
        E 0 93 27 4d
        E 0 93 3f 4d
        E 0 93 42 50
        E 0 93 46 50
        E 238 91 27 00
        E 722 93 3f 00
        E 0 93 3e 50
        E 960 93 27 00
        E 0 93 42 00
        E 0 93 3e 00
        E 0 91 26 60
        E 0 93 3e 6d
        E 0 93 41 6d
        E 0 93 44 6d
        E 238 93 46 00
        E 2642 93 41 00
        E 0 93 40 50
        E 960 91 26 00
        E 0 93 3e 00
        E 0 93 44 00
        E 0 93 40 00
        E 0 91 26 60
        E 0 93 3e 50
        E 0 93 42 50
        E 0 93 45 50
        <X 3840 0
          /1kCBAA=
        >
        E 0 91 26 00
        E 0 93 3e 00
        E 0 93 42 00
        E 0 93 45 00
        E 0 93 3e 50
        E 0 93 42 50
        E 0 93 45 50
        E 0 90 26 60
        E 7680 93 3e 00
        E 0 93 42 00
        E 0 93 45 00
        E 0 80 26 00
        E 0 93 26 50
        E 0 93 3e 50
        E 3840 83 26 00
        E 0 83 3e 00
        E 0 93 26 50
        E 0 93 3e 50
        E 0 90 35 60
        E 3840 83 26 00
        E 0 83 3e 00
        E 0 93 26 50
        E 0 93 3e 50
        e 0 90 38 60
        E 7678 93 26 00
        E 0 93 3e 00
        E 2 80 35 00
        e 0 80 38 00
        E 0 b0 7b 00
        CCINTERP 32
        CHASE_CC_TAKEOFFS 1
        GUID {C099FD49-0FCA-4DE4-852E-9B7DF2BBF37C}
        IGNTEMPO 0 120 4 4
        SRCCOLOR 131545
        VELLANE -1 100 0
        VELLANE 2 100 0
        CFGEDITVIEW 58663.737533 73.437783 56 12 0 -1 0 0 0 0.5
        KEYSNAP 0
        TRACKSEL 283
        EVTFILTER 0 -1 -1 -1 -1 0 0 0 0 -1 -1 -1 -1 0 -1 0 -1 -1
        CFGEDIT 1 1 0 1 1 0 1 2 1 1 1 0.25 814 690 1532 1424 0 0 1 2 0 0 0 1 0 0.2 1 0 1 64
      >
    >
  >
  <EXTENSIONS
  >
>
